<?xml version="1.0" encoding="UTF-8"?>
<svg id="Layer_1" data-name="Layer 1" xmlns="http://www.w3.org/2000/svg" viewBox="0 0 249.27 72.25">
  <defs>
    <style>
      .cls-1 {
        stroke-width: 0px;
      }

      .cls-1, .cls-2 {
        fill: #000;
      }

      .cls-2 {
        font-family: RushfordClean, 'Rushford Clean';
        font-size: 22.87px;
      }
    </style>
  </defs>
  <path class="cls-1" d="M63.89,5.29l-20.65,24.47L18.75,5.29h-2.38l26.52,26.52h0c2.19-.85,5.27.02,7.83,2.57,2.79,2.79,3.03,7.36.96,9.48h0c-2.12,2.08-6.69,1.84-9.48-.95-2.56-2.56-3.42-5.64-2.57-7.82h0S9.85,5.29,9.85,5.29h-2.4l2.24,2.23v59.44h13.18v-27.43c3.13,3.49,4.06,3.67,4.44,3.75.46.09.94.13,1.42.13.35,0,.7-.02,1.05-.07l23.61,23.62h2.39l-25.46-25.46c-.88.26-1.81.3-2.68.12-1.64-.32-9.21-10.21-9.21-10.21l.76-.76,8.19,8.19.75-.75-8.19-8.19.82-.82,8.2,8.19.75-.76-8.19-8.19.85-.85,8.19,8.19.76-.75-8.19-8.19.58-.58s9.89,7.57,10.21,9.21c.2.97.14,2.02-.22,3l28.62,28.61h6.33V5.29h-4.75ZM55.46,57.73l-10.7-10.7.4-.49c.87.25,1.77.39,2.68.39,2.02,0,3.8-.66,5.05-1.89,2.18-2.22,2.4-6.07.86-9.25l1.71-2.13v24.06Z"/>
  <text class="cls-2" transform="translate(74.58 57.94)"><tspan x="0" y="0">MILMASTOON</tspan></text>
</svg>