<?xml version="1.0" encoding="UTF-8"?>
<svg id="Layer_1" data-name="Layer 1" xmlns="http://www.w3.org/2000/svg" viewBox="0 0 166.47 48.25">
  <defs>
    <style>
      .cls-1 {
        stroke-width: 0px;
      }

      .cls-1, .cls-2 {
        fill: #000;
      }

      .cls-2 {
        font-family: RushfordClean, 'Rushford Clean';
        font-size: 13.08px;
      }
    </style>
  </defs>
  <path class="cls-1" d="M43.51,6.5l-11.8,13.99-14-13.99h-1.36l15.16,15.16h0c1.25-.49,3.01,0,4.48,1.47,1.6,1.6,1.73,4.21.55,5.42h0c-1.21,1.19-3.82,1.05-5.42-.54-1.46-1.46-1.95-3.22-1.47-4.47h0S12.62,6.5,12.62,6.5h-1.37l1.28,1.28v33.98h7.53v-15.68c1.79,1.99,2.32,2.1,2.54,2.14.27.05.54.07.81.07.2,0,.4-.01.6-.04l13.5,13.5h1.37l-14.56-14.56c-.5.15-1.03.17-1.53.07-.94-.18-5.26-5.84-5.26-5.84l.44-.44,4.68,4.68.43-.43-4.68-4.68.47-.47,4.69,4.68.43-.43-4.68-4.68.48-.48,4.68,4.68.43-.43-4.68-4.68.33-.33s5.66,4.33,5.84,5.27c.11.55.08,1.16-.13,1.72l16.36,16.36h3.62V6.5h-2.71ZM38.69,36.48l-6.12-6.12.23-.28c.5.15,1.01.22,1.53.22,1.15,0,2.17-.38,2.89-1.08,1.24-1.27,1.37-3.47.49-5.29l.97-1.22v13.76Z"/>
  <text class="cls-2" transform="translate(49.63 36.6)"><tspan x="0" y="0">MILMASTOON</tspan></text>
</svg>