<?xml version="1.0" encoding="UTF-8"?>
<svg id="Layer_1" data-name="Layer 1" xmlns="http://www.w3.org/2000/svg" viewBox="0 0 137.62 53.36">
  <defs>
    <style>
      .cls-1 {
        stroke-width: 0px;
      }

      .cls-1, .cls-2 {
        fill: #000;
      }

      .cls-2 {
        font-family: RushfordClean, 'Rushford Clean';
        font-size: 18px;
      }
    </style>
  </defs>
  <path class="cls-1" d="M46.25,2.55l-16.25,19.26L10.73,2.55h-1.87l20.87,20.87h0c1.73-.67,4.14.01,6.16,2.03,2.2,2.2,2.38,5.79.76,7.46h0c-1.67,1.64-5.26,1.45-7.46-.75-2.01-2.01-2.69-4.44-2.03-6.16h0S3.72,2.55,3.72,2.55h-1.89l1.76,1.76v46.78h10.37v-21.59c2.46,2.74,3.19,2.89,3.49,2.95.37.07.74.1,1.12.1.28,0,.55-.02.82-.06l18.58,18.59h1.88l-20.04-20.04c-.69.21-1.42.24-2.11.09-1.29-.25-7.24-8.04-7.24-8.04l.6-.6,6.45,6.45.59-.59-6.45-6.45.64-.64,6.45,6.45.59-.6-6.45-6.45.67-.67,6.45,6.45.6-.59-6.45-6.45.46-.46s7.79,5.96,8.04,7.25c.15.76.11,1.59-.18,2.36l22.53,22.52h4.98V2.55h-3.74ZM39.62,43.82l-8.42-8.42.31-.39c.68.2,1.39.31,2.11.31,1.59,0,2.99-.52,3.97-1.48,1.71-1.74,1.89-4.78.68-7.28l1.34-1.67v18.94Z"/>
  <text class="cls-2" transform="translate(54.67 43.99)"><tspan x="0" y="0">MILMASTOON</tspan></text>
</svg>