<?xml version="1.0" standalone="no"?>
<!DOCTYPE svg PUBLIC "-//W3C//DTD SVG 20010904//EN"
 "http://www.w3.org/TR/2001/REC-SVG-20010904/DTD/svg10.dtd">
<svg version="1.0" xmlns="http://www.w3.org/2000/svg"
 width="300.000000pt" height="101.000000pt" viewBox="0 0 300.000000 101.000000"
 preserveAspectRatio="xMidYMid meet">

<g transform="translate(0.000000,101.000000) scale(0.100000,-0.100000)"
fill="#000000" stroke="none">
<path d="M357 980 c-132 -33 -237 -161 -237 -290 0 -57 24 -125 69 -193 55
-85 82 -149 88 -213 3 -30 10 -54 16 -54 17 0 -1 119 -26 174 -13 28 -43 80
-65 115 -51 77 -66 130 -58 193 20 152 130 253 275 252 152 -1 268 -107 279
-254 5 -73 -9 -124 -60 -201 -58 -90 -85 -155 -93 -221 -11 -85 8 -71 27 20
11 57 27 97 57 143 78 122 86 145 86 239 0 72 -4 93 -27 136 -62 118 -206 185
-331 154z"/>
<path d="M1590 445 l0 -155 25 0 25 0 0 155 0 155 -25 0 -25 0 0 -155z"/>
<path d="M2630 445 l0 -155 25 0 c24 0 25 2 25 70 0 76 19 110 60 110 41 0 60
-34 60 -110 0 -68 1 -70 25 -70 24 0 25 3 25 58 0 138 -54 190 -152 147 -16
-6 -18 -1 -18 49 0 53 -1 56 -25 56 l-25 0 0 -155z"/>
<path d="M215 580 c3 -6 48 -10 101 -10 l94 0 0 -31 c0 -17 -4 -28 -10 -24 -5
3 -10 13 -10 21 0 11 -16 14 -75 14 -41 0 -75 -3 -75 -6 0 -3 5 -14 10 -25 9
-16 22 -19 85 -19 l75 0 0 -105 c0 -63 -4 -105 -10 -105 -6 0 -10 40 -10 100
0 60 -4 100 -10 100 -6 0 -10 -43 -10 -110 l0 -110 30 0 30 0 0 150 0 150 94
0 c53 0 98 4 101 10 4 7 -67 10 -205 10 -138 0 -209 -3 -205 -10z m143 -57
c-15 -2 -42 -2 -60 0 -18 2 -6 4 27 4 33 0 48 -2 33 -4z"/>
<path d="M860 560 c0 -16 7 -20 34 -20 66 0 66 0 66 -131 l0 -119 25 0 24 0 3
123 3 122 45 5 c34 4 45 9 46 23 2 15 -10 17 -122 17 -117 0 -124 -1 -124 -20z"/>
<path d="M1970 535 c0 -17 -5 -25 -18 -25 -11 0 -18 -8 -19 -20 -1 -14 4 -20
18 -20 17 0 19 -7 19 -70 0 -62 3 -74 25 -95 25 -25 59 -32 84 -16 19 12 6 42
-14 35 -30 -12 -45 15 -45 82 l0 64 30 0 c23 0 30 4 30 20 0 16 -7 20 -30 20
-25 0 -30 4 -30 25 0 20 -5 25 -25 25 -20 0 -25 -5 -25 -25z"/>
<path d="M450 541 c0 -5 -3 -16 -6 -25 -5 -14 5 -16 68 -16 70 0 76 2 86 25
l12 25 -80 0 c-44 0 -80 -4 -80 -9z m98 -18 c-16 -2 -40 -2 -55 0 -16 2 -3 4
27 4 30 0 43 -2 28 -4z"/>
<path d="M1154 491 c-88 -54 -52 -194 53 -208 55 -7 108 19 93 47 -9 17 -12
17 -39 4 -36 -18 -76 -10 -96 19 -8 12 -15 25 -15 29 0 5 41 8 90 8 55 0 90 4
90 10 0 29 -32 80 -59 94 -40 21 -79 20 -117 -3z m107 -40 c13 -11 21 -22 18
-26 -4 -3 -35 -5 -70 -3 l-64 3 23 23 c27 27 62 28 93 3z"/>
<path d="M1401 497 c-70 -36 -41 -117 43 -117 12 0 31 -6 41 -14 17 -12 17
-16 5 -31 -11 -13 -23 -16 -50 -11 -75 12 -75 12 -75 -9 0 -15 10 -22 43 -29
82 -17 155 30 133 86 -9 25 -32 36 -103 52 -62 14 -17 54 46 42 23 -5 37 -2
46 9 10 12 8 16 -15 25 -35 13 -85 12 -114 -3z"/>
<path d="M1740 499 c-31 -13 -32 -13 -25 -31 5 -13 13 -14 46 -6 31 8 44 7 64
-6 37 -24 31 -36 -21 -36 -71 0 -104 -23 -104 -72 0 -40 45 -71 90 -63 19 3
52 5 74 5 l38 -1 -3 85 c-3 71 -8 89 -25 107 -25 25 -96 34 -134 18z m110
-127 c0 -51 -91 -72 -98 -23 -5 29 12 41 61 41 29 0 37 -4 37 -18z"/>
<path d="M2184 501 c-67 -29 -87 -130 -35 -181 33 -34 68 -45 115 -36 43 8 63
30 46 51 -10 12 -15 12 -36 -1 -37 -25 -104 2 -104 42 0 11 18 14 85 14 84 0
85 0 85 25 0 40 -48 86 -95 90 -22 3 -50 1 -61 -4z m88 -48 c29 -26 21 -33
-42 -33 -62 0 -75 11 -42 36 24 18 62 17 84 -3z"/>
<path d="M2433 494 c-56 -28 -75 -102 -42 -165 14 -27 78 -52 117 -46 33 6 72
31 72 47 0 17 -32 18 -59 3 -24 -14 -34 -15 -55 -5 -57 26 -58 101 -3 132 25
14 30 13 57 -2 28 -16 60 -15 60 2 0 4 -9 15 -19 24 -28 25 -89 30 -128 10z"/>
<path d="M450 370 l0 -120 -40 0 c-22 0 -40 -4 -40 -10 0 -5 23 -10 50 -10
l50 0 0 130 c0 80 -4 130 -10 130 -6 0 -10 -47 -10 -120z"/>
<path d="M2070 236 c0 -9 7 -16 16 -16 17 0 14 22 -4 28 -7 2 -12 -3 -12 -12z"/>
<path d="M2290 165 c0 -50 4 -85 10 -85 6 0 10 17 10 39 0 78 62 81 68 2 4
-58 22 -51 22 9 0 55 -21 77 -66 66 -21 -6 -24 -3 -24 24 0 16 -4 30 -10 30
-6 0 -10 -35 -10 -85z"/>
<path d="M2530 236 c0 -9 7 -16 16 -16 9 0 14 5 12 12 -6 18 -28 21 -28 4z"/>
<path d="M1940 161 l0 -81 50 0 c28 0 50 5 50 10 0 6 -16 10 -35 10 l-34 0 -3
67 c-2 42 -8 68 -15 71 -10 3 -13 -17 -13 -77z"/>
<path d="M2436 208 c-13 -14 -15 -23 -8 -26 7 -2 12 -20 12 -41 0 -20 5 -42
12 -49 15 -15 48 -16 48 -2 0 6 -7 10 -15 10 -11 0 -15 11 -15 40 0 29 4 40
15 40 8 0 15 5 15 10 0 6 -5 10 -11 10 -7 0 -17 7 -23 15 -10 14 -14 13 -30
-7z"/>
<path d="M303 203 c-7 -2 -13 -12 -13 -20 0 -13 8 -15 46 -9 26 3 84 6 130 6
68 0 84 3 84 15 0 13 -19 15 -117 14 -65 0 -124 -3 -130 -6z"/>
<path d="M2070 140 c0 -44 4 -60 14 -60 9 0 13 16 13 60 0 43 -4 60 -14 60 -9
0 -13 -17 -13 -60z"/>
<path d="M2147 189 c-21 -12 -23 -72 -2 -89 8 -7 28 -10 45 -8 20 3 30 0 30
-8 0 -16 -34 -27 -59 -19 -11 3 -22 2 -25 -3 -3 -6 4 -12 17 -16 67 -18 97 10
97 92 l0 57 -43 2 c-23 1 -50 -3 -60 -8z m61 -18 c8 -4 12 -19 10 -32 -4 -29
-45 -34 -61 -7 -19 30 19 60 51 39z"/>
<path d="M2530 141 c0 -47 3 -61 15 -61 12 0 14 12 12 57 -3 81 -27 85 -27 4z"/>
<path d="M2596 191 c-2 -3 -3 -30 -4 -58 0 -39 4 -53 14 -53 10 0 14 12 14 39
0 41 20 67 45 57 10 -4 15 -19 15 -51 0 -33 4 -45 15 -45 17 0 21 75 5 100 -9
15 -97 24 -104 11z"/>
<path d="M2755 186 c-21 -15 -23 -60 -4 -82 8 -10 24 -14 46 -12 22 3 33 0 33
-8 0 -16 -34 -27 -59 -19 -11 3 -22 2 -25 -3 -3 -6 4 -12 17 -16 67 -18 97 10
97 92 l0 57 -44 2 c-24 1 -52 -4 -61 -11z m63 -15 c8 -4 12 -19 10 -32 -4 -29
-45 -34 -61 -7 -19 30 19 60 51 39z"/>
<path d="M348 153 c-42 -3 -58 -8 -58 -18 0 -17 28 -18 168 -9 67 5 92 11 92
20 0 14 -55 16 -202 7z"/>
<path d="M398 103 c-87 -3 -108 -7 -108 -18 0 -12 19 -15 99 -15 54 0 113 3
130 6 36 7 43 35 9 32 -13 -1 -71 -4 -130 -5z"/>
<path d="M360 40 c0 -18 7 -20 60 -20 53 0 60 2 60 20 0 18 -7 20 -60 20 -53
0 -60 -2 -60 -20z"/>
</g>
</svg>
