<?xml version="1.0" encoding="UTF-8"?>
<svg id="Layer_1" data-name="Layer 1" xmlns="http://www.w3.org/2000/svg" viewBox="0 0 227.5 73.91">
  <defs>
    <style>
      .cls-1 {
        stroke-width: 0px;
      }

      .cls-1, .cls-2 {
        fill: #000;
      }

      .cls-2 {
        font-family: RushfordClean, 'Rushford Clean';
        font-size: 34.36px;
      }
    </style>
  </defs>
  <path class="cls-1" d="M64.96,2.75l-23.06,27.34L14.54,2.75h-2.66l29.63,29.62h.01c2.45-.95,5.88.02,8.75,2.88,3.12,3.12,3.38,8.22,1.07,10.59h-.01c-2.37,2.32-7.47,2.06-10.59-1.06-2.86-2.86-3.82-6.3-2.88-8.74h0S4.59,2.75,4.59,2.75H1.91l2.5,2.5v66.4h14.72v-30.64c3.49,3.9,4.53,4.1,4.96,4.19.52.1,1.05.15,1.58.15.39,0,.78-.02,1.17-.08l26.38,26.38h2.67l-28.44-28.44c-.98.29-2.02.33-2.99.13-1.83-.36-10.28-11.41-10.28-11.41l.85-.85,9.15,9.15.84-.84-9.15-9.15.91-.91,9.16,9.15.83-.84-9.15-9.15.95-.95,9.15,9.15.84-.84-9.15-9.15.65-.65s11.05,8.45,11.41,10.29c.22,1.08.15,2.26-.25,3.35l31.97,31.96h7.07V2.75h-5.3ZM55.54,61.32l-11.95-11.95.44-.55c.97.28,1.98.44,3,.44,2.26,0,4.24-.74,5.64-2.11,2.43-2.48,2.68-6.78.96-10.33l1.9-2.38v26.88Z"/>
  <text class="cls-2" transform="translate(75.31 63.98)"><tspan x="0" y="0">MILMASTOON</tspan></text>
</svg>