<?xml version="1.0" encoding="UTF-8"?>
<svg id="Layer_1" data-name="Layer 1" xmlns="http://www.w3.org/2000/svg" viewBox="0 0 518.27 120.39">
  <defs>
    <style>
      .cls-1 {
        stroke-width: 0px;
      }

      .cls-2 {
        font-family: Montserrat-Medium, Montserrat;
        font-size: 31.2px;
        font-weight: 500;
      }
    </style>
  </defs>
  <g>
    <g>
      <polygon class="cls-1" points="131.88 2.56 131.3 3.58 131.29 3.59 128.81 7.97 128.37 8.76 127.44 10.4 127.09 11.02 83.11 11.02 83.11 67.62 63.21 67.62 61.32 64.37 61.32 39.9 69.78 39.9 69.78 59.17 74.65 59.17 74.65 11.02 30.43 11.02 29.22 8.89 29.02 8.53 28.78 8.12 25.64 2.56 131.88 2.56"/>
      <polygon class="cls-1" points="74.28 31.04 74.28 39.5 46.89 39.5 33.33 16.14 33.09 15.72 69.78 15.72 69.77 30.69 61.32 30.68 61.32 24.18 47.38 24.18 51.2 31.04 74.28 31.04"/>
      <polygon class="cls-1" points="96.31 39.87 95.26 65.67 86.49 80.79 70.86 80.79 65.95 72.34 87.85 72.34 87.85 39.87 96.31 39.87"/>
      <polygon class="cls-1" points="124.26 15.72 124.17 15.87 110.46 39.5 83.46 39.5 83.46 31.04 106.47 31.04 110.29 24.18 96.32 24.18 96.32 30.69 87.87 30.68 87.88 15.72 124.26 15.72"/>
    </g>
    <g>
      <polygon class="cls-1" points="77.71 117.83 25.28 26.36 23.51 23.27 22.59 21.67 21.46 19.7 20.76 18.47 20.36 17.78 11.64 2.56 22.82 2.56 27.03 9.87 28.3 12.07 29.98 14.99 31.67 17.92 76.46 95.69 76.5 96.32 76.5 96.33 77.71 117.83"/>
      <polygon class="cls-1" points="146.11 3.08 137.51 17.95 137.08 18.71 136.35 19.96 135.22 21.91 134.28 23.55 132.57 26.51 79.78 117.83 81.05 96.32 81.05 96.32 81.08 95.83 126.08 17.91 129.7 11.65 130.21 10.77 130.73 9.87 134.65 3.08 146.11 3.08"/>
    </g>
  </g>
  <text class="cls-2" transform="translate(138.67 69.36)"><tspan x="0" y="0">TESLATECH VENTURES</tspan></text>
</svg>