<?xml version="1.0" encoding="UTF-8"?>
<svg id="Layer_1" data-name="Layer 1" xmlns="http://www.w3.org/2000/svg" viewBox="0 0 190.71 59.61">
  <defs>
    <style>
      .cls-1 {
        stroke-width: 0px;
      }

      .cls-1, .cls-2 {
        fill: #000;
      }

      .cls-2 {
        font-family: RushfordClean, 'Rushford Clean';
        font-size: 20.36px;
      }
    </style>
  </defs>
  <path class="cls-1" d="M55.2.89l-19.03,22.56L13.6.89h-2.19l24.44,24.44h0c2.02-.78,4.85.02,7.22,2.37,2.57,2.58,2.79,6.79.89,8.74h0c-1.95,1.92-6.17,1.7-8.74-.88-2.36-2.36-3.15-5.2-2.37-7.21h0S5.39.89,5.39.89h-2.21l2.07,2.06v54.78h12.15v-25.28c2.88,3.21,3.74,3.38,4.09,3.46.43.08.87.12,1.31.12.33,0,.64-.02.97-.07l21.76,21.77h2.2l-23.47-23.47c-.81.24-1.67.28-2.47.11-1.51-.3-8.48-9.41-8.48-9.41l.7-.7,7.55,7.55.69-.69-7.55-7.55.75-.75,7.56,7.55.69-.7-7.55-7.55.78-.78,7.55,7.55.7-.69-7.55-7.55.54-.54s9.12,6.97,9.41,8.49c.18.89.13,1.87-.21,2.77l26.38,26.37h5.84V.89h-4.38ZM47.43,49.23l-9.86-9.86.37-.45c.8.23,1.63.36,2.47.36,1.86,0,3.5-.61,4.65-1.74,2.01-2.04,2.21-5.59.79-8.53l1.57-1.96v22.18Z"/>
  <text class="cls-2" transform="translate(63.74 51.42)"><tspan x="0" y="0">MILMASTOON</tspan></text>
</svg>