<?xml version="1.0" encoding="UTF-8"?>
<svg id="Layer_1" data-name="Layer 1" xmlns="http://www.w3.org/2000/svg" viewBox="0 0 297.46 100.08">
  <defs>
    <style>
      .cls-1 {
        stroke-width: 0px;
      }

      .cls-1, .cls-2 {
        fill: #000;
      }

      .cls-3 {
        letter-spacing: 0em;
      }

      .cls-4 {
        letter-spacing: 0em;
      }

      .cls-5 {
        letter-spacing: -.02em;
      }

      .cls-6 {
        font-size: 41.15px;
      }

      .cls-7 {
        letter-spacing: -.05em;
      }

      .cls-8 {
        font-size: 21.82px;
      }

      .cls-9 {
        letter-spacing: 0em;
      }

      .cls-2 {
        font-family: Montserrat-SemiBold, Montserrat;
        font-weight: 600;
      }
    </style>
  </defs>
  <text class="cls-2" transform="translate(85.09 71.2)"><tspan class="cls-6"><tspan class="cls-7" x="0" y="0">T</tspan><tspan x="22.51" y="0">esla</tspan><tspan class="cls-5" x="106.16" y="0">t</tspan><tspan x="122.87" y="0">e</tspan><tspan class="cls-9" x="148.46" y="0">c</tspan><tspan x="172.16" y="0">h</tspan></tspan><tspan class="cls-8"><tspan x="105.14" y="20.82">Lighti</tspan><tspan class="cls-4" x="170.16" y="20.82">n</tspan><tspan class="cls-3" x="185.21" y="20.82">g</tspan></tspan></text>
  <g>
    <g>
      <polygon class="cls-1" points="28.94 79.82 28.94 82.87 54.92 82.14 54.92 79.17 28.94 79.82"/>
      <polygon class="cls-1" points="28.94 85.01 28.94 88.06 54.92 87.33 54.92 84.36 28.94 85.01"/>
      <polygon class="cls-1" points="28.77 90.21 28.77 93.25 54.75 92.53 54.75 89.55 28.77 90.21"/>
      <rect class="cls-1" x="35.72" y="94.54" width="12.23" height="3.27"/>
    </g>
    <g>
      <polygon class="cls-1" points="62.96 41.57 61.86 43.48 42.78 43.48 42.78 73.29 37.1 73.29 37.1 51.39 39.02 51.39 39.02 71.38 40.87 71.38 40.87 43.48 21.81 43.48 20.73 41.57 62.96 41.57"/>
      <polygon class="cls-1" points="40.33 50.85 26.01 50.85 22.96 45.44 39.02 45.44 39.02 48.43 37.11 48.43 37.11 47.35 26.23 47.35 27.13 48.94 40.33 48.94 40.33 50.85"/>
      <polygon class="cls-1" points="43.31 48.94 56.53 48.94 57.43 47.35 46.55 47.35 46.55 48.43 44.65 48.43 44.65 45.44 60.7 45.44 57.65 50.85 43.31 50.85 43.31 48.94"/>
      <polygon class="cls-1" points="36.96 75.24 44.69 75.24 44.69 51.39 46.6 51.39 46.6 77.15 36.96 77.15 36.96 75.24"/>
    </g>
    <g>
      <path class="cls-1" d="M71.5,35.04c-.37,3.21-1.21,6.38-2.58,9.31-1.05,2.31-2.4,4.48-4,6.46-.5.69-1.05,1.39-1.56,2.09-.35.5-.71,1-1.05,1.52-.32.53-.68,1.03-.98,1.57-1.26,2.12-2.33,4.35-3.17,6.67l-.32.87-.28.88c-.17.59-.38,1.17-.53,1.77-.29,1.2-.6,2.39-.77,3.61l-.15.91c-.06.3-.1.6-.12.91l-.17,1.84c-.08.61-.07,1.23-.08,1.84l-.03,1.89h-1.91l.03-1.94c.01-.65,0-1.29.08-1.94l.18-1.93c.02-.32.07-.64.13-.96l.16-.95c.18-1.28.51-2.53.81-3.79.15-.63.38-1.23.56-1.85l.29-.92.34-.91c.68-1.88,1.51-3.69,2.46-5.45.28-.52.56-1.02.86-1.52.32-.56.68-1.1,1.02-1.65.36-.54.73-1.06,1.1-1.59.57-.77,1.14-1.51,1.73-2.3,0-.02.02-.03.03-.05.22-.27.42-.53.62-.81,1.17-1.58,2.17-3.28,2.99-5.06,1.28-2.75,2.07-5.71,2.42-8.71.33-3.01.1-6.06-.57-9.01l-.3-1.09-.15-.55-.18-.54-.36-1.08-.42-1.05-.22-.53-.24-.52-.49-1.03-.54-1-.27-.5-.3-.48-.6-.97-.66-.93-.33-.46-.36-.44-.71-.89-.76-.84-.38-.42-.4-.39-.81-.8-.86-.74-.43-.37-.45-.34-.9-.69-.94-.63-.47-.31-.49-.29-.98-.57-1.02-.5c-.67-.36-1.38-.6-2.08-.9-2.83-1.07-5.84-1.65-8.86-1.79-3.03-.11-6.07.26-8.99,1.05-2.91.83-5.69,2.13-8.18,3.83-2.46,1.74-4.65,3.9-6.44,6.34-1.76,2.46-3.18,5.18-4.12,8.06-.91,2.88-1.44,5.91-1.4,8.93.04,3.01.57,6.03,1.62,8.87.97,2.69,2.35,5.22,4.08,7.5.27.36.55.71.84,1.06.45.63.87,1.28,1.33,1.9.37.53.75,1.05,1.1,1.59.34.55.71,1.08,1.02,1.65.28.46.54.93.8,1.4.98,1.79,1.83,3.65,2.53,5.57l.34.91.29.92c.19.62.4,1.22.56,1.85.3,1.26.63,2.5.81,3.79l.16.95c.06.32.1.64.13.96l.18,1.93c.08.64.07,1.29.08,1.94l.03,1.94h-1.91l-.03-1.89c0-.61,0-1.23-.08-1.84l-.17-1.84c-.02-.31-.07-.61-.13-.91l-.15-.91c-.17-1.22-.49-2.41-.77-3.61-.15-.6-.36-1.18-.53-1.77l-.27-.88-.33-.87c-.84-2.32-1.91-4.55-3.17-6.67-.3-.53-.65-1.04-.98-1.57-.34-.52-.69-1.02-1.05-1.52-.43-.59-.84-1.23-1.27-1.82-.28-.39-.56-.77-.88-1.1,0,0-.01-.02-.02-.03-1.83-2.42-3.31-5.11-4.34-7.98-1.12-3.04-1.69-6.27-1.73-9.51-.05-3.24.52-6.46,1.5-9.54,1-3.08,2.51-5.97,4.39-8.6,1.91-2.61,4.24-4.91,6.89-6.78,2.68-1.83,5.64-3.22,8.76-4.1,3.11-.85,6.36-1.25,9.58-1.13,3.23.15,6.44.76,9.47,1.91,3.01,1.17,5.87,2.8,8.32,4.92l.91.8.87.85.44.42.41.45.81.9.76.94.38.47.35.49.7.99.64,1.03.32.52.29.53.58,1.06.52,1.1.26.55.23.56.45,1.13.38,1.15.19.58.16.59.31,1.17c.72,3.15.97,6.43.61,9.65Z"/>
      <path class="cls-1" d="M19,51.06c-.3-.36-.6-.72-.88-1.1.31.33.6.7.88,1.1Z"/>
    </g>
  </g>
</svg>