<?xml version="1.0" standalone="no"?>
<!DOCTYPE svg PUBLIC "-//W3C//DTD SVG 20010904//EN"
 "http://www.w3.org/TR/2001/REC-SVG-20010904/DTD/svg10.dtd">
<svg version="1.0" xmlns="http://www.w3.org/2000/svg"
 width="300.000000pt" height="92.000000pt" viewBox="0 0 300.000000 92.000000"
 preserveAspectRatio="xMidYMid meet">

<g transform="translate(0.000000,92.000000) scale(0.100000,-0.100000)"
fill="#000000" stroke="none">
<path d="M103 872 c15 -17 17 -61 17 -430 l0 -412 90 0 90 0 0 185 c0 102 4
185 8 185 5 0 17 -9 27 -20 10 -11 28 -20 39 -20 14 0 77 -56 186 -165 103
-103 172 -165 185 -165 14 0 -33 53 -159 179 -113 114 -184 177 -193 174 -16
-6 -54 27 -115 100 -55 65 -34 59 35 -10 31 -31 57 -50 57 -42 0 8 -22 37 -50
64 -27 27 -50 54 -50 59 0 6 26 -15 58 -47 32 -31 62 -57 67 -57 5 0 -17 27
-50 60 -32 33 -56 62 -54 65 3 3 31 -21 62 -52 31 -31 60 -54 64 -50 4 4 -20
35 -53 69 -63 66 -53 62 39 -15 43 -37 57 -56 57 -76 0 -21 40 -66 198 -224
l199 -198 44 3 44 3 3 428 2 427 -37 0 c-37 0 -43 -5 -176 -165 -76 -91 -142
-165 -147 -165 -4 0 -82 74 -172 165 -96 96 -173 165 -184 165 -12 0 44 -63
166 -185 162 -163 189 -185 217 -185 64 0 118 -73 101 -137 -24 -89 -178 -37
-178 61 0 27 -26 57 -208 239 -124 124 -215 207 -226 207 -18 0 -18 -1 -3 -18z
m657 -549 l0 -167 -75 74 -76 75 46 5 c66 8 90 36 91 108 1 65 2 72 9 72 3 0
5 -75 5 -167z"/>
<path d="M1020 270 l0 -150 30 0 30 0 1 73 0 72 22 -42 c11 -24 24 -43 27 -43
3 0 12 16 19 35 19 53 29 42 28 -27 l-2 -63 33 -3 32 -3 0 151 0 151 -37 -3
c-33 -3 -38 -7 -52 -45 -8 -24 -18 -43 -22 -43 -4 0 -15 20 -25 45 -15 41 -20
45 -50 45 l-34 0 0 -150z"/>
<path d="M1260 270 l0 -150 30 0 30 0 0 150 0 150 -30 0 -30 0 0 -150z"/>
<path d="M1340 270 l0 -150 70 0 70 0 0 29 c0 27 -3 30 -37 33 l-38 3 -3 118
-3 117 -29 0 -30 0 0 -150z"/>
<path d="M1500 270 l0 -150 30 0 30 0 1 73 0 72 22 -42 c11 -24 24 -43 27 -43
3 0 12 16 19 35 19 53 29 42 28 -27 l-2 -63 33 -3 32 -3 0 151 0 151 -37 -3
c-33 -3 -38 -7 -52 -45 -8 -24 -18 -43 -22 -43 -4 0 -15 20 -25 45 -15 41 -20
45 -50 45 l-34 0 0 -150z"/>
<path d="M1775 408 c-2 -7 -11 -62 -20 -123 -9 -60 -18 -122 -21 -137 -5 -26
-3 -28 30 -28 32 0 36 3 36 25 0 21 5 25 29 25 23 0 30 -5 33 -22 2 -18 11
-24 37 -26 32 -3 34 -2 28 25 -3 15 -13 83 -23 151 l-18 122 -53 0 c-34 0 -55
-5 -58 -12z m65 -172 c-17 -17 -28 5 -23 47 8 69 16 75 24 17 4 -30 4 -59 -1
-64z"/>
<path d="M1969 401 c-35 -28 -30 -75 15 -143 21 -31 35 -62 31 -67 -3 -6 -22
-11 -41 -11 -31 0 -34 -2 -34 -30 0 -30 1 -30 55 -30 104 0 125 64 54 164 -45
63 -43 76 14 76 23 0 27 4 27 30 0 29 -1 30 -49 30 -33 0 -56 -6 -72 -19z"/>
<path d="M2110 391 c0 -23 5 -30 23 -33 21 -3 22 -7 25 -120 l3 -118 29 0 29
0 3 117 c3 117 3 118 28 123 19 4 26 11 25 30 0 24 -2 25 -82 28 l-83 3 0 -30z"/>
<path d="M2343 410 c-35 -14 -54 -63 -55 -140 -1 -84 22 -130 70 -144 74 -21
122 36 122 143 0 120 -53 175 -137 141z m67 -79 c15 -29 12 -104 -4 -127 -12
-15 -18 -17 -33 -8 -22 13 -31 117 -12 140 16 20 36 17 49 -5z"/>
<path d="M2553 408 c-33 -16 -53 -68 -53 -140 0 -84 23 -130 70 -141 79 -19
122 31 122 143 0 78 -20 126 -58 140 -31 12 -53 12 -81 -2z m66 -72 c19 -23
10 -127 -12 -140 -26 -16 -47 16 -47 72 0 70 29 104 59 68z"/>
<path d="M2710 270 l0 -150 35 0 35 0 0 63 1 62 29 -62 c24 -52 33 -63 53 -63
14 0 27 6 30 13 6 17 7 255 0 273 -3 7 -18 14 -34 14 -28 0 -28 -1 -31 -67
l-3 -68 -24 68 c-24 64 -26 67 -58 67 l-33 0 0 -150z"/>
</g>
</svg>
