<?xml version="1.0" encoding="UTF-8"?>
<svg id="Layer_1" data-name="Layer 1" xmlns="http://www.w3.org/2000/svg" viewBox="0 0 326.31 100.08">
  <defs>
    <style>
      .cls-1 {
        stroke-width: 0px;
      }

      .cls-1, .cls-2 {
        fill: #000;
      }

      .cls-2 {
        font-family: RushfordClean, 'Rushford Clean';
        font-size: 46.83px;
      }
    </style>
  </defs>
  <path class="cls-1" d="M95.48,3.1l-31.43,37.25L26.77,3.1h-3.62l40.37,40.36h.02c3.34-1.29,8.02.03,11.92,3.92,4.25,4.25,4.61,11.21,1.46,14.43h-.02v.02c-3.22,3.15-10.18,2.79-14.43-1.46-3.9-3.89-5.2-8.58-3.92-11.91v-.02L13.21,3.1h-3.65l3.41,3.4v90.48h20.06v-41.75c4.76,5.31,6.17,5.59,6.75,5.71.71.14,1.44.2,2.16.2.54,0,1.06-.03,1.6-.11l35.94,35.96h3.64l-38.76-38.76c-1.34.4-2.75.46-4.07.18-2.49-.49-14.01-15.55-14.01-15.55l1.16-1.16,12.47,12.47,1.14-1.14-12.47-12.47,1.25-1.25,12.48,12.47,1.14-1.15-12.47-12.47,1.29-1.29,12.47,12.47,1.15-1.15-12.47-12.47.89-.89s15.06,11.52,15.55,14.03c.3,1.47.21,3.08-.34,4.57l43.57,43.56h9.64V3.1h-7.23ZM82.64,82.93l-16.29-16.29.61-.74c1.32.39,2.69.59,4.09.59,3.07,0,5.78-1,7.69-2.87,3.31-3.37,3.65-9.24,1.31-14.08l2.6-3.24v36.63Z"/>
  <text class="cls-2" transform="translate(109.59 86.55)"><tspan x="0" y="0">MILMASTOON</tspan></text>
</svg>