<?xml version="1.0" encoding="UTF-8"?>
<svg id="Layer_1" data-name="Layer 1" xmlns="http://www.w3.org/2000/svg" xmlns:xlink="http://www.w3.org/1999/xlink" viewBox="0 0 333.01 100.08">
  <defs>
    <style>
      .cls-1 {
        font-family: Montserrat-Medium, Montserrat;
        font-size: 26.52px;
        font-weight: 500;
      }

      .cls-2, .cls-3 {
        stroke-width: 0px;
      }

      .cls-3 {
        fill: none;
      }

      .cls-4 {
        clip-path: url(#clippath);
      }
    </style>
    <clipPath id="clippath">
      <rect class="cls-3" x="353.29" y="1.05" width="363.83" height="97.97"/>
    </clipPath>
  </defs>
  <text class="cls-1" transform="translate(75.41 57.82)"><tspan x="0" y="0">Teslatech Lighting</tspan></text>
  <g>
    <g>
      <polygon class="cls-2" points="23.61 80.58 23.61 83.7 50.25 82.96 50.25 79.91 23.61 80.58"/>
      <polygon class="cls-2" points="23.61 85.9 23.61 89.03 50.25 88.28 50.25 85.23 23.61 85.9"/>
      <polygon class="cls-2" points="23.44 91.23 23.44 94.35 50.07 93.61 50.07 90.56 23.44 91.23"/>
      <rect class="cls-2" x="30.56" y="95.68" width="12.55" height="3.35"/>
    </g>
    <g>
      <polygon class="cls-2" points="58.5 41.35 57.37 43.31 37.8 43.31 37.8 73.89 31.98 73.89 31.98 51.43 33.94 51.43 33.94 71.93 35.85 71.93 35.85 43.31 16.29 43.31 15.19 41.35 58.5 41.35"/>
      <polygon class="cls-2" points="35.29 50.87 20.61 50.87 17.48 45.32 33.94 45.32 33.94 48.39 31.98 48.39 31.98 47.28 20.83 47.28 21.75 48.91 35.29 48.91 35.29 50.87"/>
      <polygon class="cls-2" points="38.34 48.91 51.9 48.91 52.82 47.28 41.67 47.28 41.67 48.39 39.71 48.39 39.71 45.32 56.18 45.32 53.05 50.87 38.34 50.87 38.34 48.91"/>
      <polygon class="cls-2" points="31.84 75.89 39.76 75.89 39.76 51.43 41.72 51.43 41.72 77.84 31.84 77.84 31.84 75.89"/>
    </g>
    <g>
      <path class="cls-2" d="m67.26,34.66c-.38,3.29-1.25,6.54-2.65,9.54-1.08,2.37-2.47,4.6-4.11,6.62-.51.71-1.07,1.43-1.6,2.14-.36.51-.73,1.03-1.07,1.56-.33.54-.69,1.06-1,1.61-1.29,2.17-2.39,4.46-3.25,6.84l-.33.89-.28.9c-.18.61-.39,1.2-.54,1.81-.29,1.23-.62,2.45-.79,3.7l-.16.93c-.06.31-.11.62-.12.94l-.18,1.88c-.08.62-.07,1.26-.08,1.89l-.03,1.94h-1.96l.03-1.99c.01-.66,0-1.33.09-1.99l.18-1.98c.02-.33.08-.66.13-.99l.16-.98c.18-1.32.52-2.6.83-3.88.16-.64.38-1.26.57-1.9l.3-.95.35-.93c.7-1.92,1.55-3.79,2.52-5.59.28-.53.58-1.05.88-1.56.33-.58.7-1.12,1.05-1.69.37-.55.75-1.09,1.13-1.63.58-.79,1.17-1.55,1.77-2.36,0-.02.02-.03.03-.05.22-.27.43-.55.63-.83,1.2-1.62,2.23-3.36,3.07-5.19,1.32-2.82,2.12-5.86,2.48-8.93.34-3.09.1-6.21-.59-9.24l-.3-1.12-.15-.56-.18-.55-.37-1.11-.43-1.08-.22-.54-.25-.53-.5-1.05-.56-1.02-.28-.51-.31-.49-.62-.99-.67-.95-.34-.48-.37-.45-.73-.91-.78-.87-.39-.43-.41-.4-.83-.82-.88-.76-.44-.38-.46-.35-.93-.71-.97-.64-.48-.32-.5-.29-1-.58-1.04-.51c-.68-.37-1.42-.62-2.13-.92-2.9-1.1-5.98-1.69-9.09-1.84-3.11-.12-6.23.26-9.22,1.08-2.99.85-5.84,2.18-8.39,3.93-2.52,1.79-4.76,3.99-6.6,6.5-1.81,2.52-3.26,5.31-4.22,8.27-.94,2.96-1.48,6.06-1.44,9.16.04,3.09.58,6.19,1.66,9.1.99,2.76,2.41,5.36,4.19,7.69.27.37.56.73.86,1.09.47.65.89,1.32,1.37,1.95.38.54.76,1.08,1.12,1.63.35.56.73,1.11,1.05,1.69.28.47.55.95.82,1.44,1,1.84,1.88,3.74,2.59,5.71l.35.93.29.95c.19.63.41,1.25.57,1.9.31,1.29.65,2.57.83,3.88l.17.98c.06.33.11.65.13.99l.19,1.98c.08.66.07,1.32.09,1.99l.03,1.99h-1.96l-.03-1.94c0-.63,0-1.26-.08-1.89l-.17-1.88c-.02-.32-.07-.63-.13-.94l-.15-.93c-.17-1.25-.5-2.48-.79-3.7-.15-.62-.37-1.21-.55-1.81l-.28-.9-.34-.89c-.86-2.37-1.96-4.66-3.25-6.84-.31-.55-.67-1.07-1-1.61-.35-.53-.71-1.04-1.08-1.56-.44-.6-.86-1.26-1.3-1.87-.28-.4-.58-.79-.9-1.12,0,0-.01-.02-.02-.03-1.88-2.49-3.39-5.24-4.45-8.19-1.15-3.12-1.74-6.43-1.77-9.75-.05-3.32.53-6.63,1.53-9.78,1.02-3.15,2.57-6.12,4.5-8.82,1.96-2.67,4.35-5.03,7.06-6.96,2.74-1.88,5.79-3.3,8.98-4.21,3.19-.87,6.52-1.28,9.83-1.15,3.31.15,6.61.78,9.71,1.96,3.09,1.2,6.02,2.87,8.53,5.05l.94.82.89.87.45.43.42.46.83.92.78.97.39.49.36.5.72,1.01.66,1.05.33.53.3.54.6,1.09.53,1.12.26.56.23.57.46,1.15.39,1.18.2.59.16.6.32,1.2c.74,3.23,1,6.59.63,9.89Z"/>
      <path class="cls-2" d="m13.41,51.09c-.31-.37-.61-.74-.9-1.12.32.34.62.72.9,1.12Z"/>
    </g>
  </g>
  <g class="cls-4">
    <image width="3564" height="862" transform="translate(331.54 1.05) scale(.11)" xlink:href="C:\Users\shabnum\Desktop\Untitled-1.png"/>
  </g>
</svg>