<?xml version="1.0" encoding="UTF-8"?>
<svg id="Layer_1" data-name="Layer 1" xmlns="http://www.w3.org/2000/svg" viewBox="0 0 229.15 83.87">
  <defs>
    <style>
      .cls-1 {
        stroke-width: 0px;
      }

      .cls-1, .cls-2 {
        fill: #000;
      }

      .cls-3 {
        letter-spacing: 0em;
      }

      .cls-4 {
        letter-spacing: 0em;
      }

      .cls-5 {
        letter-spacing: 0em;
      }

      .cls-6 {
        letter-spacing: -.02em;
      }

      .cls-7 {
        font-size: 17.95px;
      }

      .cls-8 {
        letter-spacing: -.05em;
      }

      .cls-2 {
        font-family: Montserrat-SemiBold, Montserrat;
        font-weight: 600;
      }

      .cls-9 {
        font-size: 33.85px;
      }
    </style>
  </defs>
  <text class="cls-2" transform="translate(62.22 59.71)"><tspan class="cls-9"><tspan class="cls-8" x="0" y="0">T</tspan><tspan x="18.52" y="0">esla</tspan><tspan class="cls-6" x="87.33" y="0">t</tspan><tspan class="cls-5" x="101.07" y="0">e</tspan><tspan class="cls-3" x="122.13" y="0">c</tspan><tspan x="141.62" y="0">h</tspan></tspan><tspan class="cls-7"><tspan x="86.5" y="17.13">Lighti</tspan><tspan class="cls-4" x="139.97" y="17.13">n</tspan><tspan x="152.36" y="17.13">g</tspan></tspan></text>
  <g>
    <g>
      <polygon class="cls-1" points="16.03 66.8 16.03 69.31 37.4 68.71 37.4 66.26 16.03 66.8"/>
      <polygon class="cls-1" points="16.03 71.07 16.03 73.58 37.4 72.98 37.4 70.53 16.03 71.07"/>
      <polygon class="cls-1" points="15.89 75.34 15.89 77.85 37.26 77.25 37.26 74.81 15.89 75.34"/>
      <rect class="cls-1" x="21.61" y="78.91" width="10.06" height="2.69"/>
    </g>
    <g>
      <polygon class="cls-1" points="44.02 35.33 43.11 36.9 27.42 36.9 27.42 61.43 22.75 61.43 22.75 43.41 24.32 43.41 24.32 59.86 25.85 59.86 25.85 36.9 10.16 36.9 9.28 35.33 44.02 35.33"/>
      <polygon class="cls-1" points="25.4 42.97 13.62 42.97 11.11 38.52 24.32 38.52 24.32 40.98 22.75 40.98 22.75 40.09 13.8 40.09 14.54 41.4 25.4 41.4 25.4 42.97"/>
      <polygon class="cls-1" points="27.85 41.4 38.73 41.4 39.47 40.09 30.52 40.09 30.52 40.98 28.95 40.98 28.95 38.52 42.16 38.52 39.65 42.97 27.85 42.97 27.85 41.4"/>
      <polygon class="cls-1" points="22.63 63.04 28.99 63.04 28.99 43.41 30.56 43.41 30.56 64.61 22.63 64.61 22.63 63.04"/>
    </g>
    <g>
      <path class="cls-1" d="M51.05,29.96c-.3,2.64-1,5.25-2.12,7.65-.87,1.9-1.98,3.69-3.29,5.31-.41.57-.86,1.15-1.28,1.72-.29.41-.58.83-.86,1.25-.27.43-.56.85-.81,1.29-1.03,1.74-1.92,3.58-2.61,5.48l-.27.71-.23.72c-.14.49-.32.96-.44,1.45-.24.98-.5,1.96-.64,2.97l-.13.75c-.05.25-.08.5-.1.75l-.14,1.51c-.07.5-.05,1.01-.07,1.52l-.03,1.55h-1.57l.03-1.59c.01-.53,0-1.06.07-1.59l.15-1.58c.02-.27.06-.53.11-.79l.13-.78c.15-1.06.42-2.08.67-3.12.13-.52.31-1.01.46-1.52l.24-.76.28-.75c.56-1.54,1.24-3.04,2.02-4.48.23-.42.46-.84.71-1.25.26-.46.56-.9.84-1.35.29-.44.6-.88.91-1.31.47-.63.94-1.25,1.42-1.89,0-.02.02-.03.03-.04.18-.22.35-.44.51-.66.96-1.3,1.79-2.7,2.46-4.16,1.06-2.26,1.7-4.7,1.99-7.17.27-2.48.08-4.98-.47-7.41l-.24-.9-.12-.45-.15-.44-.3-.89-.35-.87-.18-.43-.2-.42-.4-.84-.45-.82-.22-.41-.25-.39-.5-.79-.54-.76-.27-.38-.29-.36-.59-.73-.63-.69-.31-.35-.33-.32-.67-.66-.71-.61-.35-.3-.37-.28-.74-.57-.78-.52-.39-.26-.4-.24-.81-.47-.84-.41c-.55-.29-1.14-.5-1.71-.74-2.33-.88-4.8-1.35-7.29-1.47-2.49-.09-4.99.21-7.4.87-2.39.68-4.68,1.75-6.73,3.15-2.02,1.43-3.82,3.2-5.29,5.21-1.45,2.02-2.61,4.26-3.39,6.63-.75,2.37-1.19,4.86-1.15,7.35.03,2.48.47,4.96,1.33,7.3.79,2.21,1.94,4.3,3.36,6.17.22.3.45.59.69.87.37.52.72,1.06,1.1,1.57.3.44.61.87.9,1.31.28.45.58.89.84,1.35.23.38.44.76.66,1.15.81,1.47,1.51,3,2.08,4.58l.28.75.24.76c.15.51.33,1.01.46,1.52.25,1.03.52,2.06.67,3.12l.14.78c.05.26.08.52.1.79l.15,1.58c.07.53.06,1.06.07,1.59l.02,1.59h-1.57l-.03-1.55c0-.51,0-1.01-.07-1.52l-.14-1.51c-.02-.25-.06-.51-.1-.75l-.12-.75c-.14-1.01-.4-1.99-.64-2.97-.12-.49-.29-.97-.44-1.45l-.22-.72-.27-.71c-.69-1.91-1.57-3.74-2.61-5.48-.25-.44-.54-.86-.8-1.29-.28-.42-.57-.84-.86-1.25-.35-.48-.69-1.01-1.04-1.5-.23-.32-.46-.63-.72-.9,0,0-.01-.02-.02-.02-1.51-1.99-2.72-4.21-3.57-6.57-.92-2.5-1.39-5.16-1.42-7.82-.04-2.66.42-5.32,1.23-7.85.82-2.53,2.06-4.91,3.61-7.07,1.57-2.14,3.49-4.04,5.66-5.58,2.2-1.51,4.64-2.65,7.2-3.37,2.56-.7,5.23-1.03,7.88-.93,2.65.12,5.3.63,7.79,1.57,2.48.96,4.83,2.31,6.84,4.05l.75.66.71.7.36.35.34.37.67.74.62.78.31.39.29.4.57.81.53.84.26.42.24.44.48.88.43.9.21.45.19.46.37.93.32.94.16.47.13.48.26.96c.59,2.59.8,5.29.51,7.94Z"/>
      <path class="cls-1" d="M7.85,43.14c-.25-.29-.49-.59-.72-.9.26.27.49.58.72.9Z"/>
    </g>
  </g>
</svg>