<?xml version="1.0" standalone="no"?>
<!DOCTYPE svg PUBLIC "-//W3C//DTD SVG 20010904//EN"
 "http://www.w3.org/TR/2001/REC-SVG-20010904/DTD/svg10.dtd">
<svg version="1.0" xmlns="http://www.w3.org/2000/svg"
 width="300.000000pt" height="127.000000pt" viewBox="0 0 300.000000 127.000000"
 preserveAspectRatio="xMidYMid meet">

<g transform="translate(0.000000,127.000000) scale(0.100000,-0.100000)"
fill="#000000" stroke="none">
<path d="M681 1208 c-1 -37 12 -51 22 -25 4 10 6 10 6 0 1 -7 6 -13 11 -13 6
0 10 17 10 38 0 24 -3 32 -9 23 -7 -11 -9 -11 -14 0 -4 9 -6 7 -7 -6 l-1 -20
-9 20 c-7 16 -9 13 -9 -17z"/>
<path d="M740 1206 c0 -26 4 -36 16 -36 11 0 14 8 12 32 -4 46 -28 49 -28 4z"/>
<path d="M787 1234 c-4 -4 -7 -23 -7 -43 0 -27 3 -32 10 -21 5 8 10 10 10 4 0
-16 63 -24 72 -10 13 20 9 56 -7 56 -8 0 -15 -9 -15 -19 0 -11 -5 -23 -12 -27
-8 -5 -9 2 -5 24 4 19 2 32 -3 32 -6 0 -11 -15 -11 -32 l-2 -33 -4 30 c-5 33
-16 49 -26 39z"/>
<path d="M590 1196 c0 -26 4 -36 16 -36 11 0 14 8 12 32 -4 46 -28 49 -28 4z"/>
<path d="M628 1194 c3 -22 7 -31 12 -24 6 9 9 9 13 -1 4 -8 5 2 4 21 -1 22 -8
36 -18 38 -12 2 -14 -5 -11 -34z"/>
<path d="M559 1215 c-8 -8 1 -54 12 -61 5 -3 9 3 8 13 -1 25 -13 55 -20 48z"/>
<path d="M504 1196 c-12 -9 -24 -12 -28 -9 -8 8 -8 -11 0 -31 3 -9 10 -13 15
-10 5 3 6 -2 3 -11 -5 -11 -2 -14 10 -9 11 4 15 13 11 23 -4 9 -9 22 -12 29
-3 6 -1 12 5 12 5 0 13 -12 16 -26 4 -15 9 -24 12 -21 3 3 1 19 -3 36 -8 30
-9 31 -29 17z"/>
<path d="M900 1184 c-16 -40 -12 -50 10 -26 21 23 27 52 10 52 -6 0 -15 -12
-20 -26z"/>
<path d="M933 1165 c-11 -35 -8 -38 23 -34 4 0 10 -4 14 -10 3 -7 11 4 17 24
13 42 -2 58 -19 21 -12 -27 -35 -37 -24 -11 3 8 9 22 12 30 3 8 2 15 -3 15 -5
0 -14 -16 -20 -35z"/>
<path d="M435 1170 c-3 -5 -1 -18 5 -29 5 -11 10 -23 10 -28 -1 -4 -8 5 -16
20 -19 35 -29 30 -13 -7 10 -20 17 -25 33 -20 28 9 29 11 22 29 -3 9 -10 13
-16 10 -5 -3 -7 0 -4 8 6 17 -12 32 -21 17z"/>
<path d="M1000 1151 c-5 -11 -10 -27 -10 -35 0 -18 16 -21 25 -6 3 6 2 10 -4
10 -6 0 -8 7 -5 15 4 8 10 12 15 9 5 -3 9 2 9 10 0 22 -17 20 -30 -3z"/>
<path d="M387 1143 c-3 -5 3 -22 14 -39 15 -22 19 -24 16 -9 -4 29 -23 59 -30
48z"/>
<path d="M1034 1124 c-12 -17 -14 -28 -7 -35 7 -7 13 -2 17 15 3 14 11 26 16
26 6 0 10 5 10 10 0 19 -19 10 -36 -16z"/>
<path d="M650 1106 c-84 -18 -149 -54 -213 -118 -77 -76 -108 -146 -114 -259
-11 -171 61 -307 208 -392 128 -74 306 -64 436 25 55 37 106 100 140 174 25
53 28 70 28 164 0 97 -2 110 -31 170 -39 82 -83 133 -157 181 -84 55 -201 76
-297 55z m91 -28 c0 -13 0 -48 -1 -78 l-1 -55 40 -12 c22 -7 50 -13 62 -13 12
0 42 -12 66 -26 41 -24 46 -25 68 -10 30 20 35 20 35 1 0 -8 -9 -19 -20 -25
-18 -10 -20 -21 -20 -115 l0 -105 35 0 c19 0 35 4 35 8 0 5 -13 48 -30 97 -16
49 -28 90 -26 92 2 2 20 -41 41 -96 20 -55 41 -101 47 -103 18 -6 -11 -58 -44
-78 -80 -51 -200 20 -155 92 8 12 25 51 37 86 13 34 24 61 26 59 3 -3 -26
-101 -41 -139 -6 -15 -1 -18 29 -18 l36 0 0 100 0 100 -52 26 c-45 23 -56 25
-83 15 -39 -14 -182 -15 -190 -1 -10 16 -41 12 -90 -12 -50 -24 -97 -18 -103
15 -4 21 16 22 39 1 16 -14 21 -14 62 10 24 14 54 26 66 26 12 0 39 6 61 12
l40 13 0 71 c0 39 3 74 7 77 13 13 23 7 24 -15z m-216 -438 c19 0 35 1 35 3 0
2 -11 37 -25 77 -34 100 -31 112 6 20 16 -41 35 -85 41 -97 26 -52 -41 -111
-111 -98 -20 3 -46 13 -57 20 -22 14 -50 75 -34 75 5 0 23 38 41 85 18 47 34
83 36 81 2 -1 -8 -36 -22 -77 -14 -41 -25 -77 -25 -81 0 -5 16 -8 35 -8 l35 0
2 103 2 102 3 -102 4 -103 34 0z m247 -9 l-4 -68 28 -6 c16 -3 43 -3 59 -1 21
4 26 3 15 -4 -20 -13 -119 -21 -126 -11 -3 5 3 6 13 3 15 -5 16 -4 3 5 -18 13
-62 14 -76 2 -5 -5 -32 -11 -61 -13 -38 -4 -50 -2 -46 8 2 6 15 14 28 17 14 2
22 0 19 -4 -6 -11 14 -11 40 0 22 8 32 81 16 112 -8 15 -7 25 5 42 8 12 20 40
26 61 l11 40 27 -58 c25 -50 28 -66 23 -125z"/>
<path d="M1893 1081 c-69 -32 -75 -54 -71 -257 l3 -174 31 -31 c35 -35 98 -53
152 -43 92 17 132 64 132 157 l0 58 -67 -3 -68 -3 -3 -62 c-2 -53 -6 -63 -21
-63 -26 0 -31 26 -31 175 0 149 5 175 31 175 17 0 19 -8 19 -70 l0 -70 71 0
72 0 -5 73 c-6 85 -19 111 -74 137 -51 25 -117 25 -171 1z"/>
<path d="M340 1074 c0 -11 -4 -24 -10 -30 -6 -6 5 -8 31 -6 24 3 36 7 29 12
-9 5 -9 9 -1 14 19 12 13 28 -7 17 -13 -7 -23 -6 -30 1 -9 9 -12 7 -12 -8z"/>
<path d="M1063 1062 c0 -25 4 -27 39 -27 25 -1 35 2 28 9 -6 6 -10 18 -10 28
0 10 -4 18 -10 18 -5 0 -10 -5 -10 -10 0 -7 -6 -7 -18 -1 -16 8 -19 6 -19 -17z"/>
<path d="M1540 825 l0 -255 110 0 110 0 0 50 0 50 -40 0 -40 0 0 205 0 205
-70 0 -70 0 0 -255z"/>
<path d="M2200 825 l0 -255 108 0 c117 0 167 10 188 37 9 12 13 47 14 101 0
75 -2 85 -25 107 -13 14 -30 25 -37 25 -7 1 -1 7 14 16 33 17 42 47 36 115 -9
87 -50 109 -205 109 l-93 0 0 -255z m175 144 c12 -36 -3 -89 -25 -89 -17 0
-20 7 -20 55 0 48 3 55 19 55 11 0 23 -9 26 -21z m-1 -185 c3 -9 6 -33 6 -54
0 -51 -8 -70 -31 -70 -17 0 -19 8 -19 70 0 62 2 70 19 70 10 0 22 -7 25 -16z"/>
<path d="M2590 825 l0 -255 70 0 70 0 0 105 0 105 49 0 c38 0 56 6 78 24 27
23 28 28 28 119 0 79 -3 98 -19 116 -27 30 -77 41 -183 41 l-93 0 0 -255z
m178 106 c3 -51 -5 -70 -30 -71 -5 0 -8 30 -8 66 0 57 2 65 18 62 13 -2 18
-15 20 -57z"/>
<path d="M1145 1062 c10 -20 -4 -52 -21 -45 -26 10 -14 -5 22 -26 43 -26 47
-26 34 -2 -15 28 -12 41 6 34 13 -5 15 -14 10 -44 -4 -24 -2 -39 4 -39 5 0 10
-4 10 -10 0 -5 -8 -7 -17 -4 -15 5 -15 3 1 -10 11 -9 23 -16 28 -16 4 0 8 -7
8 -15 0 -20 -19 -19 -42 2 -10 9 -18 11 -18 5 0 -6 9 -16 19 -22 26 -13 51
-39 51 -52 0 -5 -17 0 -37 12 -37 22 -37 21 10 -21 41 -39 47 -49 46 -81 -2
-34 -4 -36 -23 -26 -20 10 -20 10 2 -14 12 -13 22 -33 22 -43 0 -16 -5 -14
-29 13 -17 17 -33 32 -36 32 -10 0 12 -34 39 -59 28 -27 35 -77 16 -127 -23
-58 -46 23 -25 86 8 23 7 24 -9 11 -14 -12 -19 -12 -32 5 -15 18 -15 18 -11
-8 3 -21 0 -28 -17 -31 -17 -3 -15 -5 11 -12 29 -7 33 -13 44 -60 11 -48 10
-56 -9 -87 -26 -42 -98 -110 -89 -85 4 10 7 23 7 28 0 6 12 22 28 36 17 17 23
27 15 30 -10 4 -9 12 2 39 8 19 11 32 6 30 -5 -3 -14 -19 -21 -36 -11 -26 -15
-28 -28 -18 -13 11 -14 9 -9 -14 4 -16 -1 -52 -13 -92 -16 -50 -29 -72 -58
-95 -20 -17 -32 -31 -26 -31 6 0 25 13 43 29 31 27 217 98 229 87 2 -3 -3 -12
-12 -21 -9 -9 -16 -22 -16 -28 1 -17 50 41 50 59 0 27 -31 27 -97 -2 -37 -16
-72 -31 -77 -33 -6 -2 13 22 42 54 29 33 52 65 52 71 0 7 31 41 70 76 70 63
88 89 50 68 -12 -6 -33 -10 -48 -8 -33 4 -32 34 1 60 20 15 22 15 34 0 11 -16
12 -16 13 1 0 11 8 17 23 17 18 0 19 2 7 11 -11 8 -12 12 -2 16 20 8 14 25 -7
18 -14 -4 -21 0 -24 12 -4 17 -5 17 -6 1 0 -10 -8 -18 -16 -18 -8 0 -12 -6 -9
-13 2 -7 -4 -21 -15 -31 -34 -31 -36 2 -2 49 36 50 42 84 7 41 l-23 -30 -5 31
c-7 46 7 73 37 73 19 0 24 4 18 13 -4 6 -6 21 -4 32 2 15 0 17 -11 7 -11 -9
-17 -9 -26 0 -10 10 -11 5 -6 -19 4 -19 2 -33 -6 -38 -20 -12 -21 0 -9 74 9
54 9 75 1 83 -9 9 -12 4 -12 -22 0 -19 -5 -42 -11 -50 -8 -11 -9 6 -5 60 4 62
3 70 -7 48 -6 -16 -14 -28 -19 -28 -13 0 -9 55 4 68 9 9 8 15 -8 26 -10 8 -20
10 -22 5 -6 -14 -23 -11 -39 9 -8 9 -12 11 -8 4z"/>
<path d="M247 1045 c-15 -11 -16 -16 -6 -33 7 -12 9 -30 4 -48 l-7 -29 -13 35
-13 35 -1 -30 c0 -16 4 -39 8 -49 9 -23 2 -66 -10 -66 -4 0 -10 19 -12 43 -2
23 -3 7 -1 -35 4 -76 -6 -105 -25 -71 -6 12 -6 25 0 35 6 11 6 19 -1 23 -5 3
-10 1 -10 -6 0 -8 -4 -8 -15 1 -12 10 -15 10 -15 -3 0 -8 -3 -22 -6 -31 -4
-11 0 -16 14 -16 26 0 36 -15 38 -62 2 -47 -8 -48 -35 -5 -11 17 -21 26 -21
19 0 -18 26 -66 44 -81 9 -8 16 -24 16 -38 0 -21 -2 -22 -21 -12 -14 7 -19 17
-16 30 3 12 0 19 -9 19 -8 0 -14 7 -14 15 0 8 -5 15 -11 15 -6 0 -8 -7 -5 -16
4 -12 1 -14 -14 -9 -22 7 -28 -10 -7 -18 9 -4 8 -8 -3 -16 -12 -9 -11 -11 7
-11 12 0 24 -8 26 -17 4 -17 5 -17 6 0 1 23 13 21 39 -6 28 -30 30 -62 3 -48
-10 6 -21 8 -24 5 -3 -4 -23 4 -44 17 l-38 22 23 -24 c12 -14 22 -37 22 -51 0
-14 7 -31 15 -38 17 -14 21 0 4 17 -6 6 -10 16 -8 22 2 6 31 -16 64 -49 38
-39 53 -60 43 -60 -9 0 -24 10 -32 22 -9 12 -19 19 -22 15 -4 -4 -1 -13 5 -21
10 -12 8 -16 -8 -21 -12 -3 -21 -11 -21 -16 0 -6 9 -7 20 -4 14 5 20 2 20 -9
0 -9 5 -16 10 -16 6 0 10 9 10 20 0 24 22 26 40 5 11 -13 10 -15 -6 -9 -17 5
-16 3 3 -13 11 -10 38 -31 58 -46 20 -16 35 -30 33 -32 -2 -2 -31 10 -66 26
-34 17 -72 29 -85 27 -29 -4 -32 -36 -7 -67 28 -32 36 -21 9 12 l-20 27 26 0
c41 0 177 -57 214 -90 18 -17 38 -30 44 -30 6 0 -7 15 -28 33 -37 32 -38 34
-17 39 16 5 22 2 22 -10 0 -14 2 -14 9 -3 7 11 14 9 36 -15 l27 -29 -21 29
c-25 34 -26 46 -6 46 8 0 15 5 15 11 0 6 -7 8 -16 5 -12 -4 -14 -1 -9 14 7 23
-13 28 -21 5 -5 -12 -9 -13 -20 -4 -8 7 -18 9 -21 5 -4 -4 -1 -11 7 -16 13 -8
12 -11 -5 -24 -11 -8 -23 -12 -26 -8 -13 15 -30 123 -23 144 6 20 5 21 -9 10
-14 -12 -19 -7 -41 35 -14 26 -25 44 -26 40 0 -4 9 -26 20 -47 19 -37 19 -40
3 -40 -16 -1 -16 -3 3 -18 20 -17 44 -53 44 -67 0 -4 -14 4 -31 16 -39 27 -69
76 -69 110 0 43 20 89 40 89 10 0 23 6 29 14 10 12 8 13 -9 9 -19 -5 -20 -2
-15 23 l6 29 -17 -23 c-16 -21 -17 -21 -30 -5 -16 22 -19 1 -3 -28 7 -14 7
-30 -1 -54 -13 -40 -25 -45 -34 -12 -10 38 -7 56 23 118 31 66 19 76 -16 13
l-23 -39 0 36 c0 29 6 41 26 54 14 9 23 19 20 23 -4 3 -12 0 -18 -6 -17 -17
-33 -15 -19 2 8 10 9 15 1 18 -21 7 10 65 45 84 19 10 37 25 40 32 4 10 -6 8
-30 -7 -48 -28 -48 -1 0 29 19 12 35 29 35 38 0 13 -3 11 -16 -6 -8 -12 -22
-22 -30 -22 -21 0 -17 31 6 37 11 3 20 10 20 15 0 5 -4 6 -10 3 -5 -3 -10 -3
-10 2 1 15 25 40 65 68 22 15 32 25 23 22 -12 -4 -20 2 -27 21 -5 15 -10 21
-10 15 -1 -15 -28 -18 -33 -4 -1 5 -11 4 -21 -4z m32 -47 c-12 -21 -13 -21
-17 -4 -2 10 2 22 9 27 20 12 22 4 8 -23z"/>
<path d="M315 978 c-4 -10 -13 -18 -21 -18 -11 0 -10 -4 4 -18 9 -10 19 -14
20 -10 2 5 7 6 11 4 4 -3 12 4 19 15 10 15 10 19 -2 19 -8 0 -16 6 -19 13 -3
8 -7 6 -12 -5z"/>
<path d="M1130 983 c0 -7 -7 -13 -16 -13 -13 0 -14 -3 -5 -13 6 -8 8 -16 6
-19 -3 -3 2 -7 12 -10 10 -2 26 4 36 14 9 10 12 18 6 18 -7 0 -18 8 -25 18 -8
10 -13 12 -14 5z"/>
<path d="M1168 773 c10 -18 9 -22 -6 -26 -15 -4 -15 -5 0 -6 9 0 18 -8 20 -17
2 -13 7 -12 26 6 22 21 31 47 12 35 -5 -3 -10 -1 -10 5 0 6 -5 8 -10 5 -6 -4
-18 -1 -27 7 -15 12 -15 11 -5 -9z"/>
<path d="M235 770 c-14 -5 -12 -10 11 -34 20 -19 30 -24 33 -14 2 7 9 16 15
20 8 5 7 8 -1 8 -7 0 -10 6 -7 14 6 15 -17 18 -51 6z"/>
<path d="M150 761 c0 -5 5 -13 10 -16 6 -3 10 -2 10 4 0 5 -4 13 -10 16 -5 3
-10 2 -10 -4z"/>
<path d="M1336 504 c-8 -22 1 -31 16 -16 9 9 9 15 1 23 -7 7 -12 5 -17 -7z"/>
<path d="M1878 503 c189 -2 495 -2 680 0 185 1 31 2 -343 2 -374 0 -526 -1
-337 -2z"/>
<path d="M1260 435 c-13 -14 -18 -25 -12 -25 7 0 12 -9 12 -20 0 -11 5 -20 10
-20 6 0 10 7 10 16 0 11 6 14 20 9 23 -7 28 13 5 21 -10 4 -13 13 -10 25 9 26
-7 24 -35 -6z"/>
<path d="M1673 442 c-16 -11 -25 -50 -18 -82 6 -29 9 -30 60 -30 33 0 55 5 58
13 4 10 6 10 6 0 1 -7 8 -13 17 -13 13 0 15 7 10 31 -3 17 -6 42 -6 55 0 19
-5 24 -24 24 -27 0 -35 -15 -37 -68 -2 -31 -3 -32 -6 -9 -3 19 -10 27 -24 27
-16 0 -19 -4 -14 -21 5 -15 4 -19 -4 -15 -14 9 -15 66 -1 66 6 0 10 -4 10 -10
0 -5 7 -10 15 -10 8 0 15 3 15 8 -1 23 -39 45 -57 34z m104 -64 c-3 -8 -6 -5
-6 6 -1 11 2 17 5 13 3 -3 4 -12 1 -19z"/>
<path d="M1916 434 c-18 -18 -21 -56 -6 -85 13 -23 55 -25 64 -3 9 22 8 24 -9
24 -8 0 -15 -5 -15 -11 0 -5 -4 -7 -10 -4 -5 3 -10 19 -10 35 0 16 5 32 10 35
6 3 10 -3 10 -14 0 -12 7 -21 15 -21 22 0 18 37 -4 50 -25 13 -27 13 -45 -6z"/>
<path d="M2006 437 c-13 -10 -17 -24 -14 -57 3 -43 5 -45 33 -45 28 0 30 3 33
43 3 39 -10 72 -27 72 -4 0 -15 -6 -25 -13z m21 -69 c-2 -13 -4 -3 -4 22 0 25
2 35 4 23 2 -13 2 -33 0 -45z"/>
<path d="M2358 443 c-24 -6 -23 -45 2 -61 11 -7 20 -18 19 -25 0 -9 -2 -9 -6
1 -7 19 -35 15 -31 -5 2 -13 13 -18 33 -18 23 0 31 5 33 22 2 14 -4 27 -17 35
-12 7 -21 20 -20 28 0 10 2 11 6 3 6 -15 33 -17 33 -3 0 13 -32 27 -52 23z"/>
<path d="M2563 442 c-16 -10 -26 -57 -19 -87 5 -19 13 -25 35 -25 17 0 31 6
35 16 11 29 6 72 -10 88 -17 18 -24 19 -41 8z m27 -58 c0 -21 -4 -33 -10 -29
-5 3 -10 19 -10 36 0 16 5 29 10 29 6 0 10 -16 10 -36z"/>
<path d="M2756 437 c-13 -10 -17 -24 -14 -57 3 -43 5 -45 33 -45 28 0 30 3 33
43 3 39 -10 72 -27 72 -4 0 -15 -6 -25 -13z m21 -69 c-2 -13 -4 -3 -4 22 0 25
2 35 4 23 2 -13 2 -33 0 -45z"/>
<path d="M1530 385 c0 -52 1 -55 25 -55 14 0 25 5 25 10 0 6 -4 10 -10 10 -5
0 -10 20 -10 45 0 33 -4 45 -15 45 -12 0 -15 -13 -15 -55z"/>
<path d="M1590 385 c0 -52 1 -55 25 -55 14 0 25 5 25 10 0 6 -4 10 -10 10 -14
0 -12 27 3 33 9 4 8 8 -3 17 -11 9 -12 13 -2 17 21 8 13 23 -13 23 -24 0 -25
-3 -25 -55z"/>
<path d="M1820 385 c0 -52 1 -55 25 -55 14 0 25 5 25 10 0 6 -4 10 -10 10 -5
0 -10 20 -10 45 0 33 -4 45 -15 45 -12 0 -15 -13 -15 -55z"/>
<path d="M2070 385 c0 -41 4 -55 14 -55 8 0 17 12 19 28 l4 27 2 -28 c1 -34
22 -32 32 4 7 24 7 24 8 -3 2 -53 21 -28 21 27 0 48 -3 55 -19 55 -11 0 -22
-8 -24 -17 -4 -17 -5 -17 -6 0 -1 11 -9 17 -26 17 -24 0 -25 -3 -25 -55z"/>
<path d="M2190 385 c0 -57 16 -76 23 -27 l4 27 2 -27 c1 -34 14 -36 29 -5 l11
22 0 -22 c1 -13 6 -23 11 -23 6 0 10 25 10 55 0 48 -3 55 -19 55 -11 0 -22 -8
-24 -17 -4 -17 -5 -17 -6 0 -1 10 -9 17 -21 17 -18 0 -20 -7 -20 -55z"/>
<path d="M2300 385 c0 -42 3 -55 15 -55 12 0 15 13 15 55 0 42 -3 55 -15 55
-12 0 -15 -13 -15 -55z"/>
<path d="M2420 418 c0 -13 9 -29 20 -36 11 -7 20 -18 19 -25 0 -9 -2 -9 -6 1
-7 19 -35 15 -31 -5 2 -13 13 -18 33 -18 23 0 31 5 33 22 2 14 -4 27 -17 35
-12 7 -21 20 -20 28 0 10 2 11 6 3 2 -7 11 -13 20 -13 28 0 6 25 -25 28 -28 3
-32 0 -32 -20z"/>
<path d="M2500 385 c0 -42 3 -55 15 -55 12 0 15 13 15 55 0 42 -3 55 -15 55
-12 0 -15 -13 -15 -55z"/>
<path d="M2630 385 c0 -41 4 -55 14 -55 8 0 17 6 19 13 4 10 6 10 6 0 1 -7 8
-13 16 -13 12 0 15 13 15 55 0 41 -4 55 -14 55 -8 0 -17 -6 -19 -12 -4 -10 -6
-10 -6 0 -1 6 -8 12 -16 12 -12 0 -15 -13 -15 -55z"/>
<path d="M2830 385 c0 -30 5 -55 10 -55 6 0 10 10 11 23 l0 22 9 -22 c16 -40
30 -25 30 32 0 30 -4 55 -10 55 -5 0 -10 -10 -11 -22 l0 -23 -9 23 c-16 39
-30 24 -30 -33z"/>
<path d="M973 289 c4 -15 2 -19 -9 -15 -8 3 -14 1 -14 -4 0 -6 6 -10 14 -10 8
0 18 -9 21 -20 7 -21 25 -28 25 -10 0 6 7 10 15 10 8 0 15 5 15 10 0 6 -5 10
-11 10 -6 0 -8 7 -5 16 5 12 2 15 -9 10 -9 -3 -18 1 -21 9 -9 23 -27 18 -21
-6z"/>
<path d="M1557 284 c-4 -4 -7 -31 -7 -61 l0 -53 34 0 c26 0 36 5 41 20 3 11 3
25 -1 32 -5 7 -8 24 -8 38 -1 19 -7 26 -26 28 -14 2 -29 0 -33 -4z m43 -24 c0
-5 -5 -10 -11 -10 -5 0 -7 5 -4 10 3 6 8 10 11 10 2 0 4 -4 4 -10z"/>
<path d="M1640 230 c0 -57 1 -60 25 -60 14 0 25 5 25 10 0 6 -4 10 -10 10 -5
0 -10 23 -10 50 0 38 -4 50 -15 50 -12 0 -15 -13 -15 -60z"/>
<path d="M1706 253 c-9 -60 -7 -83 8 -83 8 0 17 6 19 13 4 10 6 10 6 0 1 -7 8
-13 17 -13 14 0 16 8 10 46 -3 26 -6 53 -6 60 0 8 -10 14 -24 14 -19 0 -24 -6
-30 -37z m31 -35 c-3 -8 -6 -5 -6 6 -1 11 2 17 5 13 3 -3 4 -12 1 -19z"/>
<path d="M1787 283 c-14 -13 -6 -43 13 -55 11 -7 20 -20 19 -28 0 -10 -2 -11
-6 -2 -7 17 -33 15 -33 -3 0 -16 43 -31 59 -20 18 11 12 49 -9 63 -11 7 -20
18 -20 25 0 8 3 8 9 -2 5 -7 14 -10 20 -6 9 5 9 10 0 21 -12 15 -41 19 -52 7z"/>
<path d="M1860 230 c0 -47 3 -60 15 -60 9 0 15 9 15 25 0 15 6 25 14 25 21 0
29 17 22 46 -5 19 -13 24 -36 24 -30 0 -30 0 -30 -60z m37 18 c-3 -8 -6 -5 -6
6 -1 11 2 17 5 13 3 -3 4 -12 1 -19z"/>
<path d="M1940 230 c0 -45 3 -60 14 -60 8 0 17 12 19 28 l4 27 2 -27 c0 -18 7
-28 16 -28 12 0 15 13 15 60 0 45 -3 60 -14 60 -8 0 -17 -10 -19 -22 l-4 -23
-2 23 c0 12 -8 22 -16 22 -12 0 -15 -13 -15 -60z"/>
<path d="M2027 283 c-4 -3 -7 -30 -7 -60 0 -52 0 -53 30 -53 17 0 30 5 30 10
0 6 -4 10 -9 10 -4 0 -8 18 -8 40 0 22 4 40 9 40 5 0 6 5 3 10 -7 11 -38 13
-48 3z"/>
<path d="M2090 230 c0 -45 4 -60 14 -60 8 0 17 6 19 13 4 10 6 10 6 0 2 -22
19 -14 24 10 l4 22 2 -22 c0 -13 8 -23 16 -23 12 0 15 13 16 58 0 41 3 51 9
37 5 -11 9 -37 9 -57 1 -27 5 -38 16 -38 9 0 15 9 15 24 0 12 5 37 11 55 12
35 4 55 -12 31 -8 -11 -12 -12 -16 -2 -2 6 -20 12 -38 12 -27 0 -35 -5 -43
-27 l-10 -28 -1 28 c-1 20 -6 27 -21 27 -18 0 -20 -7 -20 -60z"/>
<path d="M2300 230 c0 -47 3 -60 15 -60 9 0 15 9 15 25 0 15 6 25 14 25 20 0
30 38 16 55 -7 8 -23 15 -36 15 -23 0 -24 -3 -24 -60z m37 18 c-3 -8 -6 -5 -6
6 -1 11 2 17 5 13 3 -3 4 -12 1 -19z"/>
<path d="M2376 253 c-9 -60 -7 -83 8 -83 8 0 17 6 19 13 4 10 6 10 6 0 1 -7 8
-13 16 -13 16 0 19 22 9 83 -5 30 -11 37 -29 37 -18 0 -24 -7 -29 -37z m31
-35 c-3 -8 -6 -5 -6 6 -1 11 2 17 5 13 3 -3 4 -12 1 -19z"/>
<path d="M2450 230 c0 -47 3 -60 15 -60 8 0 15 8 15 18 1 15 1 16 10 0 6 -10
23 -16 45 -16 l35 0 0 60 c0 51 -2 59 -17 56 -14 -3 -18 -13 -18 -50 0 -25 -3
-49 -7 -53 -10 -10 -20 50 -12 79 7 30 -9 36 -25 9 -10 -17 -10 -17 -11 0 0 9
-7 17 -15 17 -12 0 -15 -13 -15 -60z"/>
<path d="M2587 283 c-13 -12 -7 -40 13 -58 11 -10 20 -23 19 -29 0 -6 -3 -6
-6 2 -7 19 -35 15 -31 -5 4 -23 47 -24 62 -1 8 13 6 22 -12 41 -12 13 -22 27
-22 33 0 5 4 2 10 -6 11 -18 25 -7 17 15 -6 15 -38 21 -50 8z"/>
<path d="M2655 280 c-3 -5 -1 -10 4 -10 6 0 11 -21 11 -50 0 -38 4 -50 15 -50
11 0 15 12 15 44 0 25 5 48 10 51 6 3 10 10 10 16 0 12 -57 12 -65 -1z"/>
<path d="M2730 276 c0 -7 -3 -34 -6 -60 -6 -38 -4 -46 10 -46 9 0 16 5 16 12
0 9 3 9 12 0 7 -7 24 -12 39 -12 21 0 29 6 32 23 l4 22 2 -22 c0 -13 8 -23 16
-23 12 0 15 13 15 60 0 33 -4 60 -10 60 -5 0 -10 -10 -11 -22 l0 -23 -11 23
c-21 42 -38 26 -39 -35 l-2 -58 -9 58 c-9 51 -13 57 -34 57 -14 0 -24 -6 -24
-14z m27 -58 c-3 -7 -5 -2 -5 12 0 14 2 19 5 13 2 -7 2 -19 0 -25z"/>
<path d="M270 258 c0 -12 -8 -18 -22 -18 -20 -1 -21 -2 -7 -13 9 -7 14 -18 11
-26 -3 -9 1 -11 17 -6 12 4 21 2 21 -4 0 -6 4 -11 10 -11 5 0 7 7 4 15 -5 11
1 15 21 15 14 0 24 -4 21 -9 -4 -5 7 -4 23 2 l29 11 -25 13 c-30 16 -36 16
-28 3 3 -5 -3 -10 -15 -10 -17 0 -20 4 -15 23 6 18 5 20 -6 10 -10 -10 -15 -9
-25 5 -13 16 -13 16 -14 0z"/>
<path d="M573 256 c4 -10 -2 -16 -16 -19 -21 -3 -21 -4 5 -15 19 -8 26 -16 22
-27 -3 -8 -1 -15 5 -15 6 0 11 -4 11 -10 0 -24 -32 -6 -62 35 -18 24 -37 44
-41 45 -5 0 1 -13 12 -29 12 -16 21 -31 21 -34 0 -6 -49 1 -61 8 -4 3 -24 -1
-45 -9 l-39 -13 64 -8 64 -7 -47 -26 c-50 -28 -57 -43 -7 -18 37 20 41 20 41
0 0 -8 -4 -12 -10 -9 -5 3 -10 2 -10 -4 0 -5 -3 -17 -6 -25 -5 -12 -2 -15 10
-10 9 4 16 1 16 -6 0 -10 3 -10 15 0 8 6 20 8 27 4 9 -5 9 -2 -1 10 -13 15
-13 19 -1 26 8 5 17 7 21 4 4 -2 10 0 14 6 7 12 84 13 102 2 8 -5 -7 -8 -35
-8 -26 0 -56 -6 -67 -12 -17 -11 -7 -12 55 -7 81 6 81 6 15 -40 -16 -11 -17
-14 -4 -14 8 -1 30 10 48 23 35 26 53 25 88 -6 11 -11 29 -18 40 -16 14 3 7
10 -27 31 l-45 28 68 -3 c37 -2 67 -1 67 3 0 10 -27 19 -58 20 -19 1 -22 3 -8
6 10 3 38 -1 62 -7 38 -11 43 -16 38 -33 -4 -14 -3 -17 6 -12 7 4 17 1 22 -6
7 -10 11 -11 14 -2 3 7 12 9 20 6 8 -3 14 0 14 6 0 6 -5 11 -11 11 -5 0 -7 5
-4 10 3 6 -1 10 -10 10 -9 0 -13 5 -10 10 3 5 2 10 -4 10 -5 0 -11 -5 -13 -10
-2 -7 -21 -4 -52 6 -34 12 -44 19 -35 25 24 15 78 10 120 -12 50 -25 62 -19
18 9 l-32 20 57 7 c61 8 64 24 6 25 -42 1 -71 -3 -88 -14 -19 -11 -14 8 9 38
14 18 16 24 5 20 -8 -3 -24 -20 -34 -38 -11 -18 -29 -36 -41 -39 -24 -6 -28 5
-6 23 8 6 13 16 12 20 -1 5 7 16 18 24 18 14 18 15 3 16 -10 0 -18 8 -18 18
-1 16 -1 16 -14 0 -10 -13 -15 -15 -24 -6 -9 9 -12 9 -12 1 0 -6 7 -19 17 -28
10 -11 13 -19 6 -23 -6 -4 -13 -17 -14 -29 -4 -22 -6 -21 -41 13 -43 40 -49
37 -16 -6 16 -23 19 -33 10 -42 -8 -8 -15 -8 -26 1 -12 10 -15 8 -18 -11 -4
-30 -32 -30 -36 0 -3 21 -22 32 -22 12 0 -5 -7 -10 -15 -10 -22 0 -18 34 5 55
11 10 20 24 20 32 0 7 -18 -5 -39 -27 -39 -41 -59 -40 -46 1 5 15 4 19 -4 15
-17 -11 -13 5 6 26 19 22 10 36 -12 18 -12 -10 -15 -10 -15 4 0 9 -5 16 -11
16 -6 0 -9 -6 -6 -14z m37 -116 c11 -7 4 -10 -27 -10 -24 0 -43 -5 -46 -12 -3
-10 -8 -10 -21 1 -13 11 -14 16 -4 22 18 12 80 11 98 -1z"/>
<path d="M1181 261 c0 -8 -9 -11 -21 -8 -21 5 -27 -7 -9 -19 8 -4 7 -9 -2 -15
-10 -6 -11 -9 -1 -9 6 0 12 -7 12 -15 0 -8 5 -15 10 -15 6 0 10 4 10 9 0 5 10
7 23 3 20 -5 21 -4 8 11 -9 11 -10 17 -2 17 6 0 11 5 11 11 0 6 -6 9 -14 6
-10 -4 -16 2 -19 16 -2 12 -5 16 -6 8z"/>
<path d="M1095 220 c-7 -11 2 -30 13 -30 4 0 8 9 8 20 0 21 -11 26 -21 10z"/>
<path d="M357 149 c15 -17 21 -32 17 -49 -5 -24 -5 -24 10 -6 9 11 16 25 16
31 0 7 10 17 23 23 20 9 19 10 -13 9 -19 0 -44 3 -55 8 -19 8 -18 7 2 -16z"/>
<path d="M1095 159 c-11 -4 -33 -6 -50 -5 -16 2 -22 1 -12 -1 10 -3 23 -18 29
-34 10 -30 28 -40 28 -15 0 10 7 12 23 8 21 -5 22 -5 4 15 -14 16 -15 22 -5
26 7 2 11 7 8 9 -3 3 -14 2 -25 -3z"/>
<path d="M335 120 c-3 -5 1 -10 9 -10 8 0 18 5 21 10 3 6 -1 10 -9 10 -8 0
-18 -4 -21 -10z"/>
</g>
</svg>
