<?xml version="1.0" encoding="UTF-8"?>
<svg id="Layer_1" data-name="Layer 1" xmlns="http://www.w3.org/2000/svg" viewBox="0 0 237.17 100.08">
  <defs>
    <style>
      .cls-1 {
        fill: #fff;
      }

      .cls-1, .cls-2 {
        fill-rule: evenodd;
      }

      .cls-1, .cls-2, .cls-3 {
        stroke-width: 0px;
      }

      .cls-2, .cls-3 {
        fill: #003b11;
      }

      .cls-4 {
        fill: none;
        stroke: #003b11;
        stroke-miterlimit: 10;
      }
    </style>
  </defs>
  <g>
    <path class="cls-2" d="M56.12,25.55c-3.65-.01-3.93,3.27-2.18,4.26,1.33.75,1.5-.18,2.16.91-.57.82-2.42.8-3.47.56-2.58-.57-5.68-2.37-10.42-1.03-7.96,2.26-9.95,9.42-7.18,15.14,1.02,2.11,2,3.11,3.45,4.61,1.72,1.78,4.83,3.81,7.25,4.91.98.45,2.24.79,3.05,1.38-.69,2.58-1.46,3.94.68,5.83.8.7,1.85,1.13,3.2.71,2.35-.73.83-2.57,3.79-1.94.5.11.08.15.75.07.11-.01.42-.09.43-.1.77-.06-.22-.06.41.03,1.15.16.9.02,2.04,0,1.55-.04.83.01,1.82.67,1.46-.32.57-.55,2.56-.24,10.85,1.71,12.34-4.32,3.01-3.58-2.18.17-2.36.37-3.16-.12.41-1.29.83-.74,1.94-1.1-.92-.78-2.35-.2-2.69.76-.69,1.94,1.16,1.56,3.15,1.56l4.27.02c1.18.15.66-.02,1.09.53-.3.49.12.6-2.37.73-1.28.06-4.92.09-5.93-.53-.76-.47-.7-1.13-1.39-1.73-.97.37-1.1.93-1.6,1.69-1.28-.41-.26-.74-1.48-.27-.89.34.29.19-1.8.04l-1.27-.25c-2.46-.26-.72-.55-2.25-.71-.45,1-.17,2.07-.83,2.55-1.28.66-3.09-.31-3.62-1.27-.96-1.73.24-2.84.24-4.46-5.04-2.06-10.92-6.74-12.58-11.85-1.42-4.37.46-6.76,2.68-8.75,2.48-2.22,5.95-2.69,9.96-2.04.38.89-.19-.78.06.35l.14.53c2.91-.81,4.1.65,6.17,1.67l.08,3c-5.49-1.37-1.18-1.61-10.62-2.29-.24-.67-.31-2.02-1.05-2.36-.56,1.01-.04,1.35-.16,2.48-2.85,1.95-6.3,4.05-4.48,8.7,1.38,3.53,6.14,6.56,10.05,7.49,1.87.45,1.33-.03,2.09,1.53.91,1.89,3.34,2.28,4.71.59,1.63-1.99,2.07-.37,5.56-.68.83-.07.45-.31,1.26-.17.87.15.11.41,1.33.11.85-.21-.12-.37,1.27-.04,2.61.63,1.82-1.44,1.96-4.61.64.9.45,2.91,1.05,3.83l.53-3.03c.85.34,2.5,1.91,3.35,2.68,1.28,1.15,4.85,4.03,6.63,4.19-.57-.58-1.96-1.5-2.68-2.04-2.45-1.83-5.22-4.8-7.72-6.89-2.07-1.74-5.84-4.97-8.14-6.48-1.71-1.12-1.22-1.08-1.24-3.48,1.5.05,10.01,8.35,10.52,8.86,3.08,3.1,4.18,4.25,7.69,6.92.63.48,2.19,1.74,3.07,1.71-3.54-2.53-7.42-6.93-10.43-9.83-1.78-1.71-3.51-3.14-5.29-4.82-2.14-2.02-2.89-2.89-5.45-4.82-.05-1.11-.22-2.46.14-3.49,2.12-.08,3.42-.26,2.71-2.87-1.17-.98-1.51-.41-2.69-1,.23-1.3.92-1.05.37-2.24-.22-.48-.92-1.32-1.16-1.74-.98.37-.57.68-1.45.74-1.49.11-.18-.24-1.29-.65-.45.54-.26.34-.58,1.13Z"/>
    <path class="cls-2" d="M55.04,12.1c-17.28,1.44-31.48,16.35-30.07,35.4,1.27,17.03,16.33,31.79,35.18,30.22,17.26-1.43,31.6-16.32,30.15-35.43-1.3-17.18-16.39-31.77-35.26-30.19Z"/>
    <path class="cls-2" d="M26.73,17.05c-.49.59-1.8,2.05-2.61,2.5.43-1.57,1.08-2.86.57-4.73-1.51,2.56-1.79,7.33-4.22,8.69l-.25-3.13c1.31-.93,2.24-.98,2.88-2.57l-2.1.65c.25-.67.93-2.24.53-2.93-1.06.65-1.25,1.69-1.92,2.96-.54-.3-.92-.71-1.7-.78-.14,1.76.4,2.02,1.45,2.64.08,2.22.78,4.12-.81,5.52-.68-1.21-1.16-4.15-1.31-5.71-1.32,1.5-.8,5.17-.04,6.92.82,1.88.78.64.22,2.99-.26,1.08-.26,2.67-.79,3.55-.97-1.83-.54-7.58-1.49-9.3-1.58,1.96.87,10.64.67,12.23l-.88,2.73c-4.02-4.44-.43-3.56-1.11-7.23-1.11.38-.88,1.03-1.66,1.78-.64-.65-1.25-1.61-2.25-1.76-.09,1.95.64,1.76.76,3.04-.81.49-1.31.59-1.51,1.45,1.24.95,1.84.33,3,.09.54.62,1.06,1.83,1.53,2.57.89,1.4.84,1.4.66,3.24l-.69-1.14c-.18-.4-.32-.67-.57-1.1-.54-.9-.88-1.41-1.81-1.82.45,3.29,2.94,3.74,2.87,7.22-.9-.49-1.87-1.78-2.46-2.59-1.31-1.81-1.27-1.05-1.18-3.8-.04.04-.09.05-.1.13-.01.07-.08.1-.1.13l-.58,1.35c-.55,1.83.87,3.59,1.94,4.92,2.8,3.44,2.75,1.32,2.78,6.75-1.14-.66-3.02-2.32-3.88-3.29.03-.05.09-.17.11-.13l.23-.24s.09-.07.12-.1c.26-.22.22-.09.6-.45.39-.37.52-.7.58-1.38-1.81-.06-1.65.36-2.55,1.02.1-1.73.16-2.94-1.39-3.3-.22,1.04-.1,1.9.06,3.01-1.23-.52-1.3-1.27-3.17-1.09.34,1.45,1.08,1.74,2.1,2.46-.04.03-.11.02-.13.08l-.41.22c-.7.35-1.25.52-1.35,1.31,1.08.34,1.94.06,3.03-.28-.2,1.44-.15,1.46.32,2.61,1.7-.42,1.04-1.23,1.15-2.82,1.25.57,2.19,1.5,3.12,2.43,1.57,1.57,1.66,1.21,1.4,4.2-.66-.09-1.17-.9-2.15-1.2-1.51-.47-2.34.37-3.24-.13-1.68-.94-2.52-2.58-4.99-2.5l2.07,2.02c.69.65,1.4,1.26,1.95,1.95-.57,1.35-.91,2.21-.09,3.71.46.85,1.67,2.04,2.77,2.39-.17-3.25-2.26-2.53-2.18-5.54,1.17.59,4.13,4.01,5.13,5.03,1.71,1.73,3.62,3.23,5.03,5.2-.53-.12-2.81-1.15-3.27-1.52-1.19-.95-.65-2.35-2.63-2.51-.03,2.04.61,2.1,1.3,3.2-1.37.3-3.6.77-3.31,2.36,1.04.1,1.9-.11,2.72-.65l.82-.55c-.17,1.45-.25,2.44.39,3.55,1.2-.8,1.15-2.44,1.11-4.12,1.41.31,3.9,1.7,4.42,2.7l-3.42-1.22c.7,1.81,3.26,3.39,5.32,4.38.84.4.86.34,1.38.94,1.11,1.31,2.19,2.66,3.48,3.74-.13-.06-17.05-10.63-15.01-2.28.41,1.69,1.61,2.18,2.46,3.43l.91,1.15c.49-1.21.16-2.42-.49-3.22-.75-.92-1.98-1.21-2.14-2.41,2.98-.55,12.96,3.64,16.15,5.35.81.43,1.26,1.03,2.02,1.57.69.49,1.64,1.02,2.2,1.74-.6-.08-3.18-.45-3.54-.64-1.09-.58-.03-1.4-2.89-1.27.15.54.02.24.37.61l.74.64-3.93.02.52-.62c.75-.84,1.01-1.47,1.09-2.69-1.24.33-1.83,1.08-2.16,2.13l-.44-.82c-.31-.83-.57-1.83-1.53-2.18-.34,1.12,0,2.2.22,3.14-1.84-.69-1.69-.49-3.54-.14.42,1.26,1.9,1.35,3.12,1.53-.88.79-1.94,1.23-2.25,2.59,1.95.08,2.29-1.08,3.35-1.57.41,1.16,1.07,2.21,1.87,2.67.45-1.76-.3-2.04-.39-3.28l4.65-.17c-.85.8-1.28.23-1.67,1.65,1.53-.01,2.21-.69,2.64-1.58,1.79-.01,5.55.42,6.82,2.02-1.24-.04-5.8.12-6.6.56,1.87,1.25,5.5.43,7.92.68-1.87.49-3.8.58-5.59,1.3-1.56.62-1.11.16-2.47-.51-.9-.45-1.77-.69-2.91-.58.17,1.48,1.99,1.43,2.91,2.42-1.52.55-3.4,1.02-3.46,2.36,2.44.31,2.84-1.03,4.01-1.47-.28.96-1.16,2.55-.74,3.59,2.22-.41,1.71-4.31,3.81-5.12,1.35-.52,6.27-1.88,7.6-1.22-1.51.89-2.72,1.33-4.2,2.25-1.05.65-3.14,1.92-3.94,2.64,2.45.24,5.97-2.38,8.11-3.35,3.74-1.68,5.33-.49,9.15.64-3.53.8-6.22.22-7.19.44.53.8.41.28,1.14.88l-2.61.94c-.33-1.08-.38-1.67-1.67-1.8-.05,1.01.26,1.32.49,2.09-1.11-.29-1.29-.5-2.68-.43.32,1.03.62,1.06,1.59,1.49-1.01.71-2.12.91-2.4,1.93,1.6.31,2.08-.07,3.32-.53l-.07,2.07c.94-.28,1.22-1.14,1.69-2.13.63.29,1.25.72,2.31.73-.31-1.16-1.41-1.56-2.01-2.47l2.25-1.18.43,1.05c2-1.07-.3-1.78,4.89-2.31,2.23-.23,4.19.48,5.56,1.58-2.27-.12-6.59-.62-8.78.42-.42.2-.64.4-1.07.61l-1.13.68c1.7.19,11.6-.59,11.98-.5l.33.13c-1.84.64-6,3.31-6.47,4.46,3.96.35,3.16-1.06,7.04-3.29,1.42-.81,2.37.15,3.49.95,1.36.96,1.89,1.3,2.89,2.38h2.71c-1.11-2.11-4.96-3.31-6.69-4.73,1.19-.61,7.64.45,9.72.45,1.62,0,2.14-.16,2.59-.49-.69-.36-1.37-.24-2.06-.52-1.07-.44-.34-.65-1.81-.95-1.64-.33-3.42-.38-5.15-.39,2.29-2.43,8.24,1.15,10.77,1.78-.55.85-1.19,1.17-1.45,2.36,1.08-.09,1.62-.27,2.21-.78.69.87.52,1.73,1.69,2.19l.11-2.17c1.03.6,1.58.82,3.2.64-.1-1.17-1.33-1.27-2.41-1.95.87-.37,1.29-.68,1.67-1.46-1.27-.16-1.75.11-2.82.44.25-1.06.52-.94.57-2.18-1.36.35-1.82.9-2.19,2.18-1.23-.29-2.64-1-3.88-1.45-1.4-.5-2.66-.76-4.2-1.11,1.04-.55,3.07-.93,4.32-1.29,4.56-1.33,8.67,3.69,12.85,3.96-.27-.36-3.17-2.2-3.68-2.53l-3.64-2.1c-.05-.04-.1-.08-.15-.12l-.29-.27c2.4.06,5.5.59,7.51,1.44,1.94.82.9,1.19,1.54,2.86.39,1.01,1.15,2,2.08,2.17.4-1.4-.07-1.78-.27-2.99,1.44.33,1.39.93,3.59.85-.39-2.01-1.04-1.68-2.55-2.58.79-.76,1.58-.92,1.92-2.05-1.78-.83-3.31,1.7-5.17,1.06-1.45-.5-4.75-1.05-5.6-1.47,2.48-.16,5.62.7,7.67-.63-1.1-.56-4.97-.59-6.59-.59,1.28-1.19,2.47-1.53,4.72-1.62,3.65-.14,1.54,1.38,4.73,1.65-.29-1.22-.61-.9-1.38-1.53l4.42-.12c.48,1.4-.4,2.13.75,3.17.85-.72.79-1.39.76-2.76,1.19.58,1.64,1.41,3.49,1.13-.11-.74-.35-1.03-.87-1.39l-1.53-.88c1.5-.18,2.51-.35,3.06-1.45-1.71-.41-1.91-.29-3.56.08.41-1.47.52-1.51.28-3.16-.68.31-1.29,1.68-1.61,2.47-.39-.32-1.67-1.46-2.25-1.53-.13.83-.09,1.28.35,1.91.61.86.83.52,1.1,1.56-1.39.31-2.99.45-4.57.36.8-.68,1.11-.35,1.58-1.25-.06-.03-.14-.11-.17-.06l-.72-.12c-.9.03-1.51.79-1.89,1.41l-3.67.06,1.92-1.7c.68-.52,1.33-.97,2.09-1.49,2.91-2.01,6.64-1.86,10.89-3.5,1.29-.5,4.13-2.18,5.47-1.85-.13,1.03-1.41,1.54-2.07,2.26-.38.41-.65.86-.76,1.52-.1.62.05,1.4.33,1.78.69-.86.86-1.46,1.59-2.18,3.28-3.24,1.58-6.85-1.67-5.57-3.06,1.21-7.98,3.92-10.83,4.66.6-.85,3.49-3.3,4.84-5.09,1.57-2.09,2.49-3.78,5.43-4.7-.39,1.8-.29,3.5,1.21,4.12.67-1.31.45-1.69.53-3.18.62.4,2.26,1.48,3.32.7.78-1.1-1.68-1.98-2.53-2.43.12-1.03.83-1.8.46-2.92-2.22-.07-1.71,3.09-5.57,3.86.55-1.38,3.21-3.55,4.24-4.52.91-.86,3.76-3.84,4.52-4.24.58,1.26-1.07,2.08-.95,4.18,1.2-.07,2.41-.69,2.64-1.6.38-1.56-.82-2.21-1.25-3.06.69-.93,1.78-1.61,2.6-2.44.42-.42.12.02.44-.55-2.05-.09-2.7.72-3.93,1.52-1.23.81-1.72-.65-4.23.01-.25-2.47-.17-2.94,1.17-4.25.73-.71,2.22-2.04,3.42-2.47-.16,1.51-.41,2.29.94,2.74.76-.84.57-1.45.44-2.61.96.34,2.09.95,3.08.16-.55-1-1.15-.79-1.97-1.45,1.2-.83,1.75-.97,2.14-2.52-1.57-.02-1.95.59-3.16,1.11.13-1.21.28-1.65.05-2.9-1.44.08-1.51,1.66-1.42,3.17l-1.05-.77c-.65-.32-.81-.23-1.49-.12.05.69.11.87.52,1.28l1.14.97-3.83,3.28c-.38-4.43.26-4.15,2.66-6.71,2.5-2.67,2.36-3.47,1.43-6.58-.13.22-.1.07-.15.49-.03.28-.01.26,0,.52.02.5.15.48,0,1.03-.26,1.04-2.95,4.13-3.68,4.4-.05-1.08-.46-4.22-.38-4.91.13-1.09,1.39-2.87,2.01-3.29,1.83.35,1,.88,3.31.23-.17-1.43-.7-1.01-1.62-1.73.51-1.32.9-1.2.88-2.97-1.25.33-1.54,1.21-2.46,1.83-.3-.83-.67-1.61-1.51-1.75-.13,1.74.3,2.29.91,3.57-1.21,1.17-1.34,2.3-2.25,2.72-1.02-4.33,2.33-10.34.22-14.99-.14.13-.11.02-.27.35-.31.61-1.07,7.99-1.25,8.99-.49-.84-.4-2.48-.6-3.57-.42-2.27-.84-1.09.02-3.26,1.04-2.6.72-4.54-.1-6.73-.24,1.7-.35,3.72-1.15,5.31-.13.26-.19.32-.26.41-1.33-1.69-1.04-1.91-.83-4.2.26-2.82,1.79-.84,1.54-3.92-1.06.14-1.05.2-1.49.87l-2.14-3.08c-.26,1.18.26,1.99.53,3-.7-.32-1.14-.59-2.09-.67.63,1.64,1.49,1.53,2.8,2.55l-.2,3.11c-2.69-1.3-2.54-6.54-4.24-8.68-.4,2.34.24,2.87.6,4.72l-2.57-2.49c.18-1.85.3-2.75-1.08-3.75-.48.56-.45,1.63-.66,2.26-1.48-.56-1.44-1.13-3.68-1.09.43,1.3,1.38,1.55,2.15,2.39-.96.51-1.65.45-2.44,1.24,2.29,1.97,3.88-2.65,7.71,2.3-1.51-.38-2.93-.71-4.65-.51,1.53,0,7.35,3.34,8.45,5.11l-3.22-.55c-.46-1.5-.92-2.25-2.45-2.71l.65,2.02c-1.22-.13-2.06-.07-2.86.39.35.66,1.18.92,1.87,1.41-.22.48-.44.85-.54,1.54,1.01-.23,1.13-.39,1.71-1.05l.49,2.06c1.12-.35,1.4-1.87,1.22-2.86,2.17.21,4.14,0,4.97,2.23-.93-.19-2.16-.89-3.12-.47.68,2.54,4.33.29,4.21,4.75-2.35-.31-3.91-1.61-4.88-3.56l-.55-.84c.03,4.19,2.75,4.46,5.37,6.51.63.49,1,1.77,1.24,2.7-.86-.35-2.19-1.52-3.33-2.12-2.09-1.11-2.1-1.6-3.19-2.29.98,5.07,5.73,3.82,7.19,7.52.36.9.84,2.97.75,4.01-1.21-.83-3.68-1.59-4.1-1.96,1.07-.84,1.8-.7,1.9-2.47-.91.13-1.31.52-1.94.86l-.05-2.18c-1.38.48-.83.98-1.41,1.89-.5-.9-1.29-1.77-2.53-1.97.06.87.35,1.49.87,2.12.41.5.27.23.59.81l-2.37.24c.45,1.28,1.67,1.21,2.98.98-.32,1.04-.69.77-.74,2.31,1.73-.38,1.29-.76,2.22-1.8,1.85.28,4.64,1.24,4.75,3.37-.52-.23-7.22-4.68-2.61-.02.79.8,1.23,1.22,2.41,1.6.03.96.03,2.28-.29,3.02-2.01-1.16-2.25-3.81-5.71-4.97.47,1.44,2.58,4.02,3.78,5.14,1.68,1.57,2.48.08,1.79,7.61-.09.99-1.37,4.02-1.99,4.67-.04-.04-.1-.15-.11-.12-.22.47-1.69-5.27-1.71-5.42-.37-2.17,2.36-2.23,1.34-5.26-1.43.14-1.67,1.19-2.1,2.63-.76-1.13-.86-3.5-2.5-3.77-.16,1.64.14,3.75,1.13,4.29-1.13-.01-1.89-.68-3.74-.56.86,2.12,2.2,1.95,4.81,2.29.56,1.67,1.14,3.87,1.55,5.73.66,2.93-.07,3.41-1.32,5.4-1.14,1.83-5.62,7.25-6.89,7.94-.08-1.53,1.03-4.75,1.79-5.65.68-.8,3.93-2.54,3.27-3.82-.84-.44-1.53.57-2.28.94.68-2.74,3.12-5.85,3.54-8.79-.87,1.27-1.58,2.83-2.37,4.24-.68,1.2-1.5,3.49-2.62,4.32-.32-1.27-.51-1.95-1.84-2.19.15,4.04,1.97,1.36.19,6.76-.46,1.41-1.31,6.02-2.05,6.72-1.61,1.53-2.4,2.84-4.52,4.31-1.18.82-4.62,2.7-6.21,2.92.38-1.26,2.52-3.13,3.27-4.77.47.9.24,1.79,1.27,2.16.6-1.01.35-1.46.16-2.68,1.26.84,1.03,1.1,2.96.88.58-2.13-1.44-1.83-2.46-2.39.99-.53,1.93-1.09,1.92-2.55-1.33.12-2.24,1-2.77,1.72-.93-1.12-.35-2.35-2.37-2.81-.74,1.72-.06,2.24.57,3.53-.94-.48-1.74-1.03-2.97-.33.64,1.41,1.63,1.04,3.22,1.45-.2,1.67-2.28,3.87-3.25,5.3-.51.76-.58.87-1.78,1.05.63-1.58,2.31-4.03,3.32-5.27-3.48.43-3.78,5.07-5.39,5.85-.47.23-2.71.75-3.32.86.6-2.23,2.21-1.81,2.58-3.6-.69.02-.33-.07-.83.18-.06.03-.22.14-.27.18-.04.03-.1.08-.14.1-.04.03-.11.08-.14.11-.03.03-.09.08-.14.11.48-1.76.41-1.5,2.06-2.08,1.08-.38,2.05-.96,2.21-1.97-1.23-.31-1.9.27-3.12.37.46-1.03.57-1.62.36-2.9-1.37.19-1.35,1.46-1.86,2.37-.21.37-.05.17-.33.44-.49-.95-.87-1.63-2.35-1.88.21,2.08.94,2.95,2.62,4.22l-.41,1.31c-.65-.65-.22-.89-1.23-1.06.36,1.53,1.22,4.05-.68,4.7l-.46-1.12c-1.03-2.69-4.22-2.66-4.66-4.38-.07-.27-.06-.43-.14-.68l-.12-.32s-.06-.12-.08-.16c-.02-.04-.05-.1-.08-.15-2.06,3.18,3.64,3.57,2.88,7.64-.64.4-1.04.64-1.84.7-.77-1.15-.4-1.02-.83-2.4-1.47.26-.81,2.15-.69,3.43-2.68,1.76-1.31,1.24-3.86.11.15-1.61.76-2.67-.56-3.58-.53.86-.01,1.36-.94,2.36-.85.11-1.37-.27-1.87-.73-.26-2.06.56-3.01,1.78-3.91.53-.39,1.08-.67,1.32-1.41.26-.78.26-1.75-.27-2.28-1.46,3.31.65,1.26-2.77,3.27-2.07,1.21-1.74,1.63-2.63,3.63-2.33-.63-.69-3.5-.89-5.03-.73.24-.68.49-.86,1.25l-.71-1.53c1.11-.89,2.43-1.84,2.63-3.85-1.7.12-1.91,1.36-2.86,2.21-.05-1.18-.14-2.94-1.52-3.14-.73,1.34-.04,2.58.39,3.55-1.16-.52-1.34-1.25-3.21-.89.01,1.07.9,1.61,2,1.88,1.96.49,1.78.1,2.35,2.16-.75-.36-.78-.59-1.74-.74.63,2.65,1.91.56,2.75,3.64-.97-.15-3.25-.68-3.82-1.28-.35-.36-1.46-2.52-1.89-3.13-.93-1.32-3.52-4.66-5.28-4.89,1.04,1.14,1.76,2.01,2.82,3.55.69,1,2.22,3.15,2.67,4.15-1.69-.11-2.43-1.84-4.21-4.09-.67-.85-3.13-3.84-3.23-4.86,1.34.09,2.97-.16,3.25-1.56-1.85-.33-1.49-.18-3.05.29.68-1.63,1-.65.75-3.3-.68.02-1.2.46-1.54.84-.66.72-.47,1.14-.92,1.8-.57-.95-1.27-1.59-2.84-1.53.06,1.71.81,1.87,1.91,2.6-1.46.65-2.47.3-2.5,2.3,2.14.16,1.79-.34,2.99-.88-.23,1.12-.42,1.74.23,2.7,1-.5.96-.98,1.15-2.22,1.24,1.71,5.28,6.18,5.88,7.38-3.4-.49-7.21-3.53-9.59-5.78-2.11-1.99-1.85-1.3-2.37-4.32-.21-1.21-.48-2.41-.81-3.57-.3-1.03-1.04-2.42-.83-3.46.24-1.18.93-1.9.97-3.54-1.52.07-1.32,1.13-2.02,2.17-1.7-2.46-3.16-6.36-4.88-8.67.58,2.89,2.76,6.19,3.57,8.8-.79-.45-1.15-1.03-2.26-1.01-.34,2.75,3.78,1.72,4.89,8.04l-.51-.44c-.18-.18-.21-.25-.41-.44-.37-.38-.49-.45-.91-.76-2.82-2.11-3.04-1.6-5.31-5.41-2.07-3.47-1.49-4.16-.22-7.96,1.43-4.29.88-1.64,3.98-2.96.76-.32,1.47-1.09,1.73-1.72-1.47-.4-2.51.3-3.69.51.53-1.03,1.69-2.33,1.01-4.28-1.44.25-1.93,2.42-2.28,3.55-.3-.36-1.36-3.13-2.24-2.33-1.24,2.44,1.95,3.01,1.25,5.3-.31,1.01-1.47,4.75-1.83,5.33-.92-.88-1.59-2.89-1.87-4.45-.66-3.55.17-2.6,1.14-4.6,1.09-2.23,1.5-4.34,3.01-6.4.5-.69,1.06-1.17,1.38-1.89-3.37,1.01-4.43,4.23-5.74,7.39-.03-.05-.07-.18-.08-.16-.01.03-.06-.12-.08-.16l-.11-.36c-.26-1.19-.3-2.72-.18-3.92.1-.94.05-.73.72-1.15,1.4-.86,3.06-1.98,3.53-3.51-1.68.22-2.98,1.62-4.3,2.21.25-2.04,2.59-3.09,4.99-3.45.28.98.81,1.71,2.03,1.76-.02-.99-.36-1.38-.69-2.16,1.04.09,2.7.23,2.82-.97l-2.24-.35c.42-.88,1.42-1.05,1.4-2.94-1.27.37-1.72,1.07-2.53,1.95-.61-.95.02-1.62-1.28-1.78l-.23,2.07c-.7-.34-.75-.71-1.84-.76.12,1.62.89,1.6,1.89,2.43-.85.62-2.69,1.07-3.98,1.85-.04.02-.1.07-.16.09.05-.96.41-3.42.69-4.24.38-1.08,1.57-1.58,2.6-2.24,2.34-1.48,4.2-1.69,4.67-5.01-3.23,2.84-1.52,1.08-4.78,3.25l-1.68,1.14c.85-3.22,1.45-2.69,3.72-4.34,1.92-1.39,2.85-1.84,2.88-5.01-1.01,1.16-1.28,3.99-5.45,4.52.11-4.75,2.97-1.89,4.2-4.74-.99-.4-2.07.24-3.07.45.37-1,.59-1.56,1.75-1.78.95-.17,2.17-.32,3.18-.42-.19,1.23.29,2.28,1.07,2.91.44-.77.35-1.43.71-2.03.49.4.73.79,1.68.92l-.54-1.52c.83-.65,1.25-.35,1.85-1.49-1.32-.47-1.22-.46-2.83-.26l.69-2.01c-1.73.34-1.87,1.25-2.56,2.56-.43.21-.91.28-1.5.4-1.66.34-1.23.17-1.62-.1,1.17-.59,2.27-1.74,3.55-2.59,1.15-.76,3.37-1.57,4.1-2.15-1.83-.04-2.35.08-3.93.48.3-.48,2.27-2.39,3.01-2.44.82-.05,2.32.64,3.57.53l1.12-.38c-.8-.73-1.3-.86-2.45-1.14.64-.77,1.96-1.35,2.14-2.51-2.44-.02-2.14.79-3.79,1.05l-.3-2.18c-1.68.77-1.54,2-1.29,3.74Z"/>
    <polygon class="cls-2" points="29.88 10.19 31.51 9.21 32.1 10.19 31.43 10.59 32 11.52 32.59 11.16 33.15 12.09 32.56 12.44 33.8 14.49 32.84 15.07 29.88 10.19"/>
    <rect class="cls-3" x="33.27" y="8.35" width="1.13" height="5.71" transform="translate(-1.21 17.69) rotate(-28.81)"/>
    <path class="cls-2" d="M36.8,8.86l-1.01.5-.23-.46c-.15-.29-.25-.47-.3-.54-.06-.06-.12-.08-.19-.04-.06.03-.09.08-.08.16,0,.07.08.24.21.5l1.22,2.45c.11.23.2.38.26.44.06.06.12.08.18.04.07-.04.1-.1.08-.2-.02-.09-.08-.26-.2-.5l-.3-.6-.2.1-.39-.77,1.17-.58,1.36,2.74-.63.31-.28-.32c.01.19-.02.35-.08.48-.06.13-.17.23-.31.3-.17.08-.35.11-.55.07-.2-.04-.38-.11-.53-.24-.16-.12-.29-.27-.39-.43-.11-.17-.25-.42-.42-.78l-.76-1.52c-.24-.49-.4-.85-.47-1.09-.07-.24-.06-.5.04-.78.1-.28.3-.49.59-.64.29-.15.58-.19.85-.12.27.06.5.19.66.38.17.19.36.5.57.92l.11.22Z"/>
    <polygon class="cls-2" points="39.3 5.64 41.22 11.01 40.16 11.4 39.36 9.14 39.05 9.25 39.86 11.51 38.8 11.89 36.87 6.52 37.93 6.14 38.62 8.06 38.93 7.95 38.24 6.03 39.3 5.64"/>
    <polygon class="cls-2" points="41.95 4.73 42.32 5.81 41.69 6.02 43.16 10.34 42.1 10.7 40.63 6.38 40 6.6 39.63 5.52 41.95 4.73"/>
    <polygon class="cls-2" points="43.47 4.29 45.31 3.8 45.61 4.9 44.86 5.1 45.14 6.15 45.81 5.97 46.09 7.01 45.42 7.19 46.05 9.51 44.96 9.8 43.47 4.29"/>
    <path class="cls-2" d="M49.23,6.45c.09.57.14.97.15,1.21.02.24-.01.46-.09.68-.08.21-.2.38-.36.52s-.37.22-.61.25c-.23.03-.44.02-.64-.05-.2-.07-.37-.2-.51-.38-.14-.18-.24-.39-.3-.61-.06-.23-.13-.63-.22-1.21l-.15-.97c-.09-.57-.14-.97-.15-1.21-.02-.24.01-.46.09-.68.08-.21.2-.38.36-.52s.37-.22.61-.25c.23-.03.44-.02.64.05.2.07.37.2.51.38.14.18.24.39.3.61.06.23.13.63.22,1.21l.15.96h0ZM47.84,4.77c-.04-.26-.08-.43-.11-.5-.03-.07-.08-.1-.15-.09-.06,0-.1.05-.12.11-.02.06,0,.24.03.53l.4,2.63c.05.33.09.53.12.6.03.07.08.11.16.09.07-.01.11-.06.12-.15,0-.09-.01-.3-.07-.63l-.39-2.59Z"/>
    <path class="cls-2" d="M49.27,3.05l.79-.1c.53-.07.88-.09,1.08-.06.19.03.36.15.51.35.15.2.25.55.31,1.03.06.44.05.74,0,.9-.06.16-.21.27-.45.34.23.04.39.12.48.23.09.11.15.22.18.32.03.1.08.38.14.83l.19,1.49-1.03.13-.24-1.88c-.04-.3-.08-.49-.13-.56-.04-.07-.14-.09-.3-.07l.33,2.55-1.12.14-.73-5.66h0ZM50.51,3.87l.16,1.26c.12-.02.21-.05.25-.1.04-.05.05-.2.02-.45l-.04-.31c-.02-.18-.06-.3-.12-.34-.06-.05-.15-.07-.27-.05Z"/>
    <path class="cls-2" d="M58.04,2.45l-.44,5.71-1.4.02c-.14-.87-.26-1.87-.38-2.99-.04.48-.13,1.48-.28,3l-1.39.02-.57-5.7h1.09s.14,1.98.14,1.98l.14,1.92c.03-1,.12-2.3.27-3.92h1.16c.02.16.06.78.14,1.87l.15,2.17c.05-1.38.14-2.74.27-4.06h1.09Z"/>
    <path class="cls-2" d="M60.92,5.84c0,.57-.02.98-.05,1.22-.02.24-.09.46-.2.65-.11.2-.26.35-.44.45-.18.1-.4.15-.64.15-.23,0-.44-.06-.62-.16-.18-.1-.33-.25-.44-.45-.11-.2-.17-.42-.19-.65-.02-.24-.02-.65-.02-1.23v-.98c.02-.57.03-.98.06-1.22.02-.24.09-.46.2-.65.11-.2.26-.35.44-.45.18-.1.4-.15.64-.15.23,0,.44.06.62.16.18.1.33.25.44.45.11.2.17.42.19.65.02.24.02.65.02,1.23v.98h-.01ZM59.81,3.95c0-.26,0-.43-.03-.51-.02-.07-.06-.11-.13-.11-.06,0-.1.03-.13.09-.03.06-.05.23-.05.53l-.03,2.66c0,.33,0,.54.02.61.02.08.07.12.14.12.07,0,.12-.04.15-.13.02-.09.03-.3.04-.64l.03-2.62Z"/>
    <path class="cls-2" d="M62.04,2.6l.79.1c.53.07.88.14,1.06.22.18.08.31.23.4.47.09.23.1.59.04,1.08-.06.44-.14.73-.24.87-.1.14-.28.21-.52.21.21.1.35.22.41.35.06.13.09.25.1.35,0,.1-.02.38-.08.84l-.19,1.49-1.03-.13.24-1.88c.04-.3.05-.49.02-.57-.03-.08-.12-.12-.27-.14l-.33,2.55-1.12-.14.73-5.66h0ZM63.04,3.71l-.16,1.26c.12.02.21,0,.27-.03.06-.04.1-.18.13-.43l.04-.31c.02-.18.01-.3-.03-.36-.04-.06-.13-.1-.25-.12Z"/>
    <polygon class="cls-2" points="66.3 3.2 65.53 7.7 66.2 7.81 66.01 8.93 64.23 8.63 65.19 3.01 66.3 3.2"/>
    <path class="cls-2" d="M67.49,3.39l.82.18c.53.12.88.23,1.05.33.17.11.29.24.36.41.07.17.09.34.08.53-.02.19-.08.54-.19,1.07l-.42,1.95c-.11.5-.2.83-.27.99-.07.16-.16.28-.27.36-.11.08-.23.12-.37.13-.14,0-.34-.01-.6-.07l-1.38-.3,1.21-5.57h0ZM68.38,4.58l-.8,3.67c.16.03.26.01.31-.06.05-.08.12-.3.2-.67l.47-2.17c.05-.25.08-.42.09-.49,0-.07-.01-.13-.05-.17-.04-.04-.11-.08-.23-.1Z"/>
    <path class="cls-2" d="M71.97,4.45l1.07.36c.29.1.5.2.64.31.13.11.22.24.26.38.04.14.05.3.02.47-.03.17-.1.43-.21.76l-.16.47c-.11.34-.23.59-.33.73-.11.14-.25.23-.42.27-.17.04-.38.02-.61-.06l-.29-.1-.73,2.18-1.07-.36,1.81-5.41h0ZM72.73,5.73l-.46,1.38s.06.02.08.03c.1.03.18.02.23-.03.06-.05.12-.18.19-.38l.15-.45c.06-.18.08-.31.06-.38-.02-.07-.11-.13-.24-.17Z"/>
    <polygon class="cls-2" points="74.69 5.36 76.45 5.99 76.07 7.06 75.36 6.81 74.99 7.84 75.65 8.07 75.29 9.09 74.63 8.86 74.21 10.04 74.98 10.31 74.6 11.39 72.76 10.73 74.69 5.36"/>
    <path class="cls-2" d="M78.92,7l-1.65,5.5-1.06-.45.35-.97-.37-.16-.46.92-1.07-.46,2.76-5.02,1.49.64h0ZM76.93,10.15c.2-.62.47-1.37.79-2.28-.53.96-.91,1.67-1.14,2.13l.35.15Z"/>
    <path class="cls-2" d="M81.19,10.82l-1.02-.48.43-.89c.12-.26.19-.43.2-.5,0-.07-.02-.13-.1-.16-.08-.04-.15-.03-.21.04-.06.07-.15.23-.28.49l-1.14,2.39c-.12.25-.19.42-.2.51-.01.09.02.15.1.19.08.04.14.02.2-.05.06-.06.16-.24.29-.52l.31-.65,1.02.48-.1.2c-.25.53-.46.9-.63,1.09-.16.2-.38.33-.66.41-.28.08-.56.05-.84-.09-.3-.14-.51-.33-.63-.56-.13-.23-.16-.49-.1-.77.06-.28.21-.67.45-1.18l.71-1.5c.18-.37.32-.64.43-.82.11-.18.25-.33.43-.45.18-.13.37-.2.59-.22.22-.02.43.03.66.13.3.14.51.33.63.58.12.24.16.49.11.75-.05.26-.19.63-.41,1.11l-.23.49Z"/>
    <polygon class="cls-2" points="83.12 9.11 84.72 10.09 84.12 11.06 83.49 10.67 82.91 11.6 83.51 11.97 82.94 12.89 82.35 12.52 81.69 13.59 82.39 14.02 81.8 14.99 80.14 13.97 83.12 9.11"/>
    <path class="cls-1" d="M56.67,44.79c0-.6.35-.57.62-.8.03-.95.07-8.4-.05-8.67-.17-.02-.27-.03-.28.15-.03.34.25-.18,0,1.14-.39,2.13-1.17,4.88-2.3,6.67-.28.44-.83,1.18-1.2,1.54-.18.18-.29.2-.47.38.03.17.35.78.44,1.01.64,1.5,1.89,4.96.8,6.35-.22.28-.57-.04-.4,1.7l.84.02-.24.53-.25.02v1.06c2.15-.17,4.26-.02,6.63.34v-1.02l-.23-.04-.31-.93h.75c.02-.25.06-1.19-.03-1.37-.15-.29-.36-.08-.51-.87-.14-.77,0-1.78.15-2.53.15-.75.33-1.48.55-2.19l.64-1.93c.08-.25-.09-.21-.44-.54-1.01-.95-1.92-2.76-2.36-3.98-.22-.6-1.44-4.57-1.21-5.16.08-.21.12-.09.06-.26-.04-.13-.1-.13-.26-.11-.15.3-.08,7.71-.05,8.7.38.16.68.34.61.87-.11.88-1.49.83-1.5-.11Z"/>
    <path class="cls-1" d="M48.61,55.61c-.88.1-1.73.27-2.51.58-.58.23-1.6.77-2.07,1.24.17-.03.52-.21.72-.28,3.47-1.28,5.88-1.12,9.51-.42l3.27.71c-.29-.22-1.92-.81-2.39-.95-.85-.26-1.73-.52-2.67-.67h0s-.05-.02-.08-.02c-.24,0-.49-.04-.72-.12-.39.03-2.49-.04-2.92-.05-.05,0-.1,0-.15-.01Z"/>
    <path class="cls-1" d="M35.96,56.99l.3.09c0-.3.05-.18-.11-.41-.12.09,0-.1-.14.14,0,.01-.04.16-.05.18h0ZM78.28,57.14l.61-.12c-.28-.07-.15,0-.27-.19,0,0-.06-.15-.07-.18-.18.24-.18.21-.26.49h0ZM45.07,47.7c-.09-.19-.04-.15-.19-.29-.27.21-.3.11-.8.75l.11.28s.02.03.03.05c.29-.09.22-.12.41-.31.35-.36.1-.27.44-.47h0ZM84.9,51.46c.09-.62-.11-.38-.13-.83-.01-.56.31-.23.25-.75-.76-.04-.83.86-.51,1.34.13.2.15.21.28.24h.1ZM82.16,52.46l1.45,1.48c.28-.12.08.03.28-.23-.04-.29-.51-.61-.69-.79-.42-.43-.25-.48-1.04-.46h0ZM39.76,52.46l1.1,1.16c.12.12.1.06.23.19.25.24.13.28.52.45,0-.41.06-.54-.18-.78-.16-.17-.32-.22-.5-.4-.68-.69-.46-.61-1.17-.61h0ZM64.67,30.42c.24-.05.23,0,.38-.17l.09-.06c-.15-1.25-1.56-1.53-2.64,0,.8.18.78-.33,1.21-.57.52-.29,1.2.22.96.79h0ZM84.03,53.57c-.07-.2.01-.06-.25-.23.1-.29.47-.47.58-.7.32-.65-.57-1.45-1.21-.69-.43.51-.22.26-.96.39.1-.17.93-1,1.2-1.07.43-.12,1.05,0,1.24.39.02.04.05.15.07.19.1.18-.01.05.14.16-.13.41-.5,1.38-.81,1.55h0ZM64.69,27.83l1.29-.1c.35.2.39-.08.81.27.39.31.44.33.51.61-.28.17-.18.29-.48,0-.3-.29-.98-1.16-1.58-.5-.69.77.85,1.46.77,1.73-.04.13-.16.15-.22.2-.6-.33-1.72-1.66-.86-2.05-.13-.17.2-.1-.24-.15h0ZM39.79,52.34c.26-.37.41-.38.64-.63.09-.1.08-.12.19-.23.32-.32.96-.31,1.36-.06.96.62.26,1.87-.41,2.11-.12-.18,0-.08-.19-.19.12-.31.4-.37.57-.71.33-.67-.53-1.38-1.23-.72-.45.43-.14.32-.92.42h0ZM44.49,49.61c-.15.26.23.13-.36.19l-5.4-.04c.09.1.02.06.24.12h1.56c.61.01,1.23,0,1.83,0-.5.14-.53.92-.24,1.34.14.21.69.83.95.94.13-.13.14-.11.26-.29l-.23-.25c-.4-.41-1.14-.9-.53-1.48.72-.68,1.42.54,1.71.73.17-.09.22-.11.27-.31-.08-.1-.59-.61-.77-.69.31,0,.56.02.57.03.42.38,1.3-.1,1.37-.39,0-.03.03-.04.05-.05l-.21-.42c-.04.37.04.1-.15.3,0,0-.21.16-.23.18-.25.14-.49.12-.68.08h0ZM79.76,56.78c-.19-.61-.78-1.11-1.6-.96-.95.17-.91.71-1.22,1.37-.34,0-.53.06-.71-.08.44-1.98,3.27-2.41,4.34-1.06l.16.27c-.2.25-.68.31-.97.46h0ZM41.83,55.19c1.56-.43,3.24-2.05,3.68-3.68-1.79.19-.97-.05-1.71,1.15-.35.58-.81,1.22-1.27,1.72l-.71.81h0ZM69.26,51.52c.45,1.63,2.11,3.19,3.68,3.67l-1.39-1.65c-1.59-2.27-.38-1.83-2.3-2.01h0ZM37.06,57.16l.36.08c-.14-.56-.27-1.21-1.03-1.4-.82-.2-1.27.24-1.65.68l-.51-.15c.42-1.19,2.83-1.56,3.86-.4.21.24.62.84.53,1.29.35-.11.13-.1.42-.04-.28.14-1.71.09-1.98-.06h0ZM35.96,56.99c-2.45-.36-4.99-2.29-5.84-4.48-.29-.75-.61-1.84-.49-2.73l1.09-.04,6.58-16.99c-.87-.15-1.96-.94-2.26-1.39-1.23-1.87.98-3.06,1.93-1.53,0,.01.02.03.03.04.67,1.06,1.87,1.87,3.39,1.44,1.76-.5,2.13-1.84,4.31-2.81,2.33-1.03,4.05-.78,6.2-.51.04-.08.3-.37.38-.43.26-.24.79-.38,1.15-.53.42-.18.18-.11.31-.52.88-.42,2.7-.52,3.75-.49v-3.99s-.52.05-.52.05v-6.37c.05-.54.05,0,.16-.32.09-.27-.27-1.7,1.12-1.85,1.62-.17,1.33,1.66,1.45,1.91.06.13.1-.12.12.38v6.21l-.52-.02v3.99c1.05,0,4.04.15,4.67,1.09l.98.88.74-.16c.44.05.11-.02.24.15-.85.39.26,1.72.86,2.05.07-.05.19-.08.22-.2.08-.27-1.46-.96-.77-1.73.59-.66,1.28.21,1.58.5.31.3.2.18.48,0-.08-.27-.13-.3-.51-.61-.42-.34-.46-.07-.81-.27,2.45.03,4.59.64,6.17,2.12,4,3.76,5.51-.23,6.12-.55.41-.22.95-.23,1.34.01.84.51.48,1.62-.02,2.23-.28.34-1.39,1.09-2.1,1.2.13.58.58,1.58.82,2.18.82,2.02,5.56,14.51,5.8,14.83h1.06c-.02.92-.1,1.42-.33,2.25-.15-.11-.03.02-.14-.16-.02-.04-.05-.15-.07-.19-.19-.39-.81-.51-1.24-.39-.26.07-1.1.9-1.2,1.07.74-.13.53.12.96-.39.64-.76,1.52.04,1.21.69-.11.23-.48.41-.58.7.26.16.18.03.25.23-.18.8-2.57,2.69-3.3,2.74l-.16-.27c-1.08-1.36-3.9-.92-4.34,1.06.18.14.37.09.71.08.32-.65.27-1.2,1.22-1.37.82-.15,1.4.35,1.6.96l-.88.24c-.28-.07-.15,0-.27-.19,0,0-.06-.15-.07-.18-.18.24-.18.21-.26.49-3.01.3-6.08-.04-8.09-1.91l-.57-.55c-.28-.27-.72-.94-.92-1.3-.43-.75-1.05-2.63-.84-3.6h1.04c.21-.27,1.55-3.9,1.66-4.19.55-1.39,1.07-2.74,1.63-4.19.52-1.37,1.04-2.83,1.62-4.19l1.61-4.19c-2.1-.12-3.36-1.12-4.78-1.94-1.17-.68-2.64-1.12-4.07-1.01-.47.03-1.1.23-1.51.19l.09-.06c-.15-1.25-1.56-1.53-2.64,0,.8.18.78-.33,1.21-.57.52-.29,1.2.22.96.79-.42.47.05.81-1.1.93h-6.11c-1.63,0-4.72.08-6.2.02-.83-.04-.87-.28-1.1-.91-2.15-.59-3.89-.57-5.8.49-1.39.77-2.93,1.99-4.94,2.07-.05.27,2.41,6.42,2.71,7.19.35.91,2.74,6.85,2.74,7.21-.27.21-.3.11-.8.75l.11.28s.02.03.03.05c.29-.09.22-.12.41-.31.35-.36.1-.27.44-.47l.48,1.34c-.04.37.04.1-.15.3,0,0-.21.16-.23.18-.25.14-.49.12-.68.08-.2-.24-2.38-7.2-2.73-8.22-.47-1.38-.9-2.78-1.36-4.18l-1.36-4.18-.59-.03c.15,2.73.11,5.6.17,8.35.03,1.4.05,2.79.08,4.19.01.8.18,3.66.03,4.21.09.1.02.06.24.12h1.56c.61.01,1.23,0,1.83,0-.5.14-.53.92-.24,1.34.14.21.69.83.95.94.13-.13.14-.11.26-.29l-.23-.25c-.4-.41-1.14-.9-.53-1.48.72-.68,1.42.54,1.71.73.17-.09.22-.11.27-.31-.08-.1-.59-.61-.77-.69.31,0,.56.02.57.03.42.38,1.3-.1,1.37-.39,0-.03.03-.04.05-.05l.04.31,1.13-.02c.19.91-.32,2.44-.63,3.2-.35.84-1.01,1.57-1.64,2.19-1.18,1.16-4.35,2.34-5.62,2.07-.29-.06-.06-.07-.42.04.09-.46-.32-1.06-.53-1.29-1.03-1.16-3.44-.78-3.86.4l.51.15c.38-.43.83-.88,1.65-.68.76.19.89.84,1.03,1.4l-.36-.08c-.31.03-.49-.04-.79-.08,0-.3.05-.18-.11-.41-.12.09,0-.1-.14.14,0,.01-.04.16-.05.18h0ZM32.06,49.77h5.71s.34-16.8.34-16.8l-.55-.11-4.11,12.67c-.48,1.42-.95,2.83-1.39,4.25h0ZM76.98,49.78h5.73s-5.52-16.91-5.52-16.91l-.48.08c-.15.45.09,7.34.11,8.4.07,2.77.16,5.65.15,8.43h0ZM76,49.77l.33-16.77-.59.03c-.28,1.18-2.16,6.67-2.71,8.36l-2.73,8.39h5.7ZM84.9,51.46h-.1c-.13-.02-.15-.04-.28-.24-.32-.48-.26-1.38.51-1.34.06.52-.27.18-.25.75.01.45.21.21.13.83h0ZM41.83,55.19c1.56-.43,3.24-2.05,3.68-3.68-1.79.19-.97-.05-1.71,1.15-.35.58-.81,1.22-1.27,1.72l-.71.81h0ZM69.26,51.52c1.92.19.71-.26,2.3,2.01l1.39,1.65c-1.58-.47-3.23-2.04-3.68-3.67h0ZM39.79,52.34c.26-.37.41-.38.64-.63.09-.1.08-.12.19-.23.32-.32.96-.31,1.36-.06.96.62.26,1.87-.41,2.11-.12-.18,0-.08-.19-.19.12-.31.4-.37.57-.71.33-.67-.53-1.38-1.23-.72-.45.43-.14.32-.92.42h0ZM39.76,52.46c.7,0,.49-.08,1.17.61.18.18.34.24.5.4.24.25.18.38.18.78-.39-.17-.27-.21-.52-.45-.13-.13-.11-.06-.23-.19l-1.1-1.16h0ZM82.16,52.46c.79-.03.62.03,1.04.46.17.18.65.51.69.79-.21.26,0,.11-.28.23l-1.45-1.48Z"/>
    <path class="cls-2" d="M69.53,52.08c.37,1.35,1.71,2.66,2.98,3.05l-1.12-1.37c-1.29-1.89-.3-1.52-1.86-1.67Z"/>
    <path class="cls-2" d="M41.47,56.21c1.26-.36,2.62-1.7,2.98-3.06-1.45.16-.79-.04-1.39.96-.29.48-.65,1.02-1.03,1.43l-.57.67Z"/>
    <path class="cls-1" d="M66.17,55.61c.88.1,1.73.27,2.51.58.58.23,1.6.77,2.07,1.24-.17-.03-.52-.21-.72-.28-3.47-1.28-5.88-1.12-9.51-.42l-3.27.71c.29-.22,1.92-.81,2.39-.95.85-.26,1.73-.52,2.67-.67h0s.05-.02.08-.02c.24,0,.49-.04.72-.12.39.03,2.49-.04,2.92-.05.05,0,.1,0,.15-.01Z"/>
    <path class="cls-1" d="M66.17,56.69c.88.1,1.73.27,2.51.58.58.23,1.6.77,2.07,1.24-.17-.03-.52-.21-.72-.28-3.47-1.28-5.88-1.13-9.51-.42l-3.27.71c.29-.22,1.92-.81,2.39-.95.85-.26,1.73-.52,2.67-.67v-.02s.06,0,.09,0c.24,0,.49-.04.72-.12.39.03,2.49-.04,2.92-.05.05,0,.1,0,.15-.01Z"/>
    <path class="cls-1" d="M48.61,56.69c-.88.1-1.73.27-2.51.58-.58.23-1.6.77-2.07,1.24.17-.03.52-.21.72-.28,3.47-1.28,5.88-1.13,9.51-.42l3.27.71c-.29-.22-1.92-.81-2.39-.95-.85-.26-1.73-.52-2.67-.67v-.02s-.06,0-.09,0c-.24,0-.49-.04-.72-.12-.39.03-2.49-.04-2.92-.05-.05,0-.1,0-.15-.01Z"/>
  </g>
  <g>
    <g>
      <polygon class="cls-2" points="132.56 15.01 132.56 47.06 139.12 47.06 139.12 55.06 121.68 55.06 121.68 15.01 132.56 15.01"/>
      <path class="cls-2" d="M169.33,31.61h-10.89v-6.95c0-2.02-.11-3.28-.34-3.79-.23-.5-.74-.75-1.52-.75-.88,0-1.44.3-1.68.91-.24.62-.36,1.94-.36,3.96v18.58c0,1.95.12,3.21.36,3.81.24.59.78.88,1.6.88s1.33-.29,1.58-.89c.25-.59.37-1.99.37-4.19v-5.04h10.89v1.56c0,4.15-.31,7.1-.92,8.83-.61,1.74-1.96,3.26-4.05,4.57-2.09,1.31-4.67,1.96-7.74,1.96s-5.81-.55-7.88-1.65c-2.06-1.11-3.43-2.64-4.11-4.59-.67-1.96-1.01-4.89-1.01-8.82v-11.69c0-2.89.11-5.05.31-6.49.21-1.44.82-2.83,1.85-4.17,1.02-1.33,2.44-2.39,4.25-3.15,1.81-.77,3.9-1.15,6.27-1.15,3.2,0,5.84.59,7.93,1.78,2.08,1.18,3.45,2.66,4.11,4.43.65,1.77.98,4.52.98,8.26v3.81Z"/>
      <path class="cls-2" d="M173.5,15.01h10.82c3.42,0,6,.25,7.77.77,1.76.51,3.18,1.55,4.27,3.1,1.08,1.56,1.62,4.07,1.62,7.53,0,2.33-.38,3.97-1.14,4.88-.77.93-2.28,1.63-4.54,2.13,2.52.55,4.23,1.45,5.13,2.71.9,1.27,1.35,3.2,1.35,5.82v3.71c0,2.71-.33,4.71-.97,6.02-.64,1.3-1.66,2.19-3.07,2.67-1.41.48-4.3.72-8.67.72h-12.55V15.01h0ZM184.39,21.84v8.91c.46-.02.81-.03,1.07-.03,1.04,0,1.71-.25,1.99-.75.29-.5.43-1.95.43-4.32,0-1.26-.11-2.13-.35-2.64-.24-.5-.55-.82-.93-.95-.38-.13-1.12-.2-2.21-.22h0ZM184.39,36.98v11.24c1.5-.05,2.46-.28,2.87-.69.42-.41.62-1.43.62-3.06v-3.75c0-1.72-.19-2.76-.56-3.13-.37-.36-1.35-.57-2.93-.62Z"/>
      <path class="cls-2" d="M204.92,15.01h10.95c2.96,0,5.24.22,6.83.66,1.59.45,2.78,1.09,3.58,1.92.81.85,1.34,1.87,1.63,3.06.29,1.2.42,3.05.42,5.55v3.48c0,2.55-.27,4.41-.83,5.58-.55,1.18-1.56,2.08-3.02,2.7-1.47.62-3.39.94-5.76.94h-2.91v16.15h-10.89V15.01h0ZM215.81,21.84v10.2c.31.02.57.03.8.03.99,0,1.68-.24,2.07-.71.38-.46.57-1.44.57-2.93v-3.3c0-1.37-.22-2.26-.66-2.68-.45-.41-1.37-.62-2.77-.62Z"/>
    </g>
    <g>
      <polygon class="cls-2" points="123.61 65.01 123.61 72.42 125.13 72.42 125.13 74.27 121.1 74.27 121.1 65.01 123.61 65.01"/>
      <polygon class="cls-2" points="125.74 65.01 129.93 65.01 129.93 66.86 128.26 66.86 128.26 68.63 129.82 68.63 129.82 70.38 128.26 70.38 128.26 72.42 130.1 72.42 130.1 74.27 125.74 74.27 125.74 65.01"/>
      <path class="cls-2" d="M136.57,68.43h-2.52v-.84c0-.53-.02-.86-.07-.99-.05-.14-.16-.2-.33-.2-.15,0-.25.06-.31.17-.06.11-.08.41-.08.88v4.44c0,.41.03.69.08.82.06.13.16.2.33.2.18,0,.3-.07.36-.22.06-.15.1-.44.1-.87v-1.1h-.49v-1.4h2.93v4.96h-1.58l-.23-.66c-.17.29-.39.5-.64.65-.26.14-.57.22-.92.22-.42,0-.81-.1-1.18-.29-.37-.2-.65-.44-.83-.73-.19-.29-.31-.59-.36-.91-.05-.32-.07-.8-.07-1.43v-2.75c0-.88.05-1.53.15-1.92.1-.4.38-.77.86-1.1.47-.33,1.08-.5,1.83-.5s1.34.14,1.83.43c.48.29.8.63.95,1.03.15.4.22.98.22,1.74v.4Z"/>
      <path class="cls-2" d="M141.89,65.01l1.44,9.26h-2.57l-.13-1.66h-.91l-.14,1.66h-2.6l1.27-9.26h3.63ZM140.55,70.97c-.12-1.05-.25-2.35-.38-3.9-.25,1.78-.4,3.08-.47,3.9h.85Z"/>
      <polygon class="cls-2" points="146.27 65.01 146.27 72.42 147.79 72.42 147.79 74.27 143.76 74.27 143.76 65.01 146.27 65.01"/>
      <path class="cls-2" d="M156.42,69.05h-2.52v-1.61c0-.47-.03-.76-.08-.88-.05-.11-.17-.17-.35-.17-.2,0-.33.07-.39.21-.05.14-.08.45-.08.91v4.29c0,.45.03.74.08.88.06.14.18.2.37.2s.31-.07.36-.21c.06-.14.09-.46.09-.97v-1.16h2.52v.36c0,.96-.07,1.64-.21,2.04-.14.4-.45.75-.94,1.06-.48.3-1.08.45-1.79.45s-1.34-.13-1.82-.38c-.48-.26-.79-.61-.95-1.06-.16-.45-.23-1.13-.23-2.04v-2.7c0-.67.02-1.17.07-1.5.05-.33.19-.66.43-.96.24-.31.56-.55.98-.73.42-.18.9-.27,1.45-.27.74,0,1.35.14,1.83.41.48.27.8.61.95,1.02.15.41.23,1.05.23,1.91v.88Z"/>
      <path class="cls-2" d="M163.05,70.44c0,.93-.02,1.59-.07,1.97-.04.39-.19.74-.43,1.06-.24.32-.57.57-.98.74-.41.17-.89.26-1.43.26s-.98-.08-1.39-.24c-.41-.16-.74-.4-.99-.73-.25-.32-.4-.68-.45-1.06-.05-.38-.07-1.05-.07-2v-1.58c0-.93.02-1.59.07-1.97.04-.39.19-.74.43-1.06s.57-.57.98-.74c.41-.17.89-.26,1.43-.26s.98.08,1.39.24c.41.16.74.4.99.73.25.32.4.68.45,1.06.05.38.07,1.05.07,2v1.58h0ZM160.54,67.4c0-.43-.02-.7-.07-.82-.05-.12-.15-.18-.3-.18-.13,0-.23.05-.3.15-.07.1-.1.38-.1.86v4.32c0,.54.02.87.07.99.04.13.15.19.31.19s.28-.07.32-.22c.05-.14.07-.49.07-1.03v-4.25Z"/>
      <path class="cls-2" d="M171.74,65.01v9.26h-2.2v-6.25s-.88,6.25-.88,6.25h-1.54l-.92-6.11v6.11h-2.21v-9.26h3.25c.09.56.19,1.22.3,1.97l.36,2.35.57-4.32h3.27Z"/>
      <path class="cls-2" d="M180.5,65.01v9.26h-2.2v-6.25s-.88,6.25-.88,6.25h-1.54l-.92-6.11v6.11h-2.21v-9.26h3.25c.09.56.19,1.22.3,1.97l.36,2.35.57-4.32h3.27Z"/>
      <rect class="cls-3" x="181.51" y="65.01" width="2.52" height="9.26"/>
      <path class="cls-2" d="M190.35,67.82h-2.33v-.68c0-.32-.03-.52-.09-.61-.06-.09-.16-.13-.3-.13-.15,0-.27.06-.34.18-.08.12-.12.29-.12.53,0,.31.04.54.13.7.09.15.32.34.71.57,1.11.64,1.82,1.16,2.11,1.57.29.41.44,1.06.44,1.97,0,.66-.08,1.15-.24,1.46-.16.31-.47.57-.93.78-.46.21-1,.32-1.61.32-.67,0-1.24-.12-1.72-.37-.48-.24-.78-.55-.93-.93-.15-.38-.22-.91-.22-1.61v-.61h2.33v1.13c0,.35.03.57.1.67.06.1.18.15.35.15s.29-.06.37-.19c.08-.12.12-.31.12-.56,0-.54-.08-.9-.23-1.07-.16-.17-.55-.45-1.17-.84-.62-.4-1.03-.68-1.24-.86-.2-.18-.37-.43-.5-.74-.13-.32-.2-.72-.2-1.21,0-.71.09-1.23.28-1.55.19-.33.49-.58.91-.77.42-.19.93-.28,1.53-.28.65,0,1.2.1,1.67.3.46.2.76.46.91.76.15.31.22.83.22,1.56v.37Z"/>
      <path class="cls-2" d="M196.67,67.82h-2.33v-.68c0-.32-.03-.52-.09-.61-.06-.09-.16-.13-.3-.13-.15,0-.27.06-.34.18-.08.12-.12.29-.12.53,0,.31.04.54.13.7.09.15.32.34.71.57,1.11.64,1.82,1.16,2.11,1.57.29.41.44,1.06.44,1.97,0,.66-.08,1.15-.24,1.46-.16.31-.47.57-.93.78-.46.21-1,.32-1.61.32-.67,0-1.24-.12-1.72-.37-.48-.24-.78-.55-.93-.93-.15-.38-.22-.91-.22-1.61v-.61h2.33v1.13c0,.35.03.57.1.67.06.1.18.15.35.15s.29-.06.37-.19c.08-.12.12-.31.12-.56,0-.54-.08-.9-.23-1.07-.16-.17-.55-.45-1.17-.84-.62-.4-1.03-.68-1.24-.86-.2-.18-.37-.43-.5-.74-.13-.32-.2-.72-.2-1.21,0-.71.09-1.23.28-1.55.19-.33.49-.58.91-.77.42-.19.93-.28,1.53-.28.65,0,1.2.1,1.67.3.46.2.76.46.91.76.15.31.22.83.22,1.56v.37Z"/>
      <rect class="cls-3" x="197.67" y="65.01" width="2.52" height="9.26"/>
      <path class="cls-2" d="M206.92,70.44c0,.93-.02,1.59-.07,1.97-.04.39-.19.74-.43,1.06-.24.32-.57.57-.98.74-.41.17-.89.26-1.43.26s-.98-.08-1.39-.24c-.41-.16-.74-.4-.99-.73-.25-.32-.4-.68-.45-1.06-.05-.38-.07-1.05-.07-2v-1.58c0-.93.02-1.59.07-1.97.04-.39.19-.74.43-1.06.24-.32.57-.57.98-.74.41-.17.89-.26,1.43-.26s.98.08,1.39.24c.41.16.74.4.99.73.25.32.4.68.45,1.06.05.38.07,1.05.07,2v1.58h0ZM204.4,67.4c0-.43-.02-.7-.07-.82-.05-.12-.15-.18-.3-.18-.13,0-.23.05-.3.15-.07.1-.1.38-.1.86v4.32c0,.54.02.87.07.99.04.13.15.19.31.19s.28-.07.32-.22c.05-.14.07-.49.07-1.03v-4.25Z"/>
      <polygon class="cls-2" points="213.47 65.01 213.47 74.27 211.27 74.27 209.97 70.06 209.97 74.27 207.86 74.27 207.86 65.01 209.97 65.01 211.37 69.18 211.37 65.01 213.47 65.01"/>
      <path class="cls-2" d="M222.36,70.44c0,.93-.02,1.59-.07,1.97-.05.39-.19.74-.43,1.06-.24.32-.57.57-.98.74-.41.17-.89.26-1.43.26s-.98-.08-1.39-.24c-.41-.16-.74-.4-.99-.73-.25-.32-.4-.68-.45-1.06-.05-.38-.07-1.05-.07-2v-1.58c0-.93.02-1.59.07-1.97.04-.39.19-.74.43-1.06.24-.32.57-.57.98-.74.41-.17.89-.26,1.43-.26s.98.08,1.39.24c.41.16.74.4.99.73.25.32.4.68.45,1.06.05.38.07,1.05.07,2v1.58h0ZM219.85,67.4c0-.43-.03-.7-.07-.82-.05-.12-.15-.18-.3-.18-.13,0-.23.05-.3.15-.07.1-.1.38-.1.86v4.32c0,.54.02.87.07.99.04.13.15.19.31.19s.28-.07.32-.22c.05-.14.07-.49.07-1.03v-4.25Z"/>
      <polygon class="cls-2" points="228.92 65.01 228.92 74.27 226.72 74.27 225.41 70.06 225.41 74.27 223.31 74.27 223.31 65.01 225.41 65.01 226.81 69.18 226.81 65.01 228.92 65.01"/>
      <path class="cls-2" d="M122.86,77.29h2.5c.79,0,1.39.06,1.8.18.41.12.73.36.99.72.25.36.37.94.37,1.74,0,.54-.09.92-.26,1.13-.18.21-.53.38-1.05.49.58.13.98.34,1.18.63.21.29.31.74.31,1.34v.86c0,.63-.08,1.09-.22,1.39-.15.3-.38.51-.71.62-.33.11-.99.17-2,.17h-2.9v-9.26h0ZM125.38,78.87v2.06c.11,0,.19,0,.25,0,.24,0,.4-.06.46-.17.07-.12.1-.45.1-1,0-.29-.03-.49-.08-.61-.06-.12-.13-.19-.21-.22-.09-.03-.26-.05-.51-.05h0ZM125.38,82.36v2.6c.35-.01.57-.06.66-.16.1-.1.14-.33.14-.71v-.87c0-.4-.04-.64-.13-.72-.09-.08-.31-.13-.68-.14Z"/>
      <polygon class="cls-2" points="132.13 77.29 132.13 84.69 133.64 84.69 133.64 86.54 129.61 86.54 129.61 77.29 132.13 77.29"/>
      <path class="cls-2" d="M138.9,77.29l1.44,9.26h-2.57l-.14-1.66h-.91l-.14,1.66h-2.6l1.27-9.26h3.63ZM137.56,83.24c-.12-1.05-.25-2.35-.38-3.9-.25,1.78-.4,3.08-.47,3.9h.85Z"/>
      <path class="cls-2" d="M146.08,80.1h-2.33v-.68c0-.32-.03-.52-.09-.61-.06-.09-.16-.13-.3-.13-.15,0-.26.06-.34.18-.08.12-.12.29-.12.53,0,.31.05.54.13.7.09.15.32.34.71.57,1.11.64,1.82,1.16,2.11,1.57.29.41.44,1.06.44,1.97,0,.66-.08,1.15-.24,1.46-.16.31-.47.57-.93.78-.46.21-1,.32-1.61.32-.67,0-1.24-.12-1.72-.37-.48-.24-.78-.55-.93-.93-.15-.38-.22-.91-.22-1.61v-.61h2.33v1.13c0,.35.03.57.1.67.07.1.18.15.35.15s.29-.06.37-.19c.08-.12.12-.31.12-.56,0-.54-.08-.9-.23-1.07-.16-.17-.55-.45-1.17-.84-.62-.4-1.03-.68-1.24-.86-.2-.18-.37-.43-.5-.74-.13-.32-.2-.72-.2-1.21,0-.71.09-1.23.28-1.55.19-.33.49-.58.91-.77.42-.19.93-.28,1.52-.28.65,0,1.21.1,1.67.3.46.2.76.46.91.76.15.31.22.83.22,1.56v.37Z"/>
      <path class="cls-2" d="M147.08,77.29h2.53c.68,0,1.21.05,1.58.15.37.1.64.25.83.44.19.2.31.43.38.71.07.28.1.7.1,1.28v.81c0,.59-.06,1.02-.19,1.29-.13.27-.36.48-.7.62-.34.14-.78.22-1.33.22h-.67v3.73h-2.52v-9.26h0ZM149.6,78.87v2.36c.07,0,.13,0,.18,0,.23,0,.39-.06.48-.16.09-.11.13-.33.13-.68v-.76c0-.32-.05-.52-.15-.62-.1-.1-.32-.14-.64-.14Z"/>
      <polygon class="cls-2" points="158.98 77.29 158.98 86.54 156.47 86.54 156.47 82.66 155.73 82.66 155.73 86.54 153.22 86.54 153.22 77.29 155.73 77.29 155.73 80.6 156.47 80.6 156.47 77.29 158.98 77.29"/>
      <polygon class="cls-2" points="160 77.29 164.19 77.29 164.19 79.14 162.52 79.14 162.52 80.9 164.08 80.9 164.08 82.66 162.52 82.66 162.52 84.69 164.36 84.69 164.36 86.54 160 86.54 160 77.29"/>
      <path class="cls-2" d="M172.82,77.29v9.26h-2.2v-6.25s-.88,6.25-.88,6.25h-1.54l-.92-6.11v6.11h-2.2v-9.26h3.25c.09.56.19,1.22.3,1.97l.36,2.35.57-4.32h3.27Z"/>
      <path class="cls-2" d="M179.18,77.29l-1.83,5.91v3.35h-2.32v-3.35l-1.77-5.91h2.31c.36,1.81.56,3.03.61,3.65.15-.99.38-2.2.7-3.65h2.3Z"/>
      <path class="cls-2" d="M181.77,77.29h2.53c.68,0,1.21.05,1.58.15.37.1.64.25.83.44.19.2.31.43.38.71.07.28.1.7.1,1.28v.81c0,.59-.06,1.02-.19,1.29-.13.27-.36.48-.7.62-.34.14-.78.22-1.33.22h-.67v3.73h-2.52v-9.26h0ZM184.28,78.87v2.36c.07,0,.13,0,.18,0,.23,0,.39-.06.48-.16.09-.11.13-.33.13-.68v-.76c0-.32-.05-.52-.15-.62-.1-.1-.32-.14-.64-.14Z"/>
      <path class="cls-2" d="M191.93,77.29l1.44,9.26h-2.57l-.13-1.66h-.91l-.14,1.66h-2.6l1.27-9.26h3.63ZM190.6,83.24c-.12-1.05-.25-2.35-.38-3.9-.25,1.78-.4,3.08-.47,3.9h.85Z"/>
      <polygon class="cls-2" points="199.79 77.29 198.36 81.47 199.93 86.54 197.34 86.54 196.32 82.58 196.32 86.54 193.8 86.54 193.8 77.29 196.32 77.29 196.32 80.88 197.45 77.29 199.79 77.29"/>
      <rect class="cls-3" x="200.36" y="77.29" width="2.52" height="9.26"/>
      <path class="cls-2" d="M209.19,80.1h-2.33v-.68c0-.32-.03-.52-.09-.61-.06-.09-.16-.13-.3-.13-.15,0-.26.06-.34.18-.08.12-.12.29-.12.53,0,.31.04.54.13.7.09.15.32.34.71.57,1.11.64,1.82,1.16,2.11,1.57.29.41.44,1.06.44,1.97,0,.66-.08,1.15-.24,1.46-.16.31-.47.57-.93.78-.46.21-1,.32-1.61.32-.67,0-1.24-.12-1.72-.37-.47-.24-.78-.55-.93-.93-.15-.38-.22-.91-.22-1.61v-.61h2.33v1.13c0,.35.03.57.1.67.06.1.18.15.35.15s.29-.06.37-.19c.08-.12.12-.31.12-.56,0-.54-.08-.9-.23-1.07-.16-.17-.55-.45-1.17-.84-.62-.4-1.03-.68-1.24-.86-.2-.18-.37-.43-.5-.74-.13-.32-.2-.72-.2-1.21,0-.71.09-1.23.28-1.55.19-.33.49-.58.91-.77.42-.19.93-.28,1.53-.28.65,0,1.21.1,1.67.3.46.2.76.46.91.76.15.31.22.83.22,1.56v.37Z"/>
      <polygon class="cls-2" points="215.25 77.29 215.25 79.14 213.77 79.14 213.77 86.54 211.26 86.54 211.26 79.14 209.77 79.14 209.77 77.29 215.25 77.29"/>
      <path class="cls-2" d="M219.67,77.29l1.44,9.26h-2.57l-.14-1.66h-.91l-.14,1.66h-2.6l1.28-9.26h3.63ZM218.34,83.24c-.12-1.05-.25-2.35-.38-3.9-.25,1.78-.4,3.08-.47,3.9h.85Z"/>
      <polygon class="cls-2" points="227.15 77.29 227.15 86.54 224.95 86.54 223.64 82.33 223.64 86.54 221.54 86.54 221.54 77.29 223.64 77.29 225.05 81.45 225.05 77.29 227.15 77.29"/>
    </g>
    <line class="cls-4" x1="121.68" y1="60.53" x2="228.34" y2="60.53"/>
  </g>
</svg>