<?xml version="1.0" encoding="UTF-8"?>
<svg id="Layer_1" data-name="Layer 1" xmlns="http://www.w3.org/2000/svg" viewBox="0 0 280.19 100.08">
  <defs>
    <style>
      .cls-1, .cls-2, .cls-3 {
        stroke-width: 0px;
      }

      .cls-2, .cls-3 {
        fill: #54a149;
      }

      .cls-3 {
        fill-rule: evenodd;
      }
    </style>
  </defs>
  <path class="cls-2" d="m164.16,49.85s.04-.09.06-.13h0s-.04.08-.06.13Z"/>
  <g>
    <path class="cls-1" d="m248.67,45.09c-.41.65-1.1.99-1.81.99-.41,0-.8-.11-1.16-.34L183.39,5.8c-.91-.58-2.09-.58-2.99,0l-62.31,39.95c-1,.64-2.33.35-2.98-.66-.64-1-.35-2.34.66-2.98L178.07,2.17c2.32-1.48,5.32-1.48,7.65,0l62.31,39.95c1,.64,1.29,1.98.65,2.98Z"/>
    <path class="cls-1" d="m235.86,7.66v21.29c0,.92-.75,1.67-1.68,1.67s-1.67-.75-1.67-1.67V7.66c0-.29-.24-.54-.54-.54h-10.61c-.29,0-.54.24-.54.54v10.51c0,.92-.75,1.67-1.68,1.67s-1.67-.75-1.67-1.67V7.66c0-2.15,1.74-3.89,3.89-3.89h10.61c2.14,0,3.89,1.74,3.89,3.89Z"/>
  </g>
  <path class="cls-2" d="m125.54,52.79c.02-.05.05-.1.07-.14h0s-.05.09-.07.14Z"/>
  <polygon class="cls-1" points="60.47 52.79 60.47 89.01 50.4 89.01 50.4 69.02 43.56 89.01 35.14 89.01 28.25 68.86 28.25 89.01 18.18 89.01 18.18 52.79 30.36 52.79 39.45 76.32 48.34 52.79 60.47 52.79"/>
  <path class="cls-1" d="m77.07,52.79h-14.33v36.22h14.33c11.56,0,18.91-7.65,18.91-18.13s-7.34-18.09-18.91-18.09Zm4.41,5.25l-.1.42c-.04.18-.14.34-.27.47l-.21.16c-.16.12-.27.28-.32.48-.21.79-.64,3.06.08,6.1,0,0,.36,2.08-.21,4.19l-3.18,13.13s-.47,3.34-3.98,2.76l-1.57-.38-1.56-.38c-3.39-1.1-2.27-4.28-2.27-4.28l3.18-13.13c.47-2.13,1.74-3.81,1.74-3.81,2.03-2.37,2.68-4.59,2.86-5.38.04-.2.02-.41-.07-.59l-.11-.23c-.05-.17-.06-.36-.02-.54l.1-.42s.08-.73,1.2-.41l1.91.46,1.89.47c1.16.22.89.91.89.91Z"/>
  <g>
    <path class="cls-3" d="m172,58.99c1.2.72,2.73.83,4,.75,1.7-.1,3.28-.98,4.17-2.43.11-.18.21-.36.28-.53.21-.5.55-.97,1.03-1.2,1.37.08.55-.54.99-.78.44-.24,1.09-.38,1.19-.76.07-.3-.21-.51-.33-.77,1.31-.21.62-1.01.44-1.28.3-.26,1.06-.58.67-1.13-.22-.31-.93-.57-1.36-.67.09-.46.19-.77-.27-.91-1.02-.3-2.25.52-2.9,1.06-1.3,1.07-2.13,1.93-3.95,1.93-2.02,0-3.27-.76-4.51-2.29-.9-1.11-1.23-1.11-2.24-1.86.19-.74.24-1.01-.52-.77-.03-.58-.24-.7-.6-.17-.13-.09-.21-.26-.38-.21-.21.05-.15.18-.25.47-.31-.53-.57-.18-.58.14-.29-.21-.54.15-.32.43.16.2-.2.17.15.83.1.34-.25.38-.28.94.2-.12.43-.23.82-.18-.31,1.29.13,1.99.66,1.44.16,1.64-.18,3.19.7,4.68.8,1.36,2.06,2.46,3.4,3.27h0Z"/>
    <path class="cls-2" d="m173.51,89.01h-10.07v-28.83h10.07v5.09c2.16-3.13,5.45-5.34,9.3-5.34v10.74h-2.83c-4.16,0-6.47,1.34-6.47,5.75v12.59Z"/>
    <path class="cls-2" d="m224.13,73.54c0-3.13-1.9-4.88-4.78-4.88s-4.78,1.75-4.78,4.88v15.47h-10.07v-15.47c0-3.13-1.85-4.88-4.73-4.88s-4.83,1.75-4.83,4.88v15.47h-10.07v-28.83h10.07v3.8c1.64-2.31,4.47-4.06,8.38-4.06,4.32,0,7.71,1.95,9.61,5.29,1.95-2.93,5.34-5.29,9.61-5.29,7.3,0,11.66,4.73,11.66,12.28v16.8h-10.07v-15.47Z"/>
    <path class="cls-2" d="m250.04,89.01c-8.02,0-13.36-4.32-13.77-10.07h9.76c.26,1.9,1.85,2.93,3.96,2.93,1.7,0,2.67-.82,2.67-1.85,0-4.21-15.31-.77-15.31-11.36,0-5.04,4.16-9.2,11.97-9.2s11.97,4.37,12.64,10.07h-9.09c-.31-1.8-1.59-2.88-3.75-2.88-1.64,0-2.52.67-2.52,1.75,0,4.11,15.36.82,15.41,11.77,0,5.04-4.52,8.84-11.97,8.84Z"/>
    <path class="cls-2" d="m124.88,51.52h-23.11v37.49h10.25v-14.67h10.88v-7.92h-10.88v-6.59h11.13c-.4-2.52-.03-4.91,1.12-7.08.19-.41.39-.82.61-1.22Z"/>
    <path class="cls-2" d="m151.3,59.83v4c-1.49-2.57-4.37-4.37-8.48-4.37-5.43,0-9.99,3.51-11.63,9.58,1.26,2.15,2.12,4.74-.38,8.61,1.19,7.13,6.07,11.36,12.01,11.36,4.06,0,6.99-1.8,8.48-4.37v4h10.07v-28.82h-10.07Zm-2.77,15.71c-.09,3.12-1.95,5.63-5.15,5.53-3.06-.1-5.25-2.97-5.16-5.85.12-3.73,2.42-8.57,5.27-8.49,2.85.09,5.16,5.08,5.04,8.8Z"/>
    <path class="cls-2" d="m130.71,68.4c.1.11.13-.38.15-.44.1-.31.21-.63.32-.94.2-.56.42-1.11.66-1.66.43-.96.96-1.86,1.63-2.68.7-.86,1.54-1.6,2.42-2.26,2.64-1.99,5.91-2.09,9.13-1.52.67.12,1.34.27,1.99.46.06.02.8.23.8.23,1,.3,1.64-.51,1.64-.51l.5-.53c.16-.22.32-.25.32-.25.64-.18,1-.9,1-.9.21-.33.38-1.48.38-1.48.08-.88-.43-1.26-.43-1.26l-.79-.7-.88-.8c-.88-.73-1.84-2.16-1.84-2.16-.69-.92-1.12-2.33-1.12-2.33-.13-.61-.68-1.54-.68-1.54l-.71-1.07c-.36-.62-.64-.82-.64-.82l-.71-.67c.94-.52,1.46-1.4,1.46-1.4.66-1.23.18-2.49.18-2.49-.31.78-1.6,2.21-1.6,2.21-.54.45-1.15.21-1.15.21-.37-.18-.76-.23-.76-.23l-1.03-.09c.79-.77,1.07-1.51,1.07-1.51.46-1.14-.21-2.14-.21-2.14l-.18.27c-.43,1.72-2.69,2.64-2.69,2.64-2.02.83-1.32,2.68-1.32,2.68-1.03-1.16-1.84-1.6-1.84-1.6-2.09-.86-2.85.35-2.85.35-.2.54.42,1.17.42,1.17l1.27,1.28c-2.16.67-3.08.61-3.08.61,0,0-12.07,10.14-.85,21.89Z"/>
    <path class="cls-2" d="m130.95,76.17c.8-1.47.24-3.4-.56-4.74-.26-.44-.54-.87-.84-1.29-1.96-2.78-4.08-5.38-5.15-8.67-.98-3.04-.54-6.11.92-8.93.55-1.06,1.28-2.08,2.06-3.01.82-.96,1.8-1.74,2.63-2.69-1.79,2.07-3.26,4.39-4.23,6.88-.89,1.93-1.08,4.11-.65,6.18.61,3.03,2.52,5.84,4.36,8.4.42.65.85,1.27,1.24,1.9,1.03,1.68,1.4,3.8.22,5.96Z"/>
  </g>
</svg>