<?xml version="1.0" encoding="UTF-8"?>
<svg id="Layer_1" data-name="Layer 1" xmlns="http://www.w3.org/2000/svg" viewBox="0 0 336.88 100.08">
  <defs>
    <style>
      .cls-1 {
        letter-spacing: .65em;
      }

      .cls-2 {
        letter-spacing: .63em;
      }

      .cls-3 {
        fill: #444445;
      }

      .cls-3, .cls-4 {
        stroke-width: 0px;
      }

      .cls-5 {
        fill: #414141;
        font-family: BentonSansCond-Bold, 'BentonSansCond Bold';
        font-size: 23.35px;
        font-weight: 700;
      }

      .cls-4 {
        fill: #f27f3c;
      }

      .cls-6 {
        letter-spacing: .66em;
      }

      .cls-7 {
        letter-spacing: .65em;
      }
    </style>
  </defs>
  <text class="cls-5" transform="translate(112.71 93.19)"><tspan class="cls-6" x="0" y="0">R</tspan><tspan class="cls-1" x="27.88" y="0">OB</tspan><tspan class="cls-2" x="87.13" y="0">O</tspan><tspan class="cls-7" x="117.89" y="0">TICS</tspan></text>
  <path class="cls-3" d="m52.1,84.18l-.05.11c.14-.04.29-.08.44-.11h-.39Z"/>
  <path class="cls-3" d="m3.11,47.91c.73,2.95,1.42,5.91,2.05,8.89.2.93.64,1.18,1.54,1.13,2.99-.17,6-.25,9-.42.88-.06,1.45.23,1.94.96,1.23,1.86,2.51,3.68,3.8,5.49.47.65.48,1.23.18,1.97-1.13,2.78-2.19,5.59-3.31,8.37-.33.8-.19,1.28.56,1.73,2.64,1.6,5.24,3.24,7.84,4.89.7.45,1.18.36,1.73-.25,1.88-2.09,3.82-4.14,5.68-6.26.68-.78,1.37-1.08,2.42-.86,2.25.47,4.51.85,6.78,1.22.79.13,1.23.5,1.54,1.23,1.09,2.59,2.28,5.15,3.35,7.76.06.15.13.28.19.4h3.69l6.02-11.69c-.23-.67-.4-1.36-.51-2.07h0s-12.54-14.85-12.54-14.85l-.53-.63-.25-.3c-1.61-.09-3.22-.54-4.84-1.38-4.19-2.19-6.61-6.84-6.04-11.72.53-4.65,4.03-8.69,8.5-9.83,2.12-.54,4.16-.57,6.12-.03l.38-.19,19.94-10.26c-.21-.55-.17-1.11.11-1.78,1.08-2.59,2.06-5.24,3.13-7.85.33-.8.2-1.28-.56-1.74-2.63-1.59-5.24-3.23-7.83-4.89-.69-.44-1.17-.38-1.72.23-2.01,2.24-4.08,4.41-6.07,6.66-.56.62-1.1.88-1.94.73-2.15-.38-4.31-.73-6.48-1-.93-.12-1.45-.55-1.81-1.38-1.13-2.7-2.35-5.36-3.46-8.07-.41-.99-.92-1.23-1.95-.96-2.88.73-5.77,1.38-8.67,1.99-.92.19-1.2.61-1.14,1.53.18,3.07.26,6.15.43,9.22.04.83-.17,1.39-.88,1.88-1.77,1.22-3.5,2.49-5.24,3.77-.59.44-1.14.53-1.85.24-2.85-1.15-5.74-2.22-8.57-3.4-1.03-.43-1.59-.26-2.17.71-1.45,2.46-2.97,4.88-4.54,7.27-.6.91-.59,1.5.28,2.25,2.27,1.97,4.43,4.05,6.67,6.06.68.61.91,1.23.73,2.15-.41,2.07-.75,4.15-1.08,6.25-.11.74-.46,1.17-1.15,1.47-2.89,1.23-5.77,2.54-8.67,3.75-.83.34-1.02.78-.81,1.63"/>
  <g>
    <rect class="cls-4" x="46.6" y="86.18" width="46.73" height="7"/>
    <path class="cls-4" d="m69.96,57.97c-4.29,0-7.98,2.58-9.61,6.26-.58,1.3-.89,2.74-.89,4.25,0,1.06.16,2.09.45,3.05,1.3,4.31,5.31,7.45,10.05,7.45,5.81,0,10.51-4.7,10.51-10.5s-4.7-10.51-10.51-10.51Zm0,17.67c-3.52,0-6.46-2.54-7.05-5.91-.08-.41-.11-.83-.11-1.25,0-.26,0-.52.04-.77.38-3.59,3.42-6.4,7.11-6.4,3.95,0,7.16,3.21,7.16,7.16s-3.21,7.16-7.16,7.16Z"/>
    <circle class="cls-4" cx="69.97" cy="68.48" r="3.92"/>
    <path class="cls-4" d="m54.82,41.41c-.58-3.74-3.22-6.79-6.73-7.95-.83-.28-1.7-.44-2.61-.48-.18,0-.35-.02-.53-.02-5.51,0-9.98,4.47-9.98,9.98,0,2.53.94,4.85,2.49,6.61,1.55,1.76,3.72,2.96,6.16,3.29.41.06.82.09,1.24.09h.08c2.13,0,4.1-.67,5.71-1.8,1.63-1.13,2.89-2.74,3.61-4.6.43-1.11.66-2.32.66-3.58,0-.53-.03-1.03-.12-1.53Zm-16.67,1.53c0-3.75,3.05-6.81,6.81-6.81.93,0,1.8.18,2.6.52,2.47,1.03,4.2,3.45,4.2,6.29,0,3.61-2.81,6.56-6.36,6.79-.14.02-.29.02-.44.02-3.75,0-6.81-3.04-6.81-6.81Z"/>
    <path class="cls-4" d="m41.23,42.95c0,2.06,1.67,3.72,3.72,3.72.33,0,.66-.04.97-.13,1.59-.42,2.76-1.87,2.76-3.59,0-1.29-.66-2.42-1.65-3.09-.59-.4-1.31-.63-2.07-.63-2.06,0-3.72,1.67-3.72,3.72Z"/>
    <path class="cls-4" d="m79.25,15.6c-2.3,0-4.33,1.13-5.57,2.87-.81,1.12-1.28,2.5-1.28,3.99,0,2.11.96,4,2.46,5.26l.8.58c1.05.64,2.28,1.02,3.59,1.02.18,0,.37,0,.55-.02,1.34-.11,2.57-.6,3.58-1.37,1.31-.98,2.25-2.43,2.59-4.09.09-.44.14-.9.14-1.38,0-3.79-3.07-6.86-6.86-6.86Zm0,2.19c2.58,0,4.67,2.09,4.67,4.67s-2.09,4.67-4.67,4.67-4.67-2.09-4.67-4.67,2.09-4.67,4.67-4.67Z"/>
    <path class="cls-4" d="m76.69,22.46c0,1.41,1.14,2.56,2.56,2.56s2.56-1.14,2.56-2.56-1.14-2.56-2.56-2.56-2.56,1.14-2.56,2.56Z"/>
    <path class="cls-4" d="m46.6,54.27l.2.24.22.26,10.18,12.07c.34-1.87.92-3.43,1.62-4.74,3.31-6.1,9.6-6.59,9.6-6.59l-11.77-9.92-.41-.35-.27-.23c-.04.17-.07.33-.12.49-1.86,7.3-9.25,8.78-9.25,8.78Z"/>
    <path class="cls-4" d="m54.22,84.43h31.5l-.13-.26-4.4-8.54c-10.12,11-18.6,4.13-21.43,1.16-.65-.69-1.01-1.16-1.01-1.16l-4.14,8.04-.25.5-.13.26Z"/>
    <path class="cls-4" d="m49.89,32.96c5.5,1.97,6.11,7.78,6.17,9.5.01.31,0,.48,0,.48l.32-.21.31-.21.23-.15,18.27-12.04.41-.27.45-.3c-.29-.13-.56-.28-.82-.43-.57-.34-1.06-.73-1.47-1.14h0c-2.64-2.65-2.27-6.35-2.27-6.35l-1.13.58-.88.46-18.68,9.61-.33.17-.59.3Z"/>
    <path class="cls-4" d="m78.09,30.51l.38.77,2.54,5.09,1.64-.66,1.98,4.46,3.51,7.93-1.26.56c-1,.45-1.46,1.62-1.01,2.62l1.08,2.44-1.83,4.98,4.94,4.2c.31.26.76-.1.56-.46l-2.4-4.31,1.08-3.59,1.1-2.51c.5-1.13,1.82-1.66,2.96-1.17l5.71,2.45,1.58,4.68c.13.39.7.3.71-.1l.2-6.49-5.06-2.04-1.04-2.34c-.45-1-1.62-1.46-2.62-1.01l-1.52.68-5.26-11.85h0s-.19-.42-.19-.42l.08-.03,1.59-.64-1.91-5.16-.27-.73c-.23.3-.47.56-.72.8-2.27,2.17-5.11,2.05-6.15,1.92-.26-.03-.4-.07-.4-.07Z"/>
  </g>
  <g>
    <path class="cls-3" d="m143.46,13.27c-2.74,0-4.98,2.02-4.98,4.52l-.04,28.65c0,2-.42,3.72-1.26,5.14-.84,1.43-1.94,2.5-3.34,3.23-1.41.73-2.98,1.08-4.73,1.08-1.7,0-3.27-.38-4.68-1.1-1.42-.74-2.53-1.81-3.35-3.25-.83-1.42-1.24-3.14-1.24-5.14v-1.13c0-1.43-.39-2.5-1.18-3.23-.8-.74-1.96-1.1-3.46-1.1-1.63,0-2.86.36-3.69,1.09-.83.72-1.26,1.8-1.26,3.22v1.84c0,3.17.78,6.12,2.35,8.85,1.58,2.73,3.78,4.9,6.61,6.52,2.82,1.62,6.04,2.42,9.63,2.43,3.67,0,6.93-.7,9.78-2.12-.22-.66-.33-1.38-.33-2.12,0-.9.17-1.81.5-2.72l.06-.16,9.54-18.3.04-21.68c0-2.49-2.22-4.53-4.97-4.53Z"/>
    <path class="cls-3" d="m326.55,14.71c-.93-.74-2.32-1.11-4.13-1.12-1.79,0-3.15.37-4.1,1.11-.94.73-1.42,1.83-1.42,3.29l-.11,42.75c0,1.46.46,2.56,1.39,3.32.94.75,2.3,1.13,4.1,1.13s3.15-.37,4.11-1.13c.96-.75,1.44-1.85,1.44-3.31l.11-42.75c0-1.45-.46-2.55-1.4-3.29Z"/>
    <path class="cls-3" d="m190.98,55.74l1.66-2.52-20.51-37.52c-.31-.81-.84-1.42-1.58-1.82-.74-.4-1.63-.61-2.67-.61s-1.97.2-2.71.6c-.74.4-1.26,1.02-1.58,1.85l-15.22,29.19-7.24,13.88c-.23.65-.35,1.27-.35,1.87,0,.27.02.54.06.79.15.85.54,1.58,1.19,2.19.85.79,1.95,1.19,3.33,1.19.94,0,1.78-.2,2.54-.6.75-.4,1.22-.93,1.71-1.71l5.22-8.9,27.21.03,5.31,8.78c.46.82.82,1.44,1.56,1.85.7.38,1.46.58,2.3.6-1.17-1.27-1.78-2.94-1.78-4.81,0-1.38.51-2.85,1.53-4.34Zm-33.44-10.84l10.31-19.93,10.19,19.96-20.51-.03Z"/>
    <path class="cls-3" d="m228.64,21.15l-23.32,34.44,18.92.04-1.14,2.17-.06.16c-.33.92-.5,1.83-.5,2.71,0,1.48.44,2.83,1.3,3.96l-26.45-.05h-.98c-.79,0-1.48-.15-2.08-.44-.45-.21-.84-.48-1.17-.84-.8-.84-1.2-1.92-1.2-3.22,0-.89.37-1.87,1.1-2.96l.95-1.44,1.56-2.35,20.43-30.76-18.26-.04c-1.63,0-2.87-.39-3.72-1.15-.84-.77-1.26-1.9-1.26-3.38,0-1.46.44-2.57,1.32-3.33.88-.76,2.16-1.14,3.86-1.14l27.49.05c1.34,0,2.4.43,3.18,1.31.79.86,1.18,1.92,1.18,3.18,0,1.01-.38,2.03-1.14,3.07Z"/>
    <path class="cls-3" d="m271.13,60.14l.04-17.42-14.77-26.99c-.31-.81-.83-1.41-1.58-1.82-.74-.41-1.63-.62-2.67-.62s-1.96.2-2.7.6c-.74.41-1.26,1.02-1.58,1.85l-19.61,37.61-1.22,2.34-1.62,3.12c-.24.66-.36,1.27-.36,1.87,0,1.19.42,2.18,1.26,2.98.37.36.81.63,1.29.82.6.24,1.28.37,2.04.37.94,0,1.78-.2,2.53-.6.1-.05.2-.11.3-.17.59-.38,1-.86,1.42-1.54l5.23-8.9,27.2.03,4.98,8.22c-.12-.53-.18-1.11-.18-1.76Zm-29.31-15.21l10.31-19.94,10.19,19.96-20.51-.02Z"/>
    <path class="cls-3" d="m308.34,37.54c1.42-2.2,2.12-4.69,2.13-7.44v-.16c.02-5.69-1.83-9.87-5.54-12.58-3.71-2.7-8.74-4.05-15.1-4.06l-11.09-.02c-1.63,0-2.87.37-3.73,1.13-.86.75-1.29,1.87-1.3,3.34l-.05,24.34-.02,5.18-.02,12.87c0,1.46.41,2.56,1.25,3.32.71.62,1.7.99,2.96,1.1.25.02.51.03.78.03,1.58,0,2.8-.35,3.66-1.06.03-.02.06-.04.08-.06.88-.75,1.31-1.85,1.32-3.31l.03-13.52,6.91.02c1.98.02,3.62.49,4.92,1.37,1.3.9,2.14,2.09,2.51,3.6l2.2,9.66c.22,1.17.74,2.06,1.56,2.7.81.62,1.87.93,3.17.94,1.66,0,2.9-.36,3.74-1.1.85-.74,1.27-1.81,1.27-3.22,0-.42-.04-.86-.13-1.32l-1.8-8.93c-.29-1.51-.9-2.86-1.84-4.1-.94-1.22-2.12-2.27-3.54-3.16,2.35-1.5,4.23-3.36,5.64-5.56Zm-7.97-6.83c0,1.53-.39,2.87-1.18,4-.78,1.14-1.85,2.03-3.18,2.66-1.34.62-2.79.93-4.36.93l-7.92-.02.03-15.99,7.02.02c6.41,0,9.61,2.63,9.59,7.85v.55Z"/>
  </g>
</svg>