<?xml version="1.0" encoding="UTF-8"?>
<svg id="Layer_1" data-name="Layer 1" xmlns="http://www.w3.org/2000/svg" viewBox="0 0 275.78 100.08">
  <defs>
    <style>
      .cls-1, .cls-2 {
        stroke-width: 0px;
      }

      .cls-2 {
        fill: #ca2127;
      }
    </style>
  </defs>
  <path class="cls-1" d="m134.05,1.05c-.09.22-2.28,5.79-5.98,13.55-1.95,2.12-4.14,4.04-6.49,5.71-3.21,2.28-6.78,4.06-10.6,5.09,5.57-1.06,10.78-3.62,15.28-7.09-1.91,3.84-4.11,8.04-6.55,12.3-.96.74-1.96,1.44-2.98,2.1-3.32,2.11-6.97,3.73-10.84,4.57,4.39-.61,8.61-2.15,12.47-4.35-1.94,3.27-4.01,6.53-6.19,9.66-.9.59-1.83,1.14-2.78,1.66-3.45,1.88-7.21,3.24-11.12,3.82,4.28-.3,8.46-1.48,12.35-3.3-7.78,10.65-16.79,19.22-25.93,19.84,0,0,0,0-.01,0-.02,0-.04,0-.05,0-.22.01-.42-.1-.63-.32-.37-.37-.75-.74-1.17-1.04-.22-.16-.6-.3-.82-.21-.18.07-.3.49-.31.75-.03,2.81.07,5.61,1.1,8.28.03.07.02.15.02.2-1.18-.69-2.35-1.37-3.62-2.1-.52,1-1.19,1.72-.75,3.03,1.93,5.75,3.73,11.53,5.56,17.31.25.78.53,2.51.49,2.51-.51,1.04-1.11,1.38-2.61,2.39-.66.35-1.25.66-1.91,1.01-.14.07-.3,0-.33-.16-.75-4.41-2.75-19.41-2.8-19.41.42,5.79,1.44,14.54,2.15,19.67.02.1-.04.2-.14.24l-1.93.7c-.13.04-.27-.04-.3-.17-.5-3.02-1.51-15.28-2.28-19.02.13,1.05,1.23,15.91,1.61,18.96.06.48.05.54-.41.71-.52.25-1.08.41-1.7.62-.13.04-.26-.04-.28-.17-.63-4.19-1.99-19.17-2.04-19.17.2,4.4,1.2,18.16,1.28,19.35,0,.1-.05.19-.15.22-.84.26-3.98.37-4.94.13-.11-.03-.18-.13-.17-.25.16-1.8.22-2.29.34-3.78.23-3.2.69-13.05.93-16.25-.66,4.34-1.32,15.33-1.98,19.74-.02.14-.17.23-.3.18-.68-.24-1.3-.46-1.98-.7-.1-.04-.17-.14-.15-.25.58-4.42,1.66-19.86,1.61-19.86-.74,4.26-1.47,15.18-2.22,19.55-.02.14-.16.22-.29.18-.64-.22-1.25-.43-1.92-.66-.11-.04-.18-.15-.16-.26.7-4.27,1.99-19.38,1.94-19.39-.85,4.1-1.7,14.86-2.59,19.14-.03.15-.2.22-.33.15-.65-.35-1.23-.66-1.85-.99-1.4-.82-2.01-1.05-3-2.43,1.52-4.78,3-9.43,4.48-14.08.61-1.91,1.21-3.82,1.88-5.71.27-.76.31-1.41-.24-2.05-.21-.24-.35-.54-.58-.93-1.2.69-2.36,1.36-3.62,2.09.11-.32.22-.6.3-.88.77-2.58.93-5.24.9-7.91,0-.51-.27-.67-.68-.45-.11.06-.21.12-.31.19l-.02.12c-.42.3-.81.66-1.17,1.04-.21.22-.41.34-.63.32-.02,0-.04,0-.05,0,0,0,0,0-.01,0-9.14-.62-18.15-9.19-25.93-19.84.55.26,1.1.5,1.65.73.94.39,1.89.73,2.85,1.04.34.11.68.21,1.02.31,2.22.64,4.51,1.06,6.82,1.22-2.47-.36-4.87-1.04-7.18-1.96-1.35-.54-2.67-1.16-3.94-1.86-.95-.52-1.88-1.07-2.78-1.66-2.18-3.13-4.25-6.39-6.19-9.66.89.51,1.8.98,2.73,1.41,3.09,1.44,6.36,2.46,9.74,2.93-3.86-.84-7.52-2.45-10.84-4.57-.02-.01-.04-.03-.06-.04-1-.64-1.98-1.33-2.92-2.06-2.45-4.26-4.65-8.46-6.55-12.3,1.34,1.04,2.75,1.99,4.21,2.85,3.43,2.02,7.16,3.49,11.07,4.24-3.82-1.03-7.39-2.82-10.6-5.09-.76-.54-1.51-1.11-2.23-1.7-1.51-1.24-2.94-2.58-4.26-4.01C8.72,6.95,6.52,1.39,6.44,1.17l.09.09.63.64c1.49,2.08,3.18,3.88,5.01,5.49.05.04.1.09.15.13.73.65,1.49,1.26,2.26,1.85,4.18,3.16,8.96,5.5,13.86,7.66l6.69,3.85c1.46,1.1,2.52,2.72,3.77,4.09.72.78,1.48,1.54,2.29,2.36-.91-.24-1.71-.49-2.52-.64-.75-.14-1.48-.05-1.98.48-.13.12-.25.28-.36.46-.53.93-.65,1.85.06,2.83.29.4.59.79.9,1.16.06.07.11.13.17.2.06.07.12.14.18.21,1.94,2.23,4.28,3.96,6.9,5.34.86.45,1.76.8,2.7,1.04.52.14,1.06.27,1.61.39.02,0,.03,0,.05.01,3.29.79,6.54,1.24,9.21,1.51.02,0,.03,0,.05,0,.96.1,1.84.17,2.62.23.42.03.81.06,1.16.09.19,0,.37,0,.62,0,.08-1.19.21-2.33.23-3.48.04-2.56.76-5.08,2.33-7.13.55-.71,1.16-1.39,1.86-1.95.69-.55,1.31-.77,2.18-.83.73-.05,1.43-.04,2.09.03.4.04.79.17,1.18.35,1.79.86,3.27,2.95,3.27,2.95.93.56,1.11.83,1.11.83.32.26.52.55.66.83.33.67.24,1.26.24,1.26-.23,1.44-1.37,2.26-1.37,2.26l-.15.02v-.13c.57-.98.45-1.16.45-1.16l-1.24.04c-.44-.17-.57-.1-.57-.1-.88.01-1.11.36-1.11.36-.33.25-.59.56-.79.87-.31.49-.38,1.09-.21,1.64.28.9.68,1.63,1.03,2.68.06.17.35.36.54.37.88.06,1.73-.11,2.66.26.75.31,1.78-.02,2.68-.11,2.78-.28,9.04-1.02,13.58-2.21.93-.25,1.84-.59,2.7-1.04,3.17-1.67,5.93-3.85,8.08-6.82.68-.95.55-1.87.06-2.78-.48-.9-1.36-1.07-2.28-.9-.88.16-1.73.43-2.74.7.9-.92,1.73-1.74,2.52-2.6,1.26-1.37,2.32-2.99,3.77-4.09l6.69-3.85c4.9-2.17,9.68-4.51,13.86-7.66,2.65-2,5.07-4.34,7.12-7.17l1.02-1.03Z"/>
  <g>
    <path class="cls-1" d="m118.8,78.15h-4.62l-2.98-5.64c-.11-.21-.23-.6-.35-1.16h-.05c-.06.27-.19.67-.4,1.21l-2.99,5.59h-4.65l5.52-8.66-5.05-8.66h4.74l2.47,5.19c.19.41.37.9.52,1.46h.05c.1-.34.28-.84.54-1.51l2.75-5.14h4.35l-5.19,8.58,5.34,8.73Z"/>
    <path class="cls-1" d="m140.74,78.15h-4.93l-5.05-7.52c-.1-.15-.25-.46-.46-.95h-.06v8.47h-3.9v-17.31h3.9v8.18h.06c.1-.23.26-.55.48-.97l4.78-7.22h4.65l-6.04,8.26,6.56,9.05Z"/>
    <path class="cls-1" d="m161.6,78.15h-4.48l-2.69-4.45c-.2-.34-.39-.64-.58-.91s-.37-.49-.56-.68-.39-.33-.59-.43-.43-.15-.67-.15h-1.05v6.63h-3.9v-17.31h6.18c4.2,0,6.3,1.57,6.3,4.71,0,.6-.09,1.16-.28,1.67s-.45.97-.78,1.38-.75.76-1.23,1.06c-.48.3-1.01.53-1.6.7v.05c.26.08.51.21.75.39s.47.39.7.63.44.5.65.78c.21.28.39.55.56.81l3.27,5.12Zm-10.62-14.39v4.82h1.69c.84,0,1.51-.24,2.02-.72.52-.49.77-1.1.77-1.82,0-1.51-.91-2.27-2.72-2.27h-1.76Z"/>
    <path class="cls-1" d="m182.01,60.84l-5.64,11.15v6.16h-3.9v-6.08l-5.49-11.23h4.45l2.79,6.46c.05.12.18.59.4,1.41h.05c.1-.58.23-1.03.37-1.36l2.84-6.51h4.13Z"/>
    <path class="cls-1" d="m193.37,72.19v5.96h-3.9v-17.31h6.11c4.36,0,6.54,1.84,6.54,5.52,0,1.74-.63,3.14-1.88,4.22-1.25,1.07-2.92,1.61-5.02,1.61h-1.86Zm0-8.35v5.4h1.53c2.08,0,3.11-.91,3.11-2.73s-1.04-2.67-3.11-2.67h-1.53Z"/>
    <path class="cls-1" d="m223.41,64.02h-4.94v14.14h-3.91v-14.14h-4.91v-3.17h13.76v3.17Z"/>
    <path class="cls-1" d="m257.54,77.19v-3.86c.7.59,1.46,1.03,2.28,1.32.82.29,1.65.44,2.49.44.49,0,.92-.04,1.29-.13s.67-.21.92-.37c.25-.16.43-.34.55-.56.12-.21.18-.44.18-.69,0-.34-.1-.64-.29-.91s-.46-.51-.79-.74c-.33-.23-.73-.44-1.19-.65-.46-.21-.95-.42-1.48-.64-1.35-.56-2.36-1.25-3.02-2.06s-1-1.79-1-2.95c0-.9.18-1.68.54-2.32.36-.65.85-1.18,1.48-1.6.62-.42,1.35-.73,2.17-.92.82-.2,1.69-.3,2.61-.3s1.7.05,2.4.16c.7.11,1.34.28,1.93.5v3.61c-.29-.2-.61-.38-.95-.53-.34-.15-.69-.28-1.06-.38-.36-.1-.72-.17-1.08-.22-.36-.05-.7-.07-1.02-.07-.44,0-.84.04-1.21.13-.36.08-.67.2-.92.36-.25.15-.44.34-.58.55-.14.21-.21.45-.21.72,0,.29.08.55.23.78.15.23.37.45.65.65.28.21.62.41,1.03.6.4.2.86.4,1.36.61.69.29,1.31.6,1.87.92.55.33,1.02.69,1.42,1.1.39.41.7.88.91,1.41.21.53.31,1.14.31,1.84,0,.97-.18,1.78-.55,2.43-.37.66-.86,1.19-1.49,1.59-.63.41-1.36.7-2.19.88-.83.18-1.71.27-2.64.27s-1.85-.08-2.71-.24c-.86-.16-1.6-.4-2.23-.72Z"/>
    <polygon class="cls-1" points="240.42 78.15 230.87 61.61 249.97 61.61 240.42 78.15"/>
    <circle class="cls-2" cx="240.42" cy="67.42" r="6.86"/>
    <rect class="cls-1" x="102.76" y="83.04" width="166.59" height=".65"/>
  </g>
</svg>