<?xml version="1.0" encoding="UTF-8"?><svg id="uuid-b9b09ced-cf58-4b6e-9ced-6399023317ff" xmlns="http://www.w3.org/2000/svg" viewBox="0 0 294.76 100"><defs><style>.uuid-afed2803-ead4-4906-a8e3-918e2ca402f6{font-family:Roboto-Regular, Roboto;font-size:12.08px;}.uuid-67435c40-de92-4cdb-9f79-609f43130eb0{font-family:Roboto-Bold, Roboto;font-size:12.77px;font-weight:700;}</style></defs><polygon points="51.51 5.18 51.51 12.83 13.17 12.83 50.54 77.53 51.51 94.82 0 5.18 51.51 5.18"/><polygon points="53.18 5.18 53.13 12.79 91.46 12.83 54.15 77.63 53.13 94.82 104.85 5.18 53.18 5.18"/><polygon points="15.58 14.13 89.42 14.02 87.49 17.63 54.09 17.63 54.09 51.62 43.72 51.62 43.82 31.47 47.21 31.47 47.32 48.01 50.6 48.11 50.54 17.52 17.48 17.47 15.58 14.13"/><polygon points="50.23 27.67 50.23 31.03 24.97 31.03 19.45 20.8 47.19 20.8 47.41 27.34 43.89 27.27 43.75 24.32 24.61 24.25 26.4 27.56 50.23 27.67"/><polygon points="54.45 27.66 54.45 31.03 79.56 31.15 85.39 20.87 57.42 20.87 57.48 27.28 60.85 27.28 60.88 24.31 80.01 24.31 78.13 27.66 54.45 27.66"/><polygon points="57.4 31.5 60.88 31.5 60.84 57.54 43.79 57.86 43.79 54.9 57.44 54.94 57.4 31.5"/><polygon points="45.18 58.79 45.18 60.5 59.72 60.09 59.72 58.43 45.18 58.79"/><polygon points="45.18 61.7 45.18 63.4 59.72 63 59.72 61.33 45.18 61.7"/><polygon points="45.09 64.6 45.09 66.3 59.62 65.9 59.62 64.24 45.09 64.6"/><rect x="48.98" y="67.03" width="6.84" height="1.83"/><path d="m52.4,68.53c-.32,0-.58-.26-.58-.59s.26-.59.58-.59.59.26.59.59-.26.59-.59.59Zm0-1.07c-.27,0-.49.22-.49.49s.22.49.49.49.49-.22.49-.49-.22-.49-.49-.49Z"/><polygon points="51.51 69.54 53.31 69.54 52.45 85.93 51.51 69.54"/><text class="uuid-afed2803-ead4-4906-a8e3-918e2ca402f6" transform="translate(283.95 46.67) scale(1.04 1)"><tspan x="0" y="0">®</tspan></text><path d="m105.23,50.44h-6.64v-2.61h16.38v2.61h-6.64v18.18h-3.1v-18.18Z"/><path d="m134.19,59.04h-10.26v6.96h11.28l-.39,2.61h-13.91v-20.79h13.77v2.61h-10.75v5.99h10.26v2.61Z"/><path d="m143.74,62.77c.55,2.42,2.21,3.68,5.11,3.68,3.08,0,4.32-1.41,4.32-3.29,0-2.01-1.02-3.1-5.07-4.07-5.04-1.22-6.69-2.97-6.69-5.87,0-3.19,2.36-5.7,7.05-5.7,5.06,0,7.13,2.88,7.41,5.67h-3.13c-.34-1.74-1.42-3.24-4.38-3.24-2.4,0-3.76,1.07-3.76,2.95s1.12,2.59,4.71,3.45c5.95,1.44,7.05,3.74,7.05,6.45,0,3.44-2.56,6.06-7.72,6.06s-7.59-2.81-8.03-6.11h3.13Z"/><path d="m163.27,47.82h3.09v18.18h10.75l-.41,2.61h-13.43v-20.79Z"/><path d="m187.29,62.65l-2.12,5.96h-3.06l7.34-20.79h3.82l7.65,20.79h-3.28l-2.19-5.96h-8.16Zm7.41-2.61c-1.89-5.26-2.95-8.14-3.41-9.78h-.03c-.51,1.82-1.69,5.28-3.21,9.78h6.65Z"/><path d="m208.87,50.44h-6.64v-2.61h16.38v2.61h-6.64v18.18h-3.1v-18.18Z"/><path d="m237.83,59.04h-10.26v6.96h11.28l-.39,2.61h-13.91v-20.79h13.77v2.61h-10.75v5.99h10.26v2.61Z"/><path d="m262.28,62.62c-.91,3.59-3.59,6.26-8.4,6.26-6.29,0-9.42-4.71-9.42-10.59s3.15-10.76,9.55-10.76c5.02,0,7.69,2.88,8.28,6.36h-3.09c-.69-2.14-2.11-3.83-5.31-3.83-4.42,0-6.21,4.01-6.21,8.14s1.68,8.16,6.33,8.16c3.15,0,4.47-1.86,5.18-3.73h3.1Z"/><path d="m269.24,47.82h3.09v8.57h10.37v-8.57h3.09v20.79h-3.09v-9.61h-10.37v9.61h-3.09v-20.79Z"/><path d="m225.41,73.71c-1.23,1.65-2.12,3.85-2.12,6.9s.93,5.16,2.12,6.85h-1.16c-1.06-1.4-2.21-3.56-2.21-6.85.02-3.32,1.15-5.48,2.21-6.9h1.16Z"/><path d="m227.03,74.18c.71-.12,1.64-.22,2.82-.22,1.45,0,2.51.34,3.19.94.62.54.99,1.37.99,2.38s-.3,1.84-.88,2.43c-.78.83-2.04,1.25-3.47,1.25-.44,0-.84-.02-1.18-.1v4.55h-1.47v-11.23Zm1.47,5.48c.32.08.73.12,1.21.12,1.77,0,2.85-.86,2.85-2.43s-1.06-2.23-2.68-2.23c-.64,0-1.13.05-1.38.12v4.42Z"/><path d="m238.5,85.41l-3.71-11.37h1.58l1.77,5.6c.49,1.53.91,2.92,1.21,4.25h.03c.32-1.32.79-2.75,1.3-4.23l1.92-5.62h1.57l-4.06,11.37h-1.62Z"/><path d="m248.13,75.29h-3.46v-1.25h8.41v1.25h-3.47v10.12h-1.48v-10.12Z"/><path d="m254.42,87.45c1.2-1.67,2.12-3.86,2.12-6.9s-.91-5.18-2.12-6.85h1.15c1.08,1.38,2.21,3.54,2.21,6.86s-1.13,5.45-2.21,6.88h-1.15Z"/><path d="m263.73,74.04h1.47v10.14h4.86v1.23h-6.32v-11.37Z"/><path d="m272.37,75.29h-3.46v-1.25h8.41v1.25h-3.47v10.12h-1.48v-10.12Z"/><path d="m278.59,74.19c.89-.13,1.96-.24,3.12-.24,2.11,0,3.61.49,4.6,1.42,1.01.93,1.6,2.24,1.6,4.08s-.57,3.37-1.64,4.42c-1.06,1.06-2.82,1.64-5.03,1.64-1.05,0-1.92-.05-2.66-.13v-11.18Zm1.47,10.05c.37.07.91.08,1.48.08,3.14,0,4.84-1.75,4.84-4.82.02-2.68-1.5-4.38-4.6-4.38-.76,0-1.33.07-1.72.15v8.97Z"/><path d="m288.84,84.53c0-.62.42-1.06,1.01-1.06s.99.44.99,1.06-.39,1.06-1.01,1.06c-.59,0-1-.46-1-1.06Z"/><text class="uuid-67435c40-de92-4cdb-9f79-609f43130eb0" transform="translate(106.58 18.61)"><tspan x="0" y="0">©</tspan></text></svg>