<?xml version="1.0" encoding="UTF-8"?><svg id="uuid-0d4a5039-4ba6-4dad-8ad1-f567ea2ac972" xmlns="http://www.w3.org/2000/svg" viewBox="0 0 294.76 100"><defs><style>.uuid-326c95a4-1b43-4871-96e6-6229ac2c4cf6{fill:#444445;}.uuid-92d9be20-e155-4b64-9f78-b1c2ef94d809{letter-spacing:.64em;}.uuid-0182dc5d-fb44-40a4-a7eb-bf7909219c2c{letter-spacing:.65em;}.uuid-8338009e-cedd-41bb-b8e6-8244ee36fd87{letter-spacing:.65em;}.uuid-dbc65856-0f26-4105-a50f-bbf9c42caf67{fill:#414141;font-family:BentonSansCond-Bold, 'BentonSans Cond Bold';font-size:20.3px;font-weight:700;}.uuid-964097c6-f17f-4289-9490-1c7e12d2fa1c{letter-spacing:.65em;}.uuid-d6b62610-ec30-4423-9824-55d666fd094a{letter-spacing:.63em;}.uuid-8cf169fc-013d-48b6-9711-628c3002c60c{fill:#f27f3c;}</style></defs><text class="uuid-dbc65856-0f26-4105-a50f-bbf9c42caf67" transform="translate(96.59 87.91)"><tspan class="uuid-0182dc5d-fb44-40a4-a7eb-bf7909219c2c" x="0" y="0">R</tspan><tspan class="uuid-8338009e-cedd-41bb-b8e6-8244ee36fd87" x="25.15" y="0">OB</tspan><tspan class="uuid-d6b62610-ec30-4423-9824-55d666fd094a" x="77.13" y="0">O</tspan><tspan class="uuid-964097c6-f17f-4289-9490-1c7e12d2fa1c" x="103.13" y="0">TI</tspan><tspan class="uuid-92d9be20-e155-4b64-9f78-b1c2ef94d809" x="146.33" y="0">C</tspan><tspan class="uuid-964097c6-f17f-4289-9490-1c7e12d2fa1c" x="171.7" y="0">S</tspan></text><path class="uuid-326c95a4-1b43-4871-96e6-6229ac2c4cf6" d="m43.92,80.08l-.04.09c.12-.04.25-.07.38-.09h-.34Z"/><path class="uuid-326c95a4-1b43-4871-96e6-6229ac2c4cf6" d="m1.34,48.56c.63,2.57,1.23,5.14,1.78,7.73.17.8.56,1.03,1.34.99,2.6-.14,5.21-.22,7.82-.36.77-.05,1.26.2,1.68.83,1.07,1.62,2.18,3.2,3.31,4.77.41.57.42,1.07.16,1.71-.99,2.41-1.9,4.86-2.88,7.28-.28.7-.17,1.11.49,1.51,2.29,1.39,4.55,2.81,6.81,4.25.61.39,1.02.31,1.5-.22,1.63-1.82,3.32-3.6,4.94-5.44.59-.68,1.19-.94,2.1-.75,1.96.41,3.92.74,5.89,1.06.69.11,1.07.43,1.34,1.07.95,2.25,1.98,4.48,2.91,6.74.05.13.11.25.17.35h3.2l5.23-10.16c-.2-.58-.35-1.18-.44-1.8h0s-10.9-12.91-10.9-12.91l-.46-.55-.22-.26c-1.4-.08-2.8-.47-4.2-1.2-3.64-1.9-5.74-5.94-5.25-10.19.46-4.05,3.5-7.55,7.39-8.55,1.84-.47,3.62-.49,5.32-.03l.33-.17,17.33-8.92c-.18-.48-.14-.96.09-1.54.94-2.25,1.79-4.55,2.72-6.82.28-.7.17-1.12-.49-1.52-2.28-1.38-4.55-2.81-6.81-4.25-.6-.38-1.01-.33-1.49.2-1.75,1.94-3.54,3.83-5.28,5.78-.49.54-.96.76-1.69.63-1.87-.33-3.75-.63-5.63-.87-.81-.1-1.26-.48-1.57-1.2-.99-2.35-2.04-4.66-3.01-7.02-.36-.86-.8-1.07-1.7-.83-2.5.64-5.02,1.2-7.54,1.73-.8.17-1.04.53-.99,1.33.15,2.67.22,5.34.38,8.01.04.72-.14,1.21-.76,1.63-1.54,1.06-3.04,2.17-4.55,3.28-.51.38-.99.46-1.61.21-2.48-1-4.99-1.93-7.45-2.96-.9-.37-1.38-.22-1.88.62-1.26,2.14-2.58,4.24-3.94,6.32-.52.79-.51,1.3.24,1.96,1.97,1.71,3.85,3.52,5.8,5.26.59.53.79,1.07.64,1.87-.36,1.8-.65,3.61-.94,5.43-.09.65-.4,1.01-1,1.28-2.52,1.07-5.02,2.2-7.54,3.26-.72.3-.88.68-.7,1.41"/><rect class="uuid-8cf169fc-013d-48b6-9711-628c3002c60c" x="39.14" y="81.82" width="40.62" height="6.08"/><path class="uuid-8cf169fc-013d-48b6-9711-628c3002c60c" d="m59.45,57.3c-3.73,0-6.94,2.24-8.35,5.44-.5,1.13-.78,2.38-.78,3.69,0,.92.14,1.81.39,2.65,1.13,3.75,4.62,6.47,8.74,6.47,5.05,0,9.13-4.09,9.13-9.13s-4.09-9.13-9.13-9.13Zm0,15.35c-3.06,0-5.61-2.21-6.13-5.13-.07-.36-.09-.72-.09-1.09,0-.22,0-.45.04-.67.33-3.12,2.97-5.56,6.18-5.56,3.44,0,6.23,2.79,6.23,6.23s-2.79,6.22-6.23,6.22Z"/><circle class="uuid-8cf169fc-013d-48b6-9711-628c3002c60c" cx="59.45" cy="66.43" r="3.41"/><path class="uuid-8cf169fc-013d-48b6-9711-628c3002c60c" d="m46.28,42.91c-.5-3.25-2.8-5.9-5.85-6.91-.72-.24-1.48-.38-2.27-.42-.15,0-.3-.01-.46-.01-4.79,0-8.68,3.89-8.68,8.68,0,2.2.82,4.21,2.17,5.74,1.35,1.53,3.23,2.57,5.36,2.86.36.05.71.08,1.08.08h.07c1.85,0,3.56-.58,4.97-1.57,1.41-.99,2.52-2.38,3.14-4,.37-.96.57-2.02.57-3.11,0-.46-.03-.9-.1-1.33Zm-14.49,1.33c0-3.26,2.65-5.92,5.92-5.92.8,0,1.57.16,2.26.45,2.15.89,3.65,3,3.65,5.47,0,3.14-2.44,5.71-5.53,5.9-.12.01-.25.01-.38.01-3.26,0-5.92-2.65-5.92-5.92Z"/><path class="uuid-8cf169fc-013d-48b6-9711-628c3002c60c" d="m34.47,44.24c0,1.79,1.45,3.24,3.24,3.24.29,0,.57-.04.84-.11,1.38-.37,2.4-1.63,2.4-3.12,0-1.12-.57-2.11-1.44-2.69-.51-.35-1.13-.55-1.8-.55-1.79,0-3.24,1.45-3.24,3.24Z"/><path class="uuid-8cf169fc-013d-48b6-9711-628c3002c60c" d="m67.51,20.47c-2,0-3.76.99-4.84,2.49-.7.97-1.12,2.17-1.12,3.47,0,1.83.83,3.48,2.14,4.57l.7.5c.91.56,1.98.88,3.12.88.16,0,.32,0,.48-.02,1.17-.09,2.23-.52,3.11-1.19,1.14-.86,1.96-2.11,2.25-3.55.08-.38.12-.78.12-1.2,0-3.29-2.67-5.96-5.96-5.96Zm0,1.9c2.24,0,4.06,1.82,4.06,4.06s-1.82,4.06-4.06,4.06-4.06-1.82-4.06-4.06,1.81-4.06,4.06-4.06Z"/><path class="uuid-8cf169fc-013d-48b6-9711-628c3002c60c" d="m65.29,26.43c0,1.23.99,2.22,2.22,2.22s2.22-.99,2.22-2.22-.99-2.22-2.22-2.22-2.22.99-2.22,2.22Z"/><path class="uuid-8cf169fc-013d-48b6-9711-628c3002c60c" d="m39.14,54.08l.17.21.19.22,8.85,10.49c.3-1.62.8-2.98,1.41-4.12,2.88-5.3,8.34-5.73,8.34-5.73l-10.23-8.62-.36-.3-.24-.2c-.03.14-.06.29-.1.42-1.62,6.34-8.04,7.63-8.04,7.63Z"/><path class="uuid-8cf169fc-013d-48b6-9711-628c3002c60c" d="m45.76,80.29h27.38l-.11-.22-3.82-7.42c-8.79,9.56-16.17,3.59-18.63,1.01-.57-.6-.87-1.01-.87-1.01l-3.6,6.99-.22.43-.11.22Z"/><path class="uuid-8cf169fc-013d-48b6-9711-628c3002c60c" d="m42,35.56c4.78,1.71,5.31,6.77,5.36,8.26,0,.27,0,.42,0,.42l.28-.18.27-.18.2-.13,15.88-10.46.36-.24.39-.26c-.25-.12-.49-.24-.71-.38-.5-.3-.92-.64-1.28-.99h0c-2.3-2.3-1.97-5.52-1.97-5.52l-.98.5-.77.4-16.24,8.35-.29.15-.51.26Z"/><path class="uuid-8cf169fc-013d-48b6-9711-628c3002c60c" d="m66.51,33.43l.33.67,2.2,4.42,1.42-.57,1.72,3.88,3.05,6.89-1.1.49c-.87.39-1.27,1.41-.88,2.28l.94,2.12-1.59,4.33,4.3,3.65c.27.23.66-.09.48-.4l-2.09-3.75.94-3.12.96-2.18c.43-.99,1.58-1.44,2.57-1.01l4.97,2.13,1.38,4.06c.11.34.61.26.62-.09l.18-5.64-4.4-1.77-.9-2.03c-.39-.87-1.41-1.27-2.28-.88l-1.32.59-4.57-10.3h0s-.16-.36-.16-.36l.07-.03,1.38-.55-1.66-4.48-.23-.63c-.2.26-.41.49-.63.7-1.97,1.89-4.44,1.78-5.35,1.67-.22-.03-.35-.06-.35-.06Z"/><path class="uuid-326c95a4-1b43-4871-96e6-6229ac2c4cf6" d="m123.32,18.45c-2.39,0-4.33,1.76-4.33,3.93l-.03,24.9c0,1.74-.37,3.23-1.09,4.47-.73,1.24-1.69,2.18-2.91,2.81-1.22.63-2.59.94-4.11.94-1.48,0-2.84-.33-4.07-.95-1.23-.64-2.2-1.57-2.91-2.82-.72-1.24-1.08-2.73-1.08-4.47v-.98c0-1.24-.34-2.18-1.03-2.81-.7-.64-1.7-.96-3.01-.96-1.42,0-2.49.31-3.21.95-.72.63-1.09,1.56-1.09,2.8v1.6c0,2.75.67,5.32,2.04,7.69,1.37,2.37,3.29,4.26,5.74,5.67,2.45,1.4,5.25,2.11,8.37,2.11,3.19,0,6.02-.6,8.5-1.84-.19-.58-.29-1.2-.29-1.84,0-.78.15-1.57.44-2.36l.05-.14,8.3-15.9.03-18.84c0-2.16-1.93-3.94-4.32-3.94Z"/><path class="uuid-326c95a4-1b43-4871-96e6-6229ac2c4cf6" d="m282.46,19.7c-.81-.65-2.02-.96-3.59-.97-1.56,0-2.74.32-3.56.96-.82.64-1.23,1.59-1.23,2.86l-.09,37.15c0,1.27.4,2.23,1.21,2.89.82.65,2,.99,3.56.99s2.74-.32,3.57-.98c.83-.65,1.25-1.61,1.25-2.88l.09-37.15c0-1.26-.4-2.22-1.22-2.86Z"/><path class="uuid-326c95a4-1b43-4871-96e6-6229ac2c4cf6" d="m164.63,55.36l1.45-2.19-17.83-32.61c-.27-.7-.73-1.23-1.37-1.59-.65-.35-1.42-.53-2.32-.53s-1.71.17-2.36.52c-.64.35-1.1.89-1.37,1.61l-13.23,25.37-6.29,12.06c-.2.56-.31,1.11-.31,1.63,0,.24.02.47.06.69.13.74.47,1.37,1.04,1.91.74.69,1.7,1.04,2.89,1.04.81,0,1.54-.17,2.2-.52.65-.35,1.06-.81,1.49-1.49l4.54-7.73,23.65.03,4.62,7.64c.4.71.71,1.25,1.36,1.61.61.33,1.27.5,2,.52-1.02-1.11-1.54-2.56-1.54-4.18,0-1.2.44-2.48,1.33-3.78Zm-29.06-9.42l8.96-17.32,8.86,17.35-17.82-.03Z"/><path class="uuid-326c95a4-1b43-4871-96e6-6229ac2c4cf6" d="m197.36,25.3l-20.27,29.94,16.45.03-.99,1.88-.05.14c-.29.8-.44,1.59-.44,2.36,0,1.29.38,2.46,1.13,3.44l-22.99-.04h-.86c-.69,0-1.29-.13-1.81-.38-.39-.18-.73-.42-1.02-.73-.7-.73-1.04-1.67-1.04-2.8,0-.77.32-1.63.95-2.57l.83-1.25,1.36-2.04,17.75-26.74-15.87-.03c-1.42,0-2.5-.34-3.23-1-.73-.67-1.09-1.65-1.09-2.93,0-1.27.38-2.23,1.15-2.89s1.88-.99,3.35-.99l23.89.04c1.16,0,2.09.38,2.77,1.14.69.75,1.02,1.67,1.02,2.76,0,.88-.33,1.77-.99,2.67Z"/><path class="uuid-326c95a4-1b43-4871-96e6-6229ac2c4cf6" d="m234.29,59.18l.03-15.14-12.84-23.46c-.27-.7-.72-1.22-1.37-1.58-.64-.35-1.42-.54-2.32-.54s-1.7.17-2.35.52c-.64.35-1.1.89-1.38,1.61l-17.04,32.69-1.06,2.03-1.41,2.71c-.21.57-.31,1.11-.31,1.63,0,1.04.36,1.9,1.1,2.59.32.31.7.55,1.12.72.52.21,1.11.32,1.77.32.81,0,1.55-.17,2.2-.52.09-.04.17-.1.26-.15.51-.33.87-.75,1.23-1.34l4.55-7.73,23.64.03,4.33,7.14c-.1-.46-.15-.97-.15-1.53Zm-25.47-13.22l8.96-17.33,8.86,17.35-17.82-.02Z"/><path class="uuid-326c95a4-1b43-4871-96e6-6229ac2c4cf6" d="m266.63,39.54c1.23-1.91,1.84-4.07,1.85-6.47v-.14c.01-4.94-1.59-8.58-4.81-10.93-3.23-2.34-7.6-3.52-13.12-3.53h-9.64c-1.42-.01-2.5.31-3.24.97-.75.65-1.12,1.63-1.13,2.91l-.04,21.15v4.51s-.03,11.19-.03,11.19c0,1.27.35,2.23,1.08,2.89.62.54,1.47.86,2.57.96.22.02.44.03.67.03,1.37,0,2.43-.31,3.18-.92.03-.02.05-.03.07-.06.76-.65,1.14-1.61,1.15-2.88l.03-11.75h6.01c1.72.03,3.14.44,4.28,1.2,1.13.78,1.86,1.81,2.18,3.13l1.91,8.4c.19,1.02.65,1.79,1.36,2.34.7.54,1.63.81,2.75.81,1.44,0,2.52-.31,3.25-.96.74-.64,1.11-1.57,1.11-2.8,0-.36-.03-.74-.11-1.15l-1.56-7.76c-.25-1.31-.79-2.49-1.6-3.56-.82-1.06-1.84-1.97-3.07-2.75,2.04-1.3,3.68-2.92,4.9-4.83Zm-6.93-5.94c0,1.33-.34,2.5-1.03,3.48-.68.99-1.61,1.77-2.76,2.31-1.17.54-2.43.81-3.79.81h-6.88s.03-13.91.03-13.91h6.1c5.57.02,8.35,2.3,8.34,6.84v.48Z"/></svg>