<?xml version="1.0" encoding="UTF-8"?><svg id="uuid-753e54df-df50-42d9-a3d0-8d5f0371c995" xmlns="http://www.w3.org/2000/svg" viewBox="0 0 266.62 100"><defs><style>.uuid-57badd87-7988-4ad3-a8cc-8c27958810fa{fill:#ca2127;}.uuid-1aa4ba09-3e8f-4274-b298-66d752f0ca04{fill:none;stroke:#000;stroke-miterlimit:10;stroke-width:.54px;}</style></defs><path d="m129.09,1.18c-.08.22-2.27,5.77-5.96,13.5-1.95,2.12-4.12,4.02-6.47,5.7-3.2,2.27-6.76,4.05-10.56,5.08,5.55-1.06,10.75-3.6,15.23-7.06-1.9,3.83-4.1,8.02-6.53,12.26-.96.74-1.95,1.44-2.97,2.09-3.31,2.11-6.95,3.71-10.8,4.55,4.38-.61,8.58-2.14,12.43-4.33-1.93,3.26-4,6.51-6.17,9.63-.9.59-1.83,1.14-2.77,1.66-3.44,1.88-7.19,3.23-11.09,3.8,4.27-.3,8.43-1.47,12.31-3.29-7.75,10.62-16.74,19.16-25.84,19.77,0,0,0,0-.01,0-.02,0-.04,0-.05,0-.22.01-.41-.1-.63-.32-.36-.37-.74-.73-1.17-1.03-.22-.16-.6-.3-.81-.21-.18.07-.3.48-.3.74-.03,2.8.07,5.59,1.09,8.25.03.07.02.15.02.2-1.17-.68-2.34-1.36-3.61-2.1-.52.99-1.19,1.71-.74,3.02,1.93,5.73,3.71,11.49,5.54,17.26.25.78.53,2.5.49,2.5-.51,1.04-1.11,1.38-2.6,2.38-.65.35-1.24.66-1.9,1.01-.14.07-.3,0-.33-.16-.74-4.4-2.74-19.35-2.79-19.35.42,5.77,1.44,14.5,2.15,19.6.02.1-.04.2-.14.24l-1.92.69c-.13.04-.27-.04-.3-.17-.5-3.01-1.51-15.23-2.27-18.96.13,1.05,1.22,15.86,1.61,18.9.06.48.05.54-.41.7-.52.25-1.08.41-1.7.62-.13.04-.26-.04-.28-.17-.63-4.17-1.98-19.1-2.03-19.1.2,4.39,1.2,18.1,1.27,19.28,0,.1-.05.19-.15.22-.84.26-3.97.36-4.92.13-.11-.03-.18-.13-.17-.25.16-1.8.22-2.29.34-3.77.23-3.19.69-13,.92-16.2-.65,4.33-1.31,15.28-1.98,19.67-.02.14-.17.23-.3.18-.67-.24-1.3-.46-1.97-.7-.1-.04-.17-.14-.15-.25.58-4.41,1.65-19.79,1.61-19.8-.73,4.25-1.47,15.13-2.22,19.48-.02.14-.16.22-.29.18-.63-.22-1.24-.43-1.91-.66-.11-.04-.18-.15-.16-.26.7-4.26,1.99-19.32,1.93-19.32-.85,4.09-1.7,14.81-2.58,19.08-.03.15-.19.22-.33.15-.65-.35-1.23-.65-1.84-.99-1.4-.81-2-1.05-2.99-2.42,1.52-4.77,2.99-9.4,4.46-14.03.61-1.9,1.21-3.81,1.87-5.69.27-.76.31-1.4-.24-2.04-.21-.24-.35-.54-.58-.92-1.2.69-2.36,1.35-3.61,2.08.11-.32.22-.6.3-.88.77-2.57.92-5.22.89-7.89,0-.51-.26-.67-.68-.45-.11.06-.21.12-.31.19l-.02.12c-.42.3-.8.66-1.17,1.03-.21.22-.41.34-.63.32-.02,0-.04,0-.05,0,0,0,0,0-.01,0-9.11-.62-18.09-9.16-25.84-19.77.54.25,1.09.5,1.65.72.93.38,1.88.73,2.84,1.04.34.11.68.21,1.02.31,2.22.63,4.49,1.05,6.8,1.22-2.46-.36-4.86-1.03-7.15-1.95-1.35-.54-2.66-1.16-3.93-1.85-.95-.52-1.87-1.07-2.77-1.66-2.17-3.11-4.24-6.37-6.17-9.63.89.5,1.8.97,2.72,1.41,3.08,1.44,6.34,2.45,9.71,2.92-3.85-.84-7.49-2.44-10.8-4.55-.02-.01-.04-.03-.06-.04-1-.64-1.97-1.33-2.91-2.05-2.44-4.24-4.63-8.43-6.53-12.26,1.34,1.03,2.74,1.99,4.2,2.84,3.42,2.01,7.14,3.48,11.03,4.22-3.8-1.03-7.36-2.81-10.56-5.08-.76-.54-1.5-1.11-2.22-1.7-1.51-1.23-2.93-2.57-4.25-4C4.17,7.05,1.98,1.51,1.89,1.29l.09.09.63.63c1.49,2.07,3.17,3.87,4.99,5.48.05.04.1.09.15.13.73.64,1.48,1.26,2.25,1.84,4.17,3.15,8.93,5.48,13.82,7.64l6.67,3.84c1.45,1.1,2.51,2.71,3.76,4.08.72.78,1.47,1.53,2.28,2.35-.91-.24-1.7-.48-2.51-.63-.75-.14-1.47-.05-1.97.48-.13.12-.25.28-.36.46-.53.93-.64,1.85.06,2.83.29.4.59.79.9,1.16.06.07.11.13.17.2.06.07.12.14.18.21,1.94,2.22,4.27,3.95,6.88,5.32.85.45,1.76.8,2.69,1.04.52.14,1.05.26,1.61.39.02,0,.03,0,.05.01,3.28.79,6.52,1.23,9.18,1.5.02,0,.03,0,.05,0,.96.1,1.84.17,2.61.23.42.03.8.06,1.16.09.19,0,.37,0,.62,0,.08-1.19.21-2.33.23-3.47.04-2.55.76-5.07,2.33-7.11.55-.71,1.16-1.39,1.86-1.94.68-.54,1.3-.77,2.17-.83.72-.05,1.42-.04,2.08.03.4.04.79.17,1.17.35,1.79.86,3.26,2.95,3.26,2.95.92.55,1.11.82,1.11.82.31.26.52.55.65.82.33.66.24,1.25.24,1.25-.23,1.43-1.37,2.25-1.37,2.25l-.15.02v-.13c.57-.98.45-1.15.45-1.15l-1.23.04c-.44-.17-.56-.1-.56-.1-.87.01-1.1.36-1.1.36-.33.25-.59.56-.79.87-.31.48-.38,1.09-.21,1.64.28.9.68,1.63,1.03,2.67.06.17.35.36.54.37.88.06,1.72-.11,2.66.26.75.31,1.77-.02,2.67-.11,2.77-.28,9.01-1.02,13.53-2.2.93-.25,1.83-.59,2.69-1.04,3.16-1.66,5.91-3.84,8.05-6.8.68-.95.54-1.86.06-2.77-.48-.9-1.35-1.07-2.27-.9-.87.16-1.73.43-2.73.69.89-.92,1.73-1.74,2.51-2.59,1.25-1.37,2.31-2.98,3.76-4.08l6.67-3.84c4.89-2.16,9.65-4.49,13.82-7.64,2.65-2,5.05-4.32,7.1-7.15l1.02-1.02Z"/><path d="m113.89,78.02h-4.61l-2.97-5.62c-.11-.21-.23-.59-.35-1.16h-.05c-.06.26-.19.67-.4,1.2l-2.98,5.57h-4.63l5.5-8.63-5.03-8.63h4.73l2.47,5.17c.19.41.36.89.52,1.46h.05c.1-.34.28-.84.54-1.5l2.74-5.13h4.33l-5.17,8.56,5.32,8.7Z"/><path d="m135.76,78.02h-4.91l-5.03-7.5c-.1-.14-.25-.46-.46-.95h-.06v8.45h-3.89v-17.25h3.89v8.16h.06c.1-.22.26-.55.48-.96l4.77-7.2h4.63l-6.02,8.23,6.53,9.02Z"/><path d="m156.54,78.02h-4.46l-2.68-4.44c-.2-.34-.39-.64-.58-.9s-.37-.49-.56-.68-.38-.33-.59-.43-.43-.15-.67-.15h-1.05v6.61h-3.89v-17.25h6.16c4.19,0,6.28,1.56,6.28,4.69,0,.6-.09,1.16-.28,1.67-.18.51-.45.97-.78,1.38s-.74.76-1.22,1.06c-.48.3-1.01.53-1.59.7v.05c.26.08.51.21.75.39s.47.39.7.63.44.5.64.78c.2.28.39.55.56.81l3.26,5.1Zm-10.59-14.34v4.8h1.68c.83,0,1.5-.24,2.01-.72.51-.49.77-1.09.77-1.82,0-1.51-.9-2.26-2.71-2.26h-1.76Z"/><path d="m176.88,60.77l-5.62,11.12v6.14h-3.89v-6.06l-5.47-11.19h4.44l2.78,6.44c.05.12.18.59.4,1.41h.05c.1-.58.23-1.03.37-1.36l2.83-6.49h4.12Z"/><path d="m188.21,72.08v5.94h-3.89v-17.25h6.09c4.35,0,6.52,1.83,6.52,5.5,0,1.73-.62,3.13-1.87,4.21-1.25,1.07-2.91,1.61-5,1.61h-1.85Zm0-8.33v5.38h1.53c2.07,0,3.1-.91,3.1-2.72s-1.03-2.66-3.1-2.66h-1.53Z"/><path d="m218.15,63.93h-4.92v14.09h-3.9v-14.09h-4.9v-3.16h13.72v3.16Z"/><path d="m252.17,77.06v-3.85c.7.59,1.46,1.02,2.27,1.32.82.29,1.64.44,2.48.44.49,0,.92-.04,1.28-.13s.67-.21.91-.37c.24-.16.43-.34.55-.55.12-.21.18-.44.18-.69,0-.34-.1-.64-.29-.9s-.46-.51-.79-.73c-.33-.22-.73-.44-1.19-.65-.46-.21-.95-.42-1.48-.64-1.35-.56-2.35-1.25-3.01-2.06s-.99-1.79-.99-2.94c0-.9.18-1.67.54-2.32.36-.65.85-1.18,1.47-1.59.62-.42,1.34-.72,2.16-.92.82-.2,1.68-.29,2.6-.29s1.69.05,2.39.16c.69.11,1.33.27,1.92.5v3.6c-.29-.2-.6-.38-.94-.53-.34-.15-.69-.28-1.05-.38-.36-.1-.72-.17-1.08-.22-.36-.05-.7-.07-1.02-.07-.44,0-.84.04-1.2.13-.36.08-.67.2-.91.35-.25.15-.44.34-.58.55-.14.21-.2.45-.2.72,0,.29.08.55.23.78.15.23.37.45.65.65.28.2.62.41,1.02.6.4.2.85.4,1.36.61.69.29,1.31.6,1.86.92.55.32,1.02.69,1.41,1.1.39.41.69.88.9,1.4.21.53.31,1.14.31,1.83,0,.96-.18,1.77-.55,2.42-.37.65-.86,1.18-1.49,1.59-.63.41-1.35.7-2.18.87-.83.18-1.71.26-2.63.26s-1.85-.08-2.7-.24c-.85-.16-1.59-.4-2.22-.72Z"/><polygon points="235.11 78.02 225.59 61.54 244.63 61.54 235.11 78.02"/><circle class="uuid-57badd87-7988-4ad3-a8cc-8c27958810fa" cx="235.11" cy="67.32" r="6.84"/><line class="uuid-1aa4ba09-3e8f-4274-b298-66d752f0ca04" x1="97.9" y1="83.22" x2="263.94" y2="83.22"/></svg>