<?xml version="1.0" encoding="UTF-8"?><svg id="uuid-d4d0e721-aec5-4bef-895e-34ce4871ad38" xmlns="http://www.w3.org/2000/svg" viewBox="0 0 292 100"><defs><style>.uuid-05ac5ec4-f4c2-4b1c-b2b4-b0ee70e6d604{fill:#42b549;}.uuid-caa5fc0c-8db3-4435-bfd6-fe258b7270df{fill:#9a9a9b;}.uuid-430a6183-4211-4b5e-b2e4-d6b573ff8075{fill:#838383;}</style></defs><path class="uuid-430a6183-4211-4b5e-b2e4-d6b573ff8075" d="m8.27,45.39l1.19,7.46v15.84l-1.19-7.46-1.36-8.56L.94,15.16c-.05-.31.03-.63.23-.89.19-.25.49-.42.81-.47l22.62-3.3,8.57-1.26,24.01-3.51c.68-.1,1.31.35,1.41,1l.4,2.51.33,2.08.05.31h-2.52l-.05-.31-.27-1.68c-.02-.14-.06-.27-.13-.39-.26-.53-.86-.85-1.5-.76l-5.19.76-14.23,2.08-2.13.31h-5.8c-.64,0-1.17.45-1.26,1.03l-2.41.35-3.33.49-15.56,2.27c-.78.12-1.32.81-1.2,1.57l3.1,19.49,1.36,8.56Z"/><path class="uuid-430a6183-4211-4b5e-b2e4-d6b573ff8075" d="m39.48,88.24h16.55l-4.77.7-11.57,1.69-24.9,3.64c-.06,0-.13.01-.19.01-.6,0-1.14-.42-1.23-1.01l-.42-2.64-.38-2.37v-.02h2.52v.06s.34,2.06.34,2.06c.01.09.04.18.07.26.23.6.88.99,1.56.89l6.08-.89,13.34-1.95,3-.44Z"/><path class="uuid-430a6183-4211-4b5e-b2e4-d6b573ff8075" d="m70.81,85.73c-.19.25-.49.42-.82.47l-3.56.52-1.74.25-.81.12v-2.42l.79-.12,1.77-.25.54-.08c.79-.11,1.32-.81,1.2-1.56l-1.74-10.92-2.04-12.8-.41-2.56c-.06-.4.08-.78.37-1.03h0s0-.01,0-.01c.18-.16.41-.28.67-.32.68-.1,1.32.35,1.42,1l4.59,28.82c.05.31-.03.63-.23.89Z"/><path class="uuid-430a6183-4211-4b5e-b2e4-d6b573ff8075" d="m15.72,62.4c0-.22.19-.4.42-.4h7.07c.23,0,.42.17.42.39s-.19.4-.42.4h-7.07c-.23,0-.42-.18-.42-.4Z"/><path class="uuid-430a6183-4211-4b5e-b2e4-d6b573ff8075" d="m15.72,70.7c0-.22.19-.4.42-.4h16.54c.22,0,.41.17.41.39h0c0,.23-.19.41-.41.41h-16.54c-.23,0-.42-.18-.42-.4Z"/><path class="uuid-430a6183-4211-4b5e-b2e4-d6b573ff8075" d="m15.72,54.09c0-.22.19-.4.42-.4h31.81c.23,0,.42.18.42.4s-.19.4-.42.4h-31.81c-.23,0-.42-.18-.42-.4Z"/><path class="uuid-430a6183-4211-4b5e-b2e4-d6b573ff8075" d="m55.85,81.38c.23,0,.42.17.42.4s-.19.4-.42.4h-12.66c-.23,0-.42-.18-.42-.4s.19-.4.42-.4h12.66Z"/><path class="uuid-430a6183-4211-4b5e-b2e4-d6b573ff8075" d="m15.72,45.78c0-.22.19-.4.42-.4h39.72c.23,0,.42.17.42.4s-.19.4-.42.4H16.13c-.23,0-.42-.18-.42-.4Z"/><path class="uuid-430a6183-4211-4b5e-b2e4-d6b573ff8075" d="m15.72,37.48c0-.22.19-.4.42-.4h39.72c.23,0,.42.17.42.4s-.19.4-.42.4H16.13c-.23,0-.42-.18-.42-.4Z"/><path class="uuid-430a6183-4211-4b5e-b2e4-d6b573ff8075" d="m15.72,29.17c0-.22.19-.4.42-.4h39.72c.23,0,.42.17.42.4s-.19.4-.42.4H16.13c-.23,0-.42-.18-.42-.4Z"/><path class="uuid-430a6183-4211-4b5e-b2e4-d6b573ff8075" d="m38.07,65.63l26.19-18.9.06,5.43-25.02,18.06c-.41.29-.89.44-1.37.44-.56,0-1.11-.2-1.54-.58l-12.23-10.74c-.93-.81-.99-2.19-.14-3.09.85-.89,2.3-.95,3.23-.14l10.83,9.51Z"/><path class="uuid-430a6183-4211-4b5e-b2e4-d6b573ff8075" d="m9.46,87.05c0,.61.49,1.11,1.12,1.18l-2.3-.04V24.49l15.63-11.48,2.3-1.69h37.67l.34,31.15c-.21-.21-.34-.49-.34-.8V12.82c0-.67-.57-1.19-1.27-1.19H27.57c-.64,0-1.17.45-1.26,1.03,0,.06-.01.11-.01.16v9.63c0,.66-.57,1.19-1.28,1.19h-14.28c-.71,0-1.28.53-1.28,1.19v62.21Z"/><path class="uuid-430a6183-4211-4b5e-b2e4-d6b573ff8075" d="m64.71,89.17l-13.45-.24-14.78-.26-21.38-.37-2.52-.04-1.11-.02h51.14c.68,0,1.25-.51,1.27-1.14v-30.83c0-.32.14-.62.36-.83.03-.03.07-.07.11-.09l.04,3.59.27,25.62.03,2.42.03,2.19Z"/><path class="uuid-430a6183-4211-4b5e-b2e4-d6b573ff8075" d="m63.88,41.67V12.82c0-.67-.57-1.19-1.27-1.19H27.57c-.64,0-1.17.45-1.26,1.03,0,.06-.01.11-.01.16v9.63c0,.66-.57,1.19-1.28,1.19h-14.28c-.71,0-1.28.53-1.28,1.19v62.21c0,.61.49,1.11,1.12,1.18.05.01.11.02.16.02h51.87c.68,0,1.25-.51,1.27-1.14v-30.83c0-.32.14-.62.36-.83.03-.03.07-.07.11-.09h0s0-.01,0-.01c.21-.16.48-.25.77-.26.71-.01,1.3.52,1.3,1.19v33.17c0,.66-.57,1.19-1.28,1.19H8.19c-.71,0-1.28-.53-1.28-1.19V24.22c0-.37.18-.71.49-.93l2.06-1.53,11.11-8.26,2.51-1.87,1.53-1.13,1.34-1c.23-.16.51-.25.8-.25h38.41c.71,0,1.28.53,1.28,1.19v31.23c0,.32-.14.62-.37.84-.23.22-.55.35-.9.35-.38,0-.71-.15-.95-.39-.21-.21-.34-.49-.34-.8Z"/><path class="uuid-caa5fc0c-8db3-4435-bfd6-fe258b7270df" d="m56.26,29.17c0,.22-.19.4-.42.4H16.13c-.23,0-.42-.18-.42-.4s.19-.4.42-.4h39.72c.23,0,.42.17.42.4Z"/><path class="uuid-caa5fc0c-8db3-4435-bfd6-fe258b7270df" d="m56.26,37.48c0,.22-.19.4-.42.4H16.13c-.23,0-.42-.18-.42-.4s.19-.4.42-.4h39.72c.23,0,.42.17.42.4Z"/><path class="uuid-caa5fc0c-8db3-4435-bfd6-fe258b7270df" d="m56.26,45.78c0,.22-.19.4-.42.4H16.13c-.23,0-.42-.18-.42-.4s.19-.4.42-.4h39.72c.23,0,.42.17.42.4Z"/><path class="uuid-caa5fc0c-8db3-4435-bfd6-fe258b7270df" d="m48.36,54.09c0,.22-.19.4-.42.4h-31.81c-.23,0-.42-.18-.42-.4s.19-.4.42-.4h31.81c.23,0,.42.18.42.4Z"/><path class="uuid-caa5fc0c-8db3-4435-bfd6-fe258b7270df" d="m23.61,62.39c0,.22-.19.4-.42.4h-7.07c-.23,0-.42-.18-.42-.4s.19-.4.42-.4h7.07c.23,0,.42.17.42.39Z"/><path class="uuid-caa5fc0c-8db3-4435-bfd6-fe258b7270df" d="m33.08,70.69h0c0,.23-.19.41-.41.41h-16.54c-.23,0-.42-.18-.42-.4s.19-.4.42-.4h16.54c.22,0,.41.17.41.39Z"/><path class="uuid-caa5fc0c-8db3-4435-bfd6-fe258b7270df" d="m56.26,81.78c0,.22-.19.4-.42.4h-12.66c-.23,0-.42-.18-.42-.4s.19-.4.42-.4h12.66c.23,0,.42.17.42.4Z"/><path class="uuid-05ac5ec4-f4c2-4b1c-b2b4-b0ee70e6d604" d="m79.17,41.45l-14.86,10.72-25.02,18.06c-.41.29-.89.44-1.37.44-.56,0-1.11-.2-1.54-.58l-12.23-10.74c-.93-.81-.99-2.19-.14-3.09.85-.89,2.3-.95,3.23-.14l10.83,9.51,26.19-18.9,12.17-8.78c1.01-.73,2.44-.53,3.2.43.75.96.55,2.34-.45,3.07Z"/><path class="uuid-430a6183-4211-4b5e-b2e4-d6b573ff8075" d="m105.24,59.66c-2.15-2.06-5.09-3.22-8.16-3.22-6.35,0-11.52,4.96-11.52,11.04s5.17,11.04,11.52,11.04c3.07,0,6.02-1.17,8.16-3.22l4.21,4.03c-3.28,3.14-7.74,4.88-12.37,4.88-9.63,0-17.46-7.5-17.46-16.73s7.82-16.73,17.46-16.73c4.63,0,9.09,1.73,12.37,4.88l-4.21,4.03Z"/><path class="uuid-430a6183-4211-4b5e-b2e4-d6b573ff8075" d="m116.13,63.24c2.61-2.5,5.68-3.59,8.62-3.59,1.51,0,3.03.28,4.42.85,3.95,1.61,7.11,5.44,7.15,11v2.46h-17.67c.88,2.66,3.41,4.55,6.39,4.55,3.7,0,7.07-1.37,7.07-1.37l2.52,4.64s-2.69,2.42-9.59,2.42-12.45-5.48-12.45-12.29c0-3.22,1.26-6.33,3.53-8.63v-.04Zm10.73,2.42c-.63-.28-1.35-.4-2.06-.4-1.56,0-3.16.65-4.54,1.97-.76.73-1.26,1.65-1.6,2.62h11.61c-.46-2.02-1.77-3.51-3.41-4.19Z"/><path class="uuid-430a6183-4211-4b5e-b2e4-d6b573ff8075" d="m152.14,59.66c1.01,0,2.94.32,2.94.32v5.52s-1.14-.2-2.94-.2c-3.66,0-6.6,2.82-6.6,6.33v11.97h-5.89v-23.38h5.89v2.02c1.51-1.61,3.66-2.58,6.6-2.58Z"/><path class="uuid-430a6183-4211-4b5e-b2e4-d6b573ff8075" d="m162.19,65.86h-3.32v-5.6h3.32v-5.6l5.89-.6v6.21h7.02v5.6h-7.02v9.92c0,1.53,1.3,2.82,2.9,2.82s4.12-.28,4.12-.28l.72,5.36s-2.99.52-4.84.52c-4.84,0-8.79-3.79-8.79-8.42v-9.92Z"/><path class="uuid-430a6183-4211-4b5e-b2e4-d6b573ff8075" d="m186.67,54.7c0,1.89-1.6,3.43-3.57,3.43s-3.53-1.53-3.53-3.43,1.56-3.39,3.53-3.39,3.57,1.53,3.57,3.39Zm-.63,28.94h-5.89v-23.42h5.89v23.42Z"/><path class="uuid-430a6183-4211-4b5e-b2e4-d6b573ff8075" d="m202.82,49.74c2.19,0,3.79.6,3.79.6l-.93,5.28s-1.14-.24-2.86-.24-3.11,1.33-3.11,2.98v1.81h5.22v5.64h-5.22v17.77h-5.89v-17.77h-3.37v-5.64h3.37v-1.81c0-4.76,4.04-8.63,9-8.63Z"/><path class="uuid-430a6183-4211-4b5e-b2e4-d6b573ff8075" d="m212.54,93.15c-2.57,0-5.09-1.01-6.9-2.74l3.91-3.75c.8.77,1.85,1.17,2.99,1.17,1.6,0,3.03-.85,3.74-2.18l.93-2.02-10.64-23.38h6.01l7.61,16.73,7.66-16.73h6.02l-12.28,27c-1.47,3.55-5.05,5.88-9.04,5.88Z"/><path class="uuid-430a6183-4211-4b5e-b2e4-d6b573ff8075" d="m232.86,77.43c1.98,0,3.58,1.49,3.58,3.39s-1.6,3.39-3.58,3.39-3.53-1.49-3.53-3.39,1.56-3.39,3.53-3.39Z"/><path class="uuid-430a6183-4211-4b5e-b2e4-d6b573ff8075" d="m252.71,59.66c6.9,0,12.49,5.52,12.49,12.29s-5.59,12.25-12.49,12.25c-2.95,0-5.09-.97-6.6-2.62v10.96h-5.89v-32.29h5.89v2.06c1.51-1.65,3.66-2.66,6.6-2.66Zm0,18.94c3.7,0,6.6-3.02,6.6-6.65s-2.9-6.65-6.6-6.65-6.35,2.74-6.6,6.17v.93c.25,3.43,3.07,6.21,6.6,6.21Z"/><path class="uuid-430a6183-4211-4b5e-b2e4-d6b573ff8075" d="m282.41,60.22h7.28l-9.67,10.04,11.06,13.38h-7.15l-7.78-9.39-1.6,1.65v7.74h-5.97v-32.33h5.97v17.05l7.87-8.14Z"/></svg>