<?xml version="1.0" encoding="utf-8"?>
<!-- Generator: Adobe Illustrator 28.0.0, SVG Export Plug-In . SVG Version: 6.00 Build 0)  -->
<svg version="1.1" id="Layer_1" xmlns="http://www.w3.org/2000/svg" xmlns:xlink="http://www.w3.org/1999/xlink" x="0px" y="0px"
	 viewBox="0 0 180.89 100" style="enable-background:new 0 0 180.89 100;" xml:space="preserve">
<style type="text/css">
	.st0{fill:#8C98A4;}
	.st1{opacity:0.44;}
	.st2{fill:#8C98A4;stroke:#000000;stroke-width:3.7306;stroke-miterlimit:10;}
	.st3{stroke:#000000;stroke-width:3.5943;stroke-miterlimit:10;}
	.st4{fill:#838383;}
	.st5{fill:#9A9A9B;}
	.st6{fill:#42B549;}
	.st7{fill:#70BE44;}
	.st8{fill:#CA2127;}
	.st9{fill:none;stroke:#000000;stroke-width:0.5363;stroke-miterlimit:10;}
	.st10{stroke:#000000;stroke-width:3.7306;stroke-miterlimit:10;}
	.st11{fill:#444445;}
	.st12{fill:#F27F3C;}
	.st13{fill:none;stroke:#000000;stroke-width:1.5805;stroke-miterlimit:10;}
	.st14{stroke:#000000;stroke-width:11.9552;stroke-miterlimit:10;}
	.st15{fill:none;stroke:#000000;stroke-width:0.0988;stroke-miterlimit:10;}
	.st16{stroke:#000000;stroke-width:0.6871;stroke-miterlimit:10;}
	.st17{fill:none;stroke:#000000;stroke-width:0.0749;stroke-miterlimit:10;}
	.st18{stroke:#000000;stroke-width:0.5207;stroke-miterlimit:10;}
	.st19{fill:none;stroke:#000000;stroke-width:5.2228;stroke-miterlimit:10;}
	.st20{stroke:#000000;stroke-width:39.5063;stroke-miterlimit:10;}
	.st21{fill:#54A149;}
	.st22{fill-rule:evenodd;clip-rule:evenodd;fill:#54A149;}
</style>
<g>
	<path class="st21" d="M106.8,72.2c0.01-0.03,0.03-0.06,0.04-0.09v-0.01C106.83,72.14,106.81,72.17,106.8,72.2z"/>
	<g>
		<g>
			<path d="M164.25,68.97c-0.28,0.44-0.75,0.67-1.23,0.67c-0.28,0-0.55-0.08-0.79-0.23l-42.35-27.15c-0.62-0.39-1.42-0.39-2.04,0
				L75.48,69.42c-0.68,0.43-1.58,0.23-2.02-0.45c-0.43-0.68-0.24-1.59,0.45-2.02l42.35-27.15c1.58-1.01,3.62-1.01,5.2,0l42.36,27.15
				C164.49,67.38,164.69,68.29,164.25,68.97z"/>
		</g>
		<g>
			<path d="M155.54,43.52V58c0,0.63-0.51,1.14-1.14,1.14c-0.63,0-1.14-0.51-1.14-1.14V43.52c0-0.2-0.16-0.36-0.36-0.36h-7.21
				c-0.2,0-0.36,0.16-0.36,0.36v7.14c0,0.63-0.51,1.14-1.14,1.14c-0.63,0-1.14-0.51-1.14-1.14v-7.14c0-1.46,1.18-2.65,2.65-2.65
				h7.21C154.35,40.88,155.54,42.06,155.54,43.52z"/>
		</g>
	</g>
	<path class="st21" d="M80.55,74.2c0.02-0.03,0.03-0.07,0.05-0.1V74.1C80.58,74.13,80.57,74.17,80.55,74.2z"/>
	<polygon points="36.32,74.2 36.32,98.82 29.47,98.82 29.47,85.24 24.82,98.82 19.1,98.82 14.42,85.13 14.42,98.82 7.57,98.82 
		7.57,74.2 15.85,74.2 22.03,90.2 28.07,74.2 	"/>
	<path d="M47.6,74.2h-9.74v24.62h9.74c7.86,0,12.85-5.2,12.85-12.32C60.45,79.27,55.46,74.2,47.6,74.2z M50.6,77.77l-0.07,0.29
		c-0.03,0.12-0.09,0.23-0.18,0.32l-0.14,0.11c-0.11,0.08-0.18,0.19-0.22,0.33c-0.14,0.54-0.43,2.08,0.05,4.15
		c0,0,0.25,1.41-0.14,2.85l-2.16,8.93c0,0-0.32,2.27-2.7,1.88l-1.07-0.26l-1.06-0.26c-2.31-0.74-1.54-2.91-1.54-2.91l2.16-8.93
		c0.32-1.45,1.18-2.59,1.18-2.59c1.38-1.61,1.82-3.12,1.95-3.66c0.03-0.13,0.01-0.28-0.05-0.4l-0.08-0.16
		c-0.04-0.12-0.04-0.25-0.01-0.37l0.07-0.29c0,0,0.05-0.5,0.82-0.28l1.3,0.31l1.28,0.32C50.78,77.3,50.6,77.77,50.6,77.77z"/>
	<g>
		<path class="st22" d="M112.13,78.42c0.82,0.49,1.85,0.56,2.72,0.51c1.15-0.07,2.23-0.67,2.83-1.65c0.08-0.12,0.14-0.24,0.19-0.36
			c0.14-0.34,0.38-0.66,0.7-0.81c0.93,0.05,0.37-0.37,0.67-0.53c0.3-0.16,0.74-0.26,0.81-0.52c0.05-0.2-0.14-0.35-0.23-0.53
			c0.89-0.14,0.42-0.69,0.3-0.87c0.21-0.18,0.72-0.39,0.45-0.77c-0.15-0.21-0.63-0.39-0.92-0.46c0.06-0.31,0.13-0.52-0.18-0.62
			c-0.69-0.21-1.53,0.36-1.97,0.72c-0.88,0.73-1.45,1.32-2.68,1.32c-1.38,0-2.22-0.52-3.06-1.56c-0.61-0.75-0.84-0.75-1.52-1.27
			c0.13-0.51,0.16-0.69-0.35-0.52c-0.02-0.4-0.16-0.47-0.41-0.11c-0.09-0.06-0.14-0.18-0.26-0.15c-0.14,0.04-0.11,0.13-0.17,0.32
			c-0.21-0.36-0.39-0.12-0.39,0.09c-0.2-0.14-0.36,0.1-0.22,0.29c0.11,0.14-0.14,0.12,0.1,0.56c0.07,0.23-0.17,0.26-0.19,0.64
			c0.14-0.08,0.29-0.15,0.56-0.13c-0.21,0.88,0.09,1.35,0.45,0.98c0.11,1.11-0.12,2.17,0.47,3.18
			C110.36,77.12,111.22,77.87,112.13,78.42L112.13,78.42z"/>
		<path class="st21" d="M113.16,98.82h-6.85V79.23h6.85v3.46c1.47-2.13,3.7-3.63,6.32-3.63v7.3h-1.92c-2.83,0-4.4,0.91-4.4,3.91
			V98.82z"/>
		<path class="st21" d="M147.57,88.31c0-2.13-1.29-3.32-3.25-3.32c-1.99,0-3.25,1.19-3.25,3.32v10.51h-6.85V88.31
			c0-2.13-1.26-3.32-3.21-3.32c-2.03,0-3.28,1.19-3.28,3.32v10.51h-6.85V79.23h6.85v2.58c1.12-1.57,3.04-2.76,5.69-2.76
			c2.93,0,5.24,1.33,6.53,3.6c1.33-1.99,3.63-3.6,6.53-3.6c4.96,0,7.93,3.21,7.93,8.35v11.42h-6.85V88.31z"/>
		<path class="st21" d="M165.18,98.82c-5.45,0-9.08-2.93-9.36-6.85h6.64c0.17,1.29,1.26,1.99,2.69,1.99c1.15,0,1.82-0.56,1.82-1.26
			c0-2.86-10.41-0.52-10.41-7.72c0-3.42,2.83-6.25,8.14-6.25c5.34,0,8.14,2.97,8.59,6.85h-6.18c-0.21-1.22-1.08-1.96-2.55-1.96
			c-1.12,0-1.71,0.45-1.71,1.19c0,2.79,10.44,0.56,10.48,8C173.31,96.24,170.24,98.82,165.18,98.82z"/>
		<path class="st21" d="M80.1,73.34H64.39v25.48h6.96v-9.97h7.39v-5.39h-7.39v-4.48h7.57c-0.27-1.72-0.02-3.33,0.76-4.81
			C79.82,73.89,79.95,73.61,80.1,73.34z"/>
		<path class="st21" d="M98.06,78.99v2.72c-1.01-1.75-2.97-2.97-5.77-2.97c-3.69,0-6.79,2.39-7.9,6.51
			c0.86,1.46,1.44,3.22-0.26,5.85c0.81,4.85,4.13,7.72,8.16,7.72c2.76,0,4.75-1.22,5.77-2.97v2.72h6.84V78.99H98.06z M96.18,89.66
			c-0.06,2.12-1.32,3.83-3.5,3.76c-2.08-0.07-3.57-2.02-3.51-3.97c0.08-2.53,1.65-5.83,3.58-5.77
			C94.69,83.74,96.26,87.13,96.18,89.66z"/>
		<path class="st21" d="M84.06,84.81c0.07,0.07,0.09-0.26,0.1-0.3c0.07-0.21,0.14-0.43,0.22-0.64c0.14-0.38,0.28-0.76,0.45-1.13
			c0.29-0.65,0.66-1.27,1.11-1.82c0.48-0.58,1.05-1.08,1.65-1.54c1.79-1.35,4.02-1.42,6.21-1.04c0.46,0.08,0.91,0.18,1.35,0.31
			c0.04,0.01,0.55,0.16,0.55,0.16c0.68,0.2,1.11-0.34,1.11-0.34l0.34-0.36c0.11-0.15,0.22-0.17,0.22-0.17
			c0.43-0.12,0.68-0.61,0.68-0.61c0.14-0.23,0.26-1,0.26-1c0.05-0.6-0.29-0.86-0.29-0.86L97.49,75l-0.6-0.54
			c-0.6-0.5-1.25-1.47-1.25-1.47c-0.47-0.63-0.76-1.58-0.76-1.58c-0.09-0.42-0.46-1.05-0.46-1.05l-0.48-0.73
			c-0.25-0.42-0.44-0.56-0.44-0.56l-0.49-0.46c0.64-0.35,0.99-0.95,0.99-0.95c0.45-0.84,0.12-1.69,0.12-1.69
			c-0.21,0.53-1.09,1.5-1.09,1.5c-0.37,0.31-0.78,0.14-0.78,0.14c-0.25-0.12-0.52-0.15-0.52-0.15l-0.7-0.06
			c0.54-0.53,0.73-1.03,0.73-1.03c0.31-0.77-0.14-1.45-0.14-1.45l-0.12,0.18c-0.29,1.17-1.83,1.79-1.83,1.79
			c-1.37,0.56-0.9,1.82-0.9,1.82c-0.7-0.79-1.25-1.09-1.25-1.09c-1.42-0.59-1.94,0.24-1.94,0.24c-0.13,0.37,0.28,0.8,0.28,0.8
			l0.86,0.87c-1.47,0.45-2.1,0.41-2.1,0.41S76.44,76.83,84.06,84.81z"/>
		<path class="st21" d="M84.23,90.1c0.54-1,0.16-2.31-0.38-3.22c-0.18-0.3-0.37-0.59-0.57-0.88c-1.33-1.89-2.78-3.66-3.5-5.89
			c-0.67-2.07-0.37-4.15,0.63-6.07c0.37-0.72,0.87-1.41,1.4-2.04c0.55-0.65,1.23-1.18,1.79-1.83c-1.22,1.41-2.22,2.98-2.88,4.68
			c-0.6,1.31-0.73,2.79-0.44,4.2c0.42,2.06,1.71,3.97,2.96,5.71c0.29,0.44,0.58,0.86,0.84,1.29C84.78,87.18,85.03,88.63,84.23,90.1z
			"/>
	</g>
</g>
</svg>
